{"glyphs":{"0":{"ha":663,"x_min":51,"x_max":618,"o":"m 318 1288 q 268 1277 288 1282 q 234 1266 249 1272 q 206 1250 219 1260 q 174 1224 193 1240 q 157 1211 164 1215 q 145 1202 150 1207 q 135 1190 140 1197 q 124 1169 129 1183 q 115 1152 117 1156 q 110 1145 113 1149 q 104 1132 108 1142 q 90 1096 100 1122 q 73 1034 81 1069 q 61 961 65 999 q 56 886 57 924 q 57 818 54 849 q 56 736 60 783 q 61 631 51 689 l 122 376 q 135 341 128 356 q 151 315 142 326 q 171 292 160 303 q 196 269 182 282 l 247 232 q 265 224 253 229 q 291 212 278 218 q 316 201 304 206 q 332 197 328 197 q 337 199 333 197 q 342 200 340 200 q 372 205 356 203 q 404 211 388 207 q 437 224 421 215 q 464 249 453 232 q 520 326 494 289 q 563 415 546 364 q 596 543 583 485 q 614 671 608 601 q 616 710 615 685 q 617 763 617 735 q 617 815 618 790 q 614 854 617 840 q 608 884 611 874 q 603 902 606 894 q 597 916 600 910 q 592 935 594 922 q 571 1030 579 986 q 549 1114 563 1074 q 510 1191 535 1154 q 444 1264 486 1228 q 428 1274 438 1271 q 410 1281 419 1276 q 364 1293 385 1293 q 318 1288 343 1293 m 339 246 q 324 256 331 253 q 310 267 317 260 q 292 286 299 276 q 279 308 286 296 q 275 314 275 308 q 265 327 269 321 q 257 338 260 333 q 247 369 253 344 q 235 419 240 393 q 225 468 229 446 q 219 494 221 490 q 216 506 217 507 q 213 507 215 504 q 208 519 208 515 q 209 528 208 524 q 209 542 210 533 q 201 568 208 550 q 197 581 197 576 q 196 592 196 586 q 196 606 196 597 q 192 631 196 614 q 189 649 189 644 q 189 664 189 654 l 194 896 q 195 956 194 918 q 201 1035 196 993 q 215 1119 206 1078 q 240 1192 224 1161 q 282 1238 257 1224 q 343 1238 307 1251 q 369 1217 360 1231 q 388 1189 378 1203 l 421 1144 q 431 1116 428 1132 q 442 1082 435 1100 q 447 1067 444 1075 q 450 1051 449 1060 q 453 1010 451 1022 q 458 990 456 997 q 462 974 460 982 q 467 947 464 967 q 489 776 478 861 q 490 599 500 692 q 482 519 485 544 q 475 478 479 494 q 463 447 471 463 q 439 396 454 432 q 426 368 432 381 q 413 340 419 356 q 391 292 397 308 q 379 268 385 276 q 365 256 374 260 q 339 246 357 251 "},"1":{"ha":449,"x_min":103,"x_max":390,"o":"m 179 1100 q 178 1017 179 1067 q 175 916 176 968 q 175 816 174 864 q 181 738 176 768 q 191 644 189 689 q 194 556 193 600 q 196 465 194 511 q 201 368 197 419 q 203 347 203 351 q 203 341 204 342 q 199 338 203 340 q 192 326 196 336 q 188 317 190 324 q 184 301 186 310 q 181 284 182 292 q 178 272 179 276 q 176 256 175 263 q 177 246 176 250 q 177 238 178 242 q 172 226 176 233 q 165 218 167 218 q 156 213 163 218 q 146 206 149 207 q 142 205 143 206 q 141 202 140 204 q 140 193 142 200 q 166 190 150 189 q 200 192 182 190 q 236 197 218 194 q 269 200 254 199 q 297 198 279 200 q 332 195 314 196 q 366 196 350 194 q 390 204 382 197 q 355 247 371 222 q 324 296 339 272 q 312 339 315 311 q 307 397 308 367 q 304 458 306 428 q 297 507 303 488 q 295 524 294 517 q 297 537 296 531 q 299 551 297 543 q 299 569 300 558 l 288 706 q 290 785 290 742 q 288 865 289 829 q 283 895 286 882 q 279 924 281 908 q 280 961 278 936 q 285 1001 282 986 q 284 1067 288 1033 q 285 1140 281 1100 q 291 1210 288 1168 q 293 1286 294 1251 q 266 1295 286 1290 q 232 1301 246 1300 q 223 1281 225 1288 q 211 1261 221 1275 l 136 1149 q 120 1128 128 1138 q 108 1111 113 1119 q 103 1092 104 1103 q 107 1067 103 1082 q 119 1060 110 1057 q 140 1072 129 1064 q 163 1088 151 1079 q 179 1100 174 1097 "},"2":{"ha":654,"x_min":63,"x_max":569,"o":"m 63 1142 q 69 1135 65 1138 q 75 1129 72 1132 q 94 1103 88 1115 q 107 1071 101 1090 q 124 1022 115 1042 q 154 1004 132 1001 q 156 1035 157 1026 q 154 1051 156 1044 q 155 1069 153 1058 q 167 1104 157 1079 q 181 1145 176 1131 q 208 1176 186 1160 q 240 1199 221 1186 q 279 1217 258 1211 q 320 1220 300 1224 q 356 1193 340 1217 q 367 1156 361 1182 q 378 1101 374 1131 q 385 1043 382 1072 q 389 997 389 1014 q 387 941 389 967 q 382 891 385 915 q 375 842 379 867 q 368 790 371 817 q 344 701 361 746 q 317 615 328 656 q 306 569 310 592 q 294 524 301 547 l 164 147 q 160 133 161 138 q 156 126 158 129 q 151 122 154 124 q 139 114 147 119 q 161 101 147 103 q 190 100 175 99 q 219 103 204 101 q 246 104 235 106 q 264 101 261 103 q 272 97 267 99 q 291 92 276 94 q 344 90 306 90 l 486 89 q 499 92 500 90 q 510 94 499 93 q 535 92 525 97 q 558 85 544 86 q 565 107 564 99 q 566 122 567 115 q 565 140 565 129 q 567 171 564 150 q 567 191 569 190 q 561 199 564 192 l 561 203 q 558 226 558 211 q 558 256 558 240 q 553 288 557 272 q 540 317 550 304 q 530 317 532 317 q 528 317 528 317 q 529 315 529 317 q 525 311 529 314 q 510 290 515 304 q 500 264 506 276 q 483 229 492 244 q 463 203 474 214 q 434 185 451 192 q 392 174 417 178 q 364 172 371 171 q 353 174 357 172 q 340 177 349 175 q 306 178 331 179 q 317 211 310 190 q 332 256 325 232 q 344 303 339 281 q 349 339 349 325 q 347 352 347 350 q 347 354 346 354 q 349 356 347 354 q 357 365 351 357 q 369 399 361 372 q 386 465 376 426 q 406 546 396 503 q 426 628 417 589 q 442 697 435 667 q 454 740 450 728 l 471 800 q 475 830 475 818 q 483 861 475 842 q 492 904 489 874 q 498 969 496 935 q 500 1036 500 1004 q 499 1083 500 1068 q 475 1156 493 1131 q 440 1206 457 1181 q 428 1224 431 1219 q 414 1239 426 1229 q 375 1263 397 1251 q 298 1285 332 1283 q 235 1277 264 1288 q 181 1245 207 1267 q 128 1197 156 1224 q 114 1186 124 1193 q 94 1171 104 1179 q 75 1155 83 1163 q 63 1142 67 1147 "},"3":{"ha":606,"x_min":63,"x_max":542,"o":"m 75 1253 q 85 1235 81 1240 q 91 1224 89 1229 q 94 1210 93 1218 q 99 1186 96 1203 q 111 1152 101 1163 q 146 1144 121 1142 q 169 1224 149 1200 q 244 1240 189 1249 q 259 1196 253 1224 q 268 1138 265 1168 q 269 1078 271 1108 q 263 1028 268 1049 q 248 1001 260 1017 q 222 967 236 985 q 192 935 207 950 q 168 910 176 919 q 163 905 164 906 q 160 904 161 904 q 158 903 160 904 q 153 894 157 901 q 196 883 175 882 q 238 881 217 883 q 279 862 258 878 q 321 801 300 846 q 368 635 358 722 q 361 456 378 547 q 358 440 360 446 q 355 430 357 435 q 350 419 353 425 q 344 404 347 414 q 335 372 342 393 q 319 328 328 351 q 300 286 310 306 q 282 261 290 267 q 233 239 264 246 q 175 235 201 232 q 156 259 167 240 q 133 298 146 278 q 103 333 121 318 q 63 347 86 349 q 65 299 63 319 q 71 251 67 279 q 76 188 76 208 q 88 160 75 168 q 135 151 100 151 q 250 147 171 150 q 331 149 293 144 q 402 166 369 153 q 460 204 435 179 q 503 271 486 229 q 526 345 518 307 q 538 428 535 383 q 540 465 538 443 q 542 510 542 488 q 540 555 542 533 q 531 592 538 576 q 522 616 524 608 q 521 629 521 624 q 520 642 521 635 q 515 661 519 649 q 500 715 506 690 q 485 760 494 739 q 460 803 475 782 q 417 849 444 825 q 391 871 400 863 q 363 890 382 879 q 330 907 347 900 q 299 925 313 914 q 309 943 306 940 q 321 957 313 946 q 338 979 328 965 q 360 1009 349 993 q 380 1040 371 1025 q 393 1067 389 1056 q 401 1116 400 1089 q 399 1170 403 1143 q 388 1222 396 1197 q 369 1261 381 1246 q 319 1304 351 1288 q 256 1330 288 1321 q 198 1342 224 1339 q 165 1343 172 1344 q 145 1335 147 1339 q 139 1328 143 1332 q 135 1323 135 1322 q 131 1317 136 1324 q 117 1301 124 1308 q 101 1286 110 1294 l 75 1253 "},"4":{"ha":622,"x_min":15,"x_max":553,"o":"m 15 731 q 51 724 33 724 q 87 728 69 725 q 123 735 104 732 q 163 738 142 738 q 249 740 204 736 q 336 746 293 743 q 335 710 336 729 q 333 670 333 690 q 333 631 332 650 q 339 600 335 613 l 350 464 q 354 403 353 442 q 356 324 356 364 q 354 247 356 283 q 349 193 353 211 q 324 176 335 182 q 299 164 314 171 q 285 158 293 161 q 275 151 278 154 q 268 128 261 136 q 291 119 275 121 q 325 117 307 117 q 350 118 343 118 q 457 110 413 118 q 525 107 501 103 l 551 113 q 537 140 549 129 q 510 161 525 150 q 483 186 496 172 q 467 224 471 200 q 458 313 460 269 q 450 404 456 357 q 449 427 447 418 q 449 450 450 436 q 444 473 447 464 q 442 496 442 482 q 443 514 442 511 q 445 521 444 517 q 445 537 446 525 q 440 582 444 549 q 437 628 438 604 q 435 667 436 651 q 433 724 433 706 q 440 748 433 742 q 462 754 447 754 q 504 758 476 754 q 533 765 524 761 q 547 790 542 769 q 551 811 549 797 q 553 840 553 825 q 552 870 553 856 q 549 893 551 885 q 544 908 544 908 q 532 915 544 908 q 525 897 525 903 q 524 888 525 892 q 518 879 524 883 q 496 868 513 875 q 482 861 485 864 q 476 856 479 858 q 464 852 472 854 q 433 846 456 850 l 429 1044 q 431 1067 429 1060 q 435 1079 432 1075 q 443 1087 438 1083 q 458 1096 449 1090 q 442 1117 456 1101 q 411 1149 429 1132 q 374 1177 393 1165 q 340 1189 354 1189 q 337 1149 338 1178 q 337 1082 336 1119 q 338 1002 338 1044 q 340 922 339 960 q 342 858 342 885 q 340 822 342 831 q 322 815 333 818 q 297 809 311 813 q 270 803 283 806 q 249 800 257 801 q 193 794 219 796 q 138 789 167 792 q 153 844 144 810 q 171 913 161 878 q 190 980 181 949 q 208 1026 200 1011 q 221 1051 217 1042 q 228 1069 225 1061 q 234 1088 231 1078 q 246 1114 238 1097 q 262 1146 257 1139 q 266 1161 267 1153 q 261 1189 265 1169 q 251 1257 257 1208 q 237 1317 249 1285 q 208 1369 225 1350 q 197 1383 201 1379 q 176 1385 192 1386 q 167 1306 176 1347 q 147 1223 158 1265 q 124 1137 136 1181 q 108 1050 113 1093 q 88 967 103 1006 q 60 890 74 929 l 15 731 "},"5":{"ha":543,"x_min":60,"x_max":488,"o":"m 76 1268 q 82 1226 76 1249 q 88 1158 88 1204 q 83 1092 88 1125 q 76 1025 78 1058 q 76 998 76 1014 q 76 969 75 982 q 81 932 79 940 q 83 917 82 924 q 83 899 83 911 q 83 851 83 886 q 104 808 83 819 q 126 821 110 807 q 164 847 142 835 q 213 864 186 860 q 268 847 240 868 q 296 830 286 833 q 317 811 306 826 q 349 753 338 781 q 363 697 360 726 q 364 632 367 667 q 354 554 361 597 q 347 514 350 528 q 340 492 343 500 q 333 476 336 483 q 325 457 329 469 q 321 441 322 446 q 314 425 319 436 q 303 402 307 408 q 298 392 300 396 q 294 385 296 389 q 288 371 292 382 q 283 351 285 358 q 278 338 281 344 q 271 326 275 332 q 260 311 267 319 q 224 281 242 286 q 191 283 207 276 q 160 307 175 290 q 133 342 146 324 q 111 376 121 360 q 94 401 101 393 l 64 399 q 62 353 60 375 q 64 307 64 331 q 85 250 65 272 q 136 215 106 228 q 201 201 167 203 q 267 204 236 199 q 337 235 307 213 q 390 283 367 258 q 444 355 425 318 q 474 431 464 392 q 485 514 483 471 q 486 604 488 557 q 481 683 485 640 q 464 766 476 726 q 428 839 451 806 q 368 890 406 872 q 351 897 363 893 q 327 903 340 900 q 301 910 314 907 q 283 915 289 914 q 237 918 260 922 q 192 911 214 914 q 190 915 192 917 l 189 925 q 188 929 188 926 q 187 938 188 932 q 186 947 186 943 q 181 1001 183 963 q 175 1082 178 1040 q 172 1158 172 1124 q 176 1197 172 1192 q 196 1203 178 1199 q 237 1210 214 1207 q 280 1217 260 1214 q 306 1218 300 1219 q 326 1200 318 1214 q 340 1169 333 1186 q 353 1136 346 1151 q 374 1115 361 1121 q 382 1119 381 1119 q 383 1119 383 1119 q 384 1122 383 1119 q 389 1131 385 1124 q 401 1159 400 1146 q 399 1192 401 1172 q 397 1212 399 1199 q 395 1239 396 1225 q 393 1265 394 1253 q 390 1282 392 1276 q 334 1285 371 1288 q 253 1276 297 1282 q 162 1267 208 1271 q 76 1268 115 1263 "},"6":{"ha":576,"x_min":50,"x_max":493,"o":"m 197 835 q 212 914 204 875 q 235 986 219 953 l 286 1093 q 291 1101 292 1103 q 294 1111 290 1100 q 312 1151 307 1142 q 319 1167 317 1160 q 327 1190 322 1175 q 344 1246 332 1204 q 360 1280 351 1267 q 376 1301 368 1293 q 392 1316 385 1310 q 401 1331 399 1322 q 405 1350 403 1335 q 408 1371 407 1365 q 396 1376 399 1376 q 392 1376 393 1376 q 389 1378 390 1376 q 381 1389 388 1381 q 372 1402 376 1394 q 351 1399 367 1410 q 346 1395 344 1396 q 344 1388 347 1394 q 327 1351 336 1365 q 309 1327 318 1338 q 292 1307 300 1317 q 278 1283 285 1297 l 192 1118 q 173 1076 185 1097 q 146 1014 161 1054 q 117 939 126 964 q 103 894 108 914 q 94 847 99 874 q 76 769 89 821 l 54 599 q 55 517 50 547 q 63 456 60 488 q 62 433 64 442 q 61 414 60 425 l 69 381 q 76 346 71 368 q 87 300 81 324 q 100 256 93 276 q 113 228 107 236 q 114 227 114 228 q 115 226 114 226 q 144 188 133 204 q 165 156 154 171 q 190 128 175 142 q 232 100 204 115 q 263 88 251 89 q 301 85 275 86 q 339 91 319 83 q 377 110 358 99 q 410 135 396 122 q 433 157 425 149 q 469 227 457 183 q 486 315 482 271 q 492 408 490 360 q 490 502 493 456 q 476 591 486 549 q 447 665 467 633 q 425 694 436 682 q 401 722 414 707 q 378 752 389 738 q 353 778 368 767 q 318 803 332 792 q 288 821 304 814 q 251 831 272 828 q 197 835 231 835 m 369 138 q 316 147 331 138 q 286 179 301 157 q 251 234 271 197 q 212 313 231 271 q 178 396 193 356 q 161 464 164 436 q 155 512 158 486 q 150 564 151 538 q 150 615 149 590 q 158 660 151 640 q 160 665 160 663 q 163 669 161 668 q 165 681 165 681 q 165 692 164 681 q 169 713 167 699 q 174 741 171 726 q 181 769 178 756 q 188 788 185 782 q 247 751 229 769 q 281 707 265 733 q 301 679 292 690 q 318 658 310 668 q 335 635 326 647 q 351 603 343 622 q 403 417 390 517 q 400 221 417 318 q 392 184 396 196 q 385 166 389 172 q 378 155 382 160 q 369 138 374 150 "},"7":{"ha":589,"x_min":63,"x_max":556,"o":"m 63 1322 l 63 1146 q 69 1122 65 1129 q 89 1111 74 1114 l 114 1163 q 115 1170 117 1169 q 119 1182 114 1171 q 147 1211 129 1201 q 184 1224 165 1221 q 217 1228 203 1228 q 235 1228 232 1228 q 256 1233 246 1229 q 282 1239 267 1236 q 306 1242 292 1240 q 333 1244 319 1243 q 359 1247 347 1246 q 375 1251 371 1249 q 365 1203 372 1232 q 349 1144 358 1175 q 329 1085 339 1114 q 313 1038 319 1057 q 305 1022 308 1026 q 297 1006 301 1017 l 278 936 l 278 925 l 276 921 q 268 895 269 904 q 267 878 267 886 q 270 860 268 869 q 271 835 272 851 l 228 649 q 216 587 219 608 q 212 547 213 565 q 212 508 211 529 q 214 449 213 486 q 212 414 214 426 q 208 387 210 401 q 206 349 206 372 q 210 279 206 325 q 212 253 211 264 q 214 235 213 243 q 217 219 215 226 q 225 200 219 211 q 236 177 233 183 q 242 169 239 171 q 252 169 246 168 q 272 165 258 169 q 290 159 283 163 q 308 156 297 156 q 315 157 317 157 q 324 161 314 157 l 339 171 q 330 205 332 183 q 324 243 328 226 q 322 292 319 263 q 328 355 324 322 q 337 420 332 388 q 343 476 342 453 q 347 518 346 499 q 351 557 349 538 q 357 596 356 579 q 361 636 358 613 q 369 692 364 657 q 383 769 375 728 q 399 856 390 811 q 417 944 408 901 q 433 1021 425 986 q 447 1078 442 1056 q 466 1135 453 1100 q 495 1206 479 1169 q 527 1275 511 1243 q 556 1324 543 1307 q 499 1334 528 1338 q 438 1331 471 1331 q 374 1331 408 1329 q 307 1333 340 1332 q 242 1333 274 1333 q 186 1328 211 1332 q 158 1323 167 1325 q 128 1319 149 1321 q 63 1322 93 1318 "},"8":{"ha":633,"x_min":47,"x_max":563,"o":"m 314 826 l 314 824 q 326 844 317 832 q 342 865 336 857 q 359 886 353 882 q 373 898 365 890 q 392 925 381 906 q 425 990 404 944 q 447 1039 436 1015 q 463 1090 457 1063 q 465 1113 464 1096 q 467 1151 467 1131 q 469 1187 468 1171 q 469 1207 469 1203 q 464 1229 468 1215 q 453 1258 460 1243 q 441 1285 447 1272 q 431 1307 435 1299 q 416 1331 422 1322 q 402 1347 410 1340 q 384 1358 394 1353 q 357 1369 374 1363 q 294 1382 321 1383 q 246 1369 267 1381 q 208 1340 225 1358 q 178 1300 192 1321 q 141 1195 147 1256 q 146 1072 135 1135 q 181 968 157 1013 q 224 875 206 924 q 234 838 233 850 q 226 810 235 825 q 198 771 217 796 q 150 696 179 746 q 106 599 124 651 q 71 493 88 547 q 52 326 47 411 q 71 154 57 240 q 76 124 74 131 q 83 116 79 118 q 93 110 88 114 q 110 90 99 107 q 128 60 121 71 q 144 42 136 49 q 163 28 153 35 q 192 11 174 21 q 250 -14 217 -1 q 319 -31 283 -26 q 389 -27 356 -35 q 447 7 422 -19 q 472 32 461 22 q 493 53 483 42 q 511 83 503 64 q 531 135 519 101 q 544 161 538 154 q 554 181 550 168 q 562 247 563 207 q 555 330 561 288 q 539 411 549 372 q 518 474 529 450 q 496 519 507 500 q 474 567 485 539 q 425 669 447 632 q 386 725 403 706 q 358 755 369 744 q 340 778 346 765 q 326 803 332 794 q 314 826 321 813 m 286 721 q 294 712 294 713 q 300 700 293 711 l 328 642 q 355 583 340 617 q 383 512 369 549 q 409 440 397 475 q 428 379 421 406 q 438 335 432 363 q 448 276 444 307 q 451 215 451 244 q 440 165 450 185 q 425 131 433 151 q 408 91 417 111 q 389 55 399 71 q 369 35 379 39 l 336 28 q 309 28 317 25 q 292 43 301 32 q 267 64 276 58 q 253 74 258 69 q 244 84 247 78 q 235 107 240 90 q 228 128 231 118 q 222 150 225 139 l 206 197 q 197 218 201 208 q 189 239 193 228 q 181 312 181 261 q 187 420 181 363 q 203 530 193 478 q 225 606 213 582 q 235 629 229 614 q 249 661 242 644 q 266 694 257 678 q 286 721 275 710 m 292 892 l 267 942 q 256 972 260 954 q 250 1008 251 990 q 249 1042 249 1026 q 250 1067 249 1058 q 251 1097 253 1078 q 249 1139 250 1115 q 249 1192 247 1163 q 261 1257 251 1222 q 283 1308 268 1281 q 321 1342 299 1335 q 358 1277 346 1321 q 374 1186 371 1233 q 375 1099 378 1139 q 367 1047 372 1058 l 361 1038 q 349 1003 356 1028 q 321 933 342 978 q 311 914 314 921 q 306 903 308 907 q 301 898 304 900 q 292 892 299 896 "},"9":{"ha":572,"x_min":71,"x_max":481,"o":"m 340 606 q 342 603 343 601 q 347 596 342 604 q 359 545 360 575 q 356 492 358 515 q 353 431 353 467 q 353 356 353 396 q 351 277 353 317 q 344 206 350 238 q 328 156 339 175 q 301 136 318 136 q 281 148 294 139 q 264 164 267 157 q 258 183 260 171 q 254 210 257 196 q 247 235 251 225 q 238 260 242 246 q 235 292 232 283 q 233 317 239 301 q 220 336 231 322 q 206 356 210 350 q 185 374 194 368 q 164 383 175 379 q 142 391 153 388 q 118 401 131 394 q 94 413 100 411 q 71 401 88 415 q 81 383 78 386 q 88 376 85 379 q 94 365 92 372 q 104 332 97 357 q 108 314 106 325 q 114 290 111 303 q 120 267 117 278 q 126 247 124 256 q 207 119 161 157 q 298 88 253 82 q 381 140 343 94 q 435 264 418 186 q 447 352 440 292 q 457 481 453 413 q 464 611 461 549 q 467 706 467 674 q 468 741 467 735 q 472 753 469 747 q 474 776 474 760 q 474 840 475 792 q 474 883 472 871 q 478 909 476 896 q 481 947 481 922 q 475 1028 481 972 q 471 1079 472 1049 q 465 1142 469 1110 q 454 1202 461 1174 q 433 1246 447 1231 l 397 1293 q 391 1301 393 1299 q 385 1308 389 1304 q 366 1317 372 1318 q 342 1318 360 1315 q 315 1324 322 1321 q 301 1326 307 1326 q 288 1325 296 1326 q 258 1318 279 1324 q 220 1299 236 1313 q 193 1272 204 1285 q 136 1201 154 1231 q 110 1147 118 1172 q 101 1100 103 1122 q 93 1051 99 1078 q 89 1015 90 1040 q 87 957 88 989 q 85 890 86 925 q 85 824 85 854 q 87 770 86 793 q 89 740 88 747 q 101 704 93 724 q 122 667 110 685 q 147 634 133 649 q 176 613 161 619 q 221 595 201 601 q 259 588 240 589 q 297 591 278 586 q 340 606 317 596 m 293 643 q 250 658 274 646 q 218 689 226 669 q 211 718 215 696 q 203 771 207 740 q 194 835 199 801 q 188 900 190 869 q 183 952 185 931 q 182 981 181 974 q 192 1036 185 1006 q 210 1099 200 1067 q 231 1162 219 1131 q 254 1218 243 1193 q 262 1241 260 1231 q 268 1259 264 1251 q 281 1272 272 1267 q 304 1279 289 1276 q 324 1207 319 1243 q 332 1125 329 1171 q 333 1037 333 1081 q 333 949 332 993 q 335 863 336 900 q 332 778 335 825 q 324 716 328 735 q 317 688 321 697 q 307 672 313 679 q 293 643 301 664 "},"\u0000":{"ha":0,"x_min":0,"x_max":0,"o":""},"\r":{"ha":421,"x_min":0,"x_max":0,"o":""}," ":{"ha":421,"x_min":0,"x_max":0,"o":""},"!":{"ha":482,"x_min":178,"x_max":401,"o":"m 224 353 q 248 347 238 346 q 265 351 258 347 q 279 364 274 357 l 318 686 q 329 774 326 732 q 334 862 332 817 q 342 958 336 907 q 361 1069 347 1008 q 374 1138 369 1106 q 389 1206 378 1171 q 397 1224 392 1215 q 397 1240 401 1233 q 374 1251 393 1246 q 313 1261 356 1257 q 269 1256 282 1263 q 253 1237 257 1249 q 250 1213 249 1225 q 250 1192 251 1200 q 240 1118 243 1154 q 231 1046 236 1082 q 225 974 224 1004 q 231 907 226 943 q 230 879 231 899 q 228 838 229 860 q 224 797 226 817 q 222 764 222 776 q 219 725 221 736 q 218 706 218 714 q 219 686 218 697 q 222 647 219 675 q 220 632 222 636 q 215 613 218 628 q 215 546 213 582 q 215 476 218 510 l 224 353 m 225 256 l 225 253 q 211 246 217 249 q 202 240 206 243 q 197 230 199 236 q 192 213 194 224 q 182 181 186 196 q 181 149 178 167 q 206 90 185 107 q 248 80 226 74 q 286 114 269 86 q 299 190 303 142 q 297 205 297 204 q 290 217 296 206 q 281 232 286 222 q 269 249 276 242 q 251 260 263 257 q 225 256 240 263 "},"A":{"ha":621,"x_min":-3,"x_max":660,"o":"m 1 171 q 29 173 18 167 q 52 188 40 179 q 79 203 64 196 q 118 208 94 210 q 148 207 126 208 q 192 206 169 206 q 234 206 215 206 q 256 211 253 207 q 262 224 263 218 q 256 233 261 229 q 242 242 250 238 q 225 253 233 246 q 199 274 210 265 q 176 290 188 283 q 183 334 178 314 q 192 375 188 354 q 196 421 194 394 q 200 469 197 447 q 204 516 204 494 q 205 558 204 538 q 209 597 206 578 q 224 635 213 615 q 258 631 239 633 q 292 626 276 628 q 334 628 319 624 q 357 624 349 632 q 369 590 365 617 q 381 500 374 564 q 391 440 383 472 q 406 376 399 408 q 415 333 410 356 q 422 288 419 311 q 423 243 425 265 q 408 201 421 221 q 401 190 406 197 q 392 174 396 182 q 385 158 388 165 q 382 146 382 150 q 385 143 386 144 q 382 142 383 142 q 383 142 381 142 q 397 144 386 142 q 414 153 404 146 q 426 167 421 160 q 438 182 431 175 q 453 192 446 190 q 469 193 461 193 q 488 193 478 193 q 513 196 499 193 q 533 201 525 199 q 547 206 540 204 q 563 209 554 208 q 588 208 572 210 q 625 198 611 206 q 660 193 639 190 q 651 210 656 208 q 636 219 647 213 q 623 228 628 225 q 610 239 618 232 l 554 282 q 528 324 539 294 q 510 389 518 354 q 496 456 501 424 q 486 506 490 489 q 475 544 481 526 q 464 581 469 561 l 438 733 q 431 774 435 753 q 425 811 428 794 l 389 1071 q 380 1110 383 1089 q 371 1146 376 1132 q 353 1195 358 1181 q 347 1219 349 1210 q 342 1243 344 1229 q 332 1293 340 1257 q 325 1322 329 1303 q 308 1346 321 1340 l 292 1349 l 217 1056 q 212 1019 213 1032 q 207 983 211 1006 q 191 918 197 938 q 180 882 185 899 q 172 838 175 865 q 164 751 168 811 q 149 672 161 710 q 131 597 138 633 q 126 557 128 578 q 118 517 124 536 q 112 497 115 504 q 105 483 108 490 q 99 466 101 475 q 97 443 97 457 q 95 394 96 410 q 94 366 94 379 q 90 335 93 353 q 81 281 88 317 q 62 244 76 257 q 33 222 47 232 q 8 201 18 213 q 1 171 -3 190 m 231 696 q 249 798 240 758 q 267 874 258 838 q 282 953 275 910 q 296 1069 289 997 q 304 1038 299 1064 q 315 973 310 1011 q 327 891 321 935 q 338 806 333 847 q 345 734 342 765 q 349 690 349 703 q 317 690 333 692 q 285 689 300 689 q 257 692 267 690 q 231 696 247 694 "},"a":{"ha":614,"x_min":6,"x_max":614,"o":"m 6 294 q 14 298 11 297 q 19 299 17 299 q 26 299 21 299 q 40 304 31 300 q 62 316 54 311 q 79 318 69 321 q 85 316 79 318 q 99 311 92 314 q 113 306 106 308 q 121 303 119 303 q 144 297 133 300 q 157 282 154 293 q 169 288 164 290 q 185 296 175 286 q 188 302 189 300 q 186 309 188 304 q 183 326 185 314 q 185 360 182 338 l 185 363 l 186 396 q 187 426 186 408 q 188 460 188 443 q 190 494 189 478 q 194 524 192 511 q 200 566 200 549 q 201 596 200 583 q 208 616 203 608 q 233 628 214 624 q 286 634 251 632 q 381 636 321 636 q 393 532 388 582 q 406 426 399 482 q 409 395 408 407 q 408 374 410 383 q 401 355 406 364 q 392 332 397 346 q 385 317 390 329 q 375 290 381 304 q 365 265 369 276 q 361 254 361 254 q 383 250 372 247 q 413 260 394 253 q 434 271 429 267 q 454 285 439 275 l 532 253 q 545 249 542 249 q 551 250 549 250 q 560 249 554 250 q 578 240 565 247 q 595 233 590 233 q 614 244 600 233 q 609 252 611 250 q 603 258 607 254 q 594 267 600 261 q 579 289 589 274 q 565 318 569 306 q 553 346 560 331 q 538 390 546 360 q 520 458 529 419 q 502 538 511 496 q 485 617 493 579 q 472 685 478 656 q 461 731 465 715 q 444 797 451 767 q 425 861 436 826 l 321 1203 q 317 1210 318 1208 q 313 1214 315 1213 q 308 1217 311 1215 q 301 1225 306 1219 q 292 1245 294 1235 q 274 1257 289 1256 q 260 1251 265 1257 q 252 1238 254 1246 q 249 1219 250 1229 q 247 1201 247 1210 q 238 1131 246 1174 q 220 1042 231 1088 q 199 953 210 996 q 181 882 188 910 q 176 865 178 871 q 172 849 175 860 q 167 813 169 829 q 160 779 165 797 l 96 493 q 54 390 86 433 q 35 356 42 374 q 17 324 28 339 q 7 311 8 311 q 6 294 6 311 m 215 693 q 221 722 218 710 q 226 744 224 733 q 232 767 229 754 q 236 797 235 779 l 276 996 q 285 1032 283 1018 q 288 1055 288 1046 q 288 1071 288 1064 q 294 1088 289 1078 l 333 908 q 349 816 342 864 q 363 719 356 768 q 358 718 361 718 q 335 708 343 710 q 322 706 328 706 q 308 707 315 706 q 289 708 301 708 q 253 701 274 707 q 215 693 232 696 "},"B":{"ha":660,"x_min":32,"x_max":624,"o":"m 32 1115 q 33 1107 33 1108 q 32 1106 32 1106 q 34 1106 32 1106 q 43 1100 36 1106 q 87 1070 69 1081 q 115 1046 104 1060 q 128 1008 125 1032 q 132 935 132 983 q 134 835 132 882 q 139 744 136 789 q 143 652 142 699 q 143 551 144 606 q 140 487 142 515 q 136 421 138 458 q 137 391 136 411 q 139 350 138 371 q 141 311 140 329 q 140 289 142 293 q 126 258 136 268 q 106 242 117 249 q 87 229 96 236 q 75 208 78 222 q 115 206 96 201 q 156 217 133 211 q 208 223 179 222 q 279 210 238 224 q 294 205 290 206 q 298 204 297 204 q 299 206 299 204 q 303 208 299 207 q 332 206 308 210 q 387 203 356 203 q 451 210 418 203 q 508 238 483 217 q 513 242 514 242 q 510 240 513 242 q 508 238 508 239 q 514 243 508 238 l 521 250 q 539 276 532 263 q 561 304 546 289 q 613 404 601 346 q 615 521 624 463 q 604 599 608 568 q 588 654 600 629 q 553 704 576 679 q 486 765 529 729 q 426 799 461 785 q 353 821 392 814 q 391 836 374 831 q 426 851 408 842 q 461 876 443 860 q 499 925 479 893 q 515 976 514 950 q 506 1023 515 1001 q 481 1061 496 1044 q 450 1086 465 1078 q 394 1113 414 1106 q 358 1122 375 1121 q 317 1121 340 1124 q 251 1115 294 1118 q 197 1109 224 1114 q 138 1104 169 1104 q 112 1108 126 1104 q 82 1115 97 1111 q 53 1119 67 1118 q 32 1115 40 1119 m 225 779 q 251 779 240 778 q 270 781 261 781 q 289 781 279 782 q 315 775 299 779 q 367 753 340 767 q 417 723 393 740 q 460 684 442 706 q 488 639 479 663 q 497 598 493 622 q 501 548 500 574 q 500 497 501 522 q 496 453 499 472 q 477 381 489 411 q 436 324 465 351 q 399 300 421 310 q 353 285 376 290 q 310 277 331 279 q 281 278 290 275 q 253 283 264 282 q 236 289 242 285 q 229 302 231 293 q 231 331 228 311 q 231 430 238 383 q 226 503 225 476 q 230 567 228 528 q 233 649 232 607 q 232 726 233 690 q 225 779 231 763 m 226 811 l 211 1029 q 229 1063 211 1053 q 278 1083 247 1072 q 327 1085 311 1097 q 358 1057 343 1072 q 383 1021 372 1043 q 399 974 394 999 q 401 926 404 949 q 383 886 397 903 q 367 872 376 878 q 347 860 357 867 q 309 831 321 838 q 288 824 297 825 q 265 823 278 824 q 226 811 253 822 "},"C":{"ha":547,"x_min":61,"x_max":526,"o":"m 518 482 q 488 467 497 479 q 475 436 479 454 q 467 397 471 418 q 450 356 463 375 q 434 340 444 347 q 411 326 424 332 q 386 315 399 319 q 364 313 374 311 q 317 328 338 315 q 281 361 297 342 q 253 403 265 381 q 232 449 240 426 q 228 463 228 458 q 228 472 228 468 q 228 482 228 476 q 228 500 229 488 q 221 525 226 513 q 210 550 215 538 q 200 576 204 563 q 196 604 196 589 q 191 654 196 615 q 184 745 186 693 q 185 856 182 797 q 200 965 188 914 q 217 1024 206 986 q 245 1100 229 1061 q 278 1172 261 1139 q 308 1219 294 1206 q 333 1232 321 1232 q 356 1224 346 1232 q 375 1205 367 1217 q 388 1183 383 1193 q 406 1135 397 1163 q 426 1092 414 1107 q 444 1079 431 1088 q 472 1065 457 1071 q 498 1059 486 1060 q 513 1068 510 1058 q 508 1120 517 1089 q 484 1181 499 1151 q 456 1233 469 1211 q 439 1258 443 1256 q 391 1281 419 1272 q 339 1289 363 1289 q 245 1263 285 1290 q 176 1192 206 1235 q 127 1099 147 1150 q 93 1006 107 1049 q 79 951 83 976 q 68 897 75 926 q 64 861 65 888 q 62 800 63 835 q 62 726 61 765 q 63 653 63 688 q 65 592 64 618 q 69 556 67 565 q 98 453 81 497 q 140 364 115 408 q 167 332 147 351 q 210 294 188 313 q 255 260 233 275 q 289 243 276 246 q 389 243 349 228 q 472 297 429 258 q 497 322 489 313 q 507 341 504 332 q 512 360 510 350 q 519 388 514 371 q 521 390 521 389 q 522 392 521 390 q 525 410 524 397 q 526 437 526 424 q 524 463 526 450 q 518 482 522 475 "},"D":{"ha":636,"x_min":57,"x_max":638,"o":"m 206 444 q 185 435 197 439 q 161 424 174 431 q 135 404 149 417 q 110 369 122 392 q 102 357 104 358 q 99 356 100 356 q 98 353 99 356 q 96 342 97 351 q 119 338 111 335 q 140 349 128 342 q 175 365 153 356 q 240 379 197 374 q 260 381 247 381 q 281 385 274 382 q 292 390 290 388 q 294 392 293 392 q 300 393 296 393 q 319 393 304 393 q 366 392 350 393 q 395 395 382 392 q 424 407 408 399 q 471 433 440 415 q 522 478 496 449 q 563 533 549 507 q 576 568 565 539 q 597 633 586 597 q 617 700 608 668 q 628 742 626 732 q 633 794 631 776 q 636 828 635 813 q 638 865 638 844 q 635 925 638 885 q 633 962 633 949 q 630 988 632 975 q 622 1015 628 1000 q 601 1058 615 1031 q 584 1090 593 1075 q 564 1119 575 1104 q 534 1151 554 1133 q 489 1188 514 1169 q 439 1220 464 1206 q 396 1242 414 1235 q 326 1262 350 1258 q 288 1264 301 1265 q 263 1258 274 1263 q 236 1253 253 1253 q 201 1253 228 1253 q 145 1255 174 1254 q 93 1255 117 1256 q 68 1250 69 1254 q 65 1226 57 1233 q 90 1211 74 1219 q 126 1189 107 1203 q 156 1147 144 1175 q 163 1099 161 1133 q 167 1017 165 1064 q 169 915 168 969 q 172 806 169 860 q 177 705 174 753 q 188 624 181 657 q 193 581 193 596 q 194 533 193 565 q 198 488 196 517 q 206 444 200 458 m 297 465 q 299 499 299 483 q 296 531 299 515 q 290 562 290 550 q 289 584 289 574 q 290 605 289 594 q 290 631 292 615 q 287 682 288 665 q 285 712 286 699 q 280 742 283 725 q 269 794 276 758 q 257 877 263 826 q 249 980 251 928 q 247 1077 246 1032 q 254 1143 247 1122 q 286 1173 263 1171 q 340 1171 310 1175 q 383 1153 369 1168 q 415 1121 397 1139 l 446 1085 q 460 1069 457 1075 q 471 1047 464 1063 q 505 967 493 1003 q 522 897 517 932 q 527 822 526 861 q 528 731 528 782 q 522 684 528 714 q 509 622 517 654 q 492 563 501 590 q 478 525 483 535 q 464 513 474 519 q 442 500 454 507 q 419 488 431 493 q 400 478 407 482 q 371 465 381 469 q 352 461 361 461 q 331 463 343 461 q 297 465 319 464 "},"E":{"ha":565,"x_min":63,"x_max":556,"o":"m 63 1056 q 70 1036 64 1044 q 85 1021 76 1028 q 105 1006 94 1014 q 125 985 115 997 q 149 940 139 965 q 160 885 158 915 q 160 860 161 868 q 160 847 160 853 q 160 835 160 842 q 164 811 161 828 q 172 747 169 779 q 172 678 175 714 q 174 598 169 644 q 182 499 179 551 q 183 394 185 447 q 164 290 181 340 q 150 263 157 272 q 136 247 143 253 q 121 233 129 240 q 104 213 113 226 q 128 209 118 206 q 153 218 139 213 q 189 228 168 224 q 244 231 210 233 q 277 222 264 228 q 315 214 290 215 q 367 215 346 213 q 404 222 388 218 q 437 228 421 225 q 474 229 453 231 q 513 225 492 228 q 544 236 535 222 q 553 269 556 249 q 550 308 550 290 q 549 326 550 314 q 548 350 549 338 q 546 372 547 363 q 544 383 544 382 q 526 382 528 383 q 519 371 525 381 l 488 288 q 436 290 457 286 q 383 294 415 294 q 329 292 360 293 q 281 300 299 290 q 271 360 274 313 q 266 463 268 407 q 264 571 264 519 q 264 643 264 622 l 383 674 q 390 613 389 629 q 389 592 390 596 q 385 590 388 588 q 383 586 383 592 l 397 569 q 403 558 403 563 q 406 552 404 554 q 409 549 407 550 q 419 544 411 547 q 436 574 436 560 q 433 611 436 589 q 435 651 432 622 q 435 728 439 679 q 433 745 433 736 q 431 760 432 754 q 424 778 428 774 q 432 790 419 782 q 415 801 424 792 q 397 816 406 811 q 383 816 389 821 q 378 782 378 811 q 376 751 376 760 q 353 735 376 742 l 258 715 q 257 783 258 743 q 255 862 256 822 q 256 935 254 901 q 265 986 258 969 q 293 1008 272 1000 q 339 1021 314 1017 q 388 1026 364 1025 q 424 1028 411 1028 q 448 1019 439 1028 q 463 999 457 1011 q 475 972 469 988 q 489 943 481 957 q 499 927 493 935 q 513 914 504 919 q 527 931 526 921 q 531 974 528 940 q 533 1018 533 997 q 517 1050 532 1039 q 457 1068 497 1063 q 371 1073 417 1074 q 282 1066 325 1072 q 215 1047 239 1060 q 171 1033 190 1033 q 134 1037 151 1032 q 99 1049 117 1042 q 63 1056 82 1056 "},"F":{"ha":518,"x_min":63,"x_max":524,"o":"m 63 1197 q 65 1181 64 1186 q 68 1173 65 1176 q 76 1167 71 1169 q 90 1161 82 1165 q 133 1122 126 1142 q 142 1079 140 1101 q 147 1045 144 1060 q 151 1011 149 1031 q 157 881 157 947 q 160 747 157 814 q 160 618 163 682 q 165 489 158 554 q 176 431 168 461 q 178 371 183 401 q 166 347 175 356 q 145 331 157 338 q 123 319 133 325 q 107 301 113 313 q 116 290 110 297 q 158 286 122 283 q 188 297 175 289 q 217 307 200 304 q 244 306 229 308 q 276 299 258 303 q 312 290 293 294 q 350 288 331 286 q 349 319 353 310 q 338 333 346 329 q 322 338 331 336 q 304 347 313 339 q 289 372 296 354 q 279 425 282 389 q 283 453 278 442 q 289 483 288 464 q 283 537 292 511 q 269 594 274 563 q 266 627 267 613 q 263 660 265 642 q 258 692 260 678 q 256 726 256 707 l 340 746 q 351 725 346 738 q 358 704 356 713 q 361 686 361 692 q 362 677 361 681 q 366 671 363 674 q 379 663 369 668 l 389 676 q 394 704 394 692 q 392 727 394 717 q 385 746 389 738 q 381 763 382 754 q 361 883 374 826 q 335 888 342 892 q 327 874 328 885 q 330 847 326 864 q 335 810 333 829 l 246 808 q 248 899 250 851 q 244 990 246 946 q 245 1069 243 1033 q 258 1124 247 1104 q 297 1127 268 1125 q 358 1131 326 1129 q 417 1133 390 1133 q 449 1129 444 1133 q 456 1110 451 1126 q 465 1072 460 1093 q 474 1034 469 1051 q 481 1013 478 1017 q 508 1031 504 1015 q 515 1069 513 1046 q 519 1163 524 1136 q 500 1197 515 1190 q 457 1197 485 1203 q 392 1190 429 1192 l 263 1190 q 242 1188 253 1190 q 221 1186 232 1186 q 178 1188 207 1185 q 133 1193 150 1192 q 110 1198 118 1194 q 97 1203 103 1201 q 83 1204 90 1206 q 63 1197 76 1203 "},"G":{"ha":535,"x_min":58,"x_max":529,"o":"m 296 592 q 318 576 307 579 q 340 575 329 574 q 365 580 351 576 q 396 585 379 583 q 392 576 393 575 q 390 577 390 576 q 390 572 389 578 q 393 540 390 565 q 392 510 394 522 q 389 483 390 499 q 392 422 389 463 q 392 339 394 381 q 379 263 390 297 q 340 219 368 229 l 289 204 q 271 233 282 217 q 253 260 260 249 q 221 320 232 296 q 200 365 210 344 q 188 417 190 389 q 185 473 185 444 q 185 526 185 501 q 185 569 186 551 q 186 656 181 615 q 199 739 192 696 q 201 781 203 764 q 204 821 200 799 q 211 860 208 839 q 218 900 214 881 q 227 938 221 914 q 240 985 233 961 q 255 1031 247 1010 q 267 1060 263 1051 q 306 1115 288 1103 q 341 1118 325 1126 q 367 1085 357 1110 q 382 1032 378 1061 q 383 974 386 1003 q 367 925 379 944 l 361 918 q 342 891 350 904 q 338 858 335 878 q 359 858 357 854 q 372 871 361 863 q 388 881 383 881 q 403 893 392 882 q 426 915 418 908 q 441 925 435 922 q 452 930 447 928 q 465 939 457 932 q 464 958 465 953 q 460 970 463 964 q 457 988 458 976 q 456 1028 456 1000 l 456 1031 l 447 1088 q 441 1097 447 1089 q 428 1113 435 1104 q 414 1128 421 1121 q 404 1138 407 1135 q 376 1156 394 1146 q 343 1169 358 1167 q 277 1159 310 1176 q 217 1114 244 1142 q 170 1055 190 1086 q 140 1001 150 1024 q 120 942 132 982 q 97 856 108 901 q 76 769 85 811 q 64 704 67 726 q 65 619 58 665 q 69 531 71 574 q 74 485 69 506 q 78 442 78 465 q 78 394 78 415 q 82 349 78 374 q 104 280 89 306 q 138 238 119 254 q 174 213 156 222 q 207 193 192 203 q 280 165 244 167 q 358 176 315 163 q 393 188 378 182 q 419 208 408 193 q 474 333 461 274 q 488 443 488 393 q 483 533 488 493 q 489 600 479 572 q 494 612 493 613 q 498 611 496 611 q 504 619 500 611 q 519 657 508 628 q 524 667 521 661 q 528 676 528 672 q 526 683 529 681 q 514 685 524 686 q 499 678 501 683 q 485 665 496 674 q 429 636 460 649 q 368 617 399 624 q 340 614 351 614 q 315 607 329 614 l 296 592 "},"H":{"ha":610,"x_min":61,"x_max":590,"o":"m 435 832 q 387 826 413 829 q 334 820 361 822 q 281 817 307 818 q 229 821 254 817 q 231 876 232 846 q 228 938 231 907 q 225 960 226 950 q 226 989 224 969 q 224 1038 231 1018 q 213 1076 218 1058 q 211 1112 208 1093 q 236 1158 214 1131 q 255 1177 247 1172 q 265 1197 263 1182 q 240 1205 249 1206 q 222 1201 231 1204 q 203 1197 214 1199 q 172 1201 193 1196 q 119 1205 147 1208 q 63 1203 92 1201 q 62 1181 63 1189 q 63 1169 61 1174 q 68 1160 64 1164 q 83 1153 72 1157 q 113 1141 103 1146 q 126 1125 122 1136 q 131 1092 131 1114 q 131 1028 131 1069 q 131 887 131 953 q 138 750 132 821 q 133 690 140 718 q 125 629 126 661 q 127 564 125 606 q 131 480 129 522 q 135 401 133 438 q 135 350 136 364 q 123 321 132 331 q 103 303 114 311 q 83 288 92 296 q 74 267 74 281 q 91 264 83 261 q 106 272 99 267 q 125 283 114 278 q 156 286 136 288 q 179 282 174 285 q 203 276 185 279 q 229 270 219 275 q 245 263 239 265 q 258 265 251 261 q 275 282 264 268 q 251 321 271 299 q 218 354 232 343 q 220 423 218 381 q 225 510 222 465 q 229 594 228 556 q 228 650 231 632 q 224 663 226 660 q 222 667 222 665 q 220 672 221 668 q 219 689 219 676 q 222 714 221 700 q 224 743 224 728 q 226 744 225 743 q 228 744 226 746 l 265 758 q 311 767 292 764 q 349 771 331 769 q 388 773 368 772 q 436 774 408 774 q 435 693 436 733 q 436 619 435 653 q 435 574 436 586 q 435 553 435 563 q 436 527 435 543 q 442 472 438 511 q 441 440 443 461 q 436 396 439 419 q 431 351 433 372 q 426 317 428 329 q 415 259 421 276 q 404 235 410 242 q 394 225 399 228 q 386 213 389 222 q 392 190 382 194 q 414 189 401 186 q 429 196 428 192 q 438 204 431 200 q 448 209 446 208 q 453 208 450 210 q 464 205 457 207 q 489 203 471 203 q 502 203 493 203 q 520 202 511 203 q 537 201 529 201 q 546 200 544 200 q 559 197 554 200 q 568 192 564 194 q 577 191 572 190 q 590 199 582 192 q 586 206 588 204 q 584 209 585 208 q 582 211 583 210 q 576 219 581 213 q 553 258 565 238 q 542 297 542 278 l 549 731 q 542 803 544 765 q 536 874 539 840 q 533 1019 528 946 q 540 1168 539 1093 q 545 1234 540 1215 q 556 1259 550 1253 q 568 1268 563 1265 q 576 1288 574 1271 q 555 1295 565 1296 q 533 1290 544 1294 q 508 1282 521 1286 q 483 1278 496 1278 q 460 1283 478 1279 q 435 1290 442 1288 q 411 1298 419 1294 q 385 1303 403 1301 q 392 1280 385 1290 q 410 1261 400 1269 q 428 1244 419 1253 q 440 1224 438 1235 q 441 1192 443 1213 q 440 1157 439 1172 q 444 1128 442 1140 q 447 1096 447 1117 q 442 1031 447 1064 q 438 971 436 999 q 438 901 438 936 q 435 832 439 867 "},"I":{"ha":300,"x_min":33,"x_max":289,"o":"m 33 1272 q 45 1258 35 1264 q 69 1246 56 1251 q 94 1235 82 1240 q 110 1226 106 1231 q 117 1192 115 1218 q 119 1135 119 1167 q 118 1076 119 1104 q 115 1033 117 1047 q 118 1001 115 1015 q 118 968 121 986 q 111 911 113 924 q 111 894 110 899 q 115 883 113 890 q 119 842 117 875 q 118 796 121 808 q 112 776 115 783 q 106 758 108 769 q 106 715 103 746 q 108 688 107 707 q 108 650 108 669 q 107 613 108 631 q 104 589 106 596 q 98 530 94 550 q 105 494 101 510 q 105 460 108 479 q 79 407 101 442 q 61 384 69 392 q 47 361 53 376 q 54 350 50 354 q 74 354 58 346 q 81 359 81 358 q 86 364 81 360 q 111 378 100 375 q 139 388 122 382 q 170 391 154 393 q 202 386 186 389 q 235 381 218 383 q 269 385 251 379 q 273 399 272 399 q 264 407 274 400 q 233 422 244 422 q 215 433 221 422 q 208 481 208 444 q 215 603 208 517 q 218 653 218 639 q 216 676 218 667 q 211 699 214 685 q 207 749 208 713 q 207 821 204 786 q 207 894 210 856 q 204 960 206 919 q 203 1043 203 1000 q 208 1124 204 1086 q 222 1183 211 1163 l 250 1235 q 272 1260 261 1253 q 289 1278 283 1267 q 238 1286 261 1290 q 175 1279 214 1282 q 142 1278 164 1278 q 98 1278 121 1278 q 56 1276 75 1278 q 33 1272 38 1275 "},"i":{"ha":358,"x_min":63,"x_max":311,"o":"m 63 1193 q 69 1174 63 1178 q 84 1169 75 1171 q 103 1165 93 1168 q 123 1145 114 1161 q 138 1095 132 1129 q 143 1001 143 1061 q 140 938 143 968 q 138 872 138 907 q 140 838 138 846 q 142 821 142 829 q 143 797 143 813 q 142 740 143 781 q 142 715 142 732 q 143 681 142 699 q 145 645 144 663 q 147 617 146 628 q 150 559 149 594 q 151 486 151 524 q 148 413 150 449 q 140 357 146 378 q 131 334 138 342 q 111 319 124 326 q 97 310 104 315 q 83 300 89 306 q 79 290 78 294 q 93 282 81 285 q 129 280 117 275 q 156 290 142 285 l 175 296 q 220 301 199 301 q 259 299 242 300 q 290 301 276 299 q 311 315 304 304 q 303 324 307 319 q 293 332 299 328 q 274 344 283 340 q 258 353 265 347 q 247 371 251 358 q 240 411 242 383 q 238 497 238 456 q 235 582 238 538 q 230 658 235 617 q 226 733 225 699 q 228 746 226 743 q 231 753 229 749 q 233 766 232 757 q 235 796 235 775 l 242 1032 q 247 1066 243 1046 q 257 1106 251 1086 q 269 1142 263 1125 q 285 1165 276 1158 q 297 1172 293 1172 q 301 1172 300 1172 q 303 1174 303 1172 q 307 1188 304 1176 q 300 1208 311 1203 q 272 1212 289 1213 q 239 1208 256 1211 q 215 1203 222 1204 q 180 1201 199 1200 q 141 1202 161 1201 q 101 1201 121 1203 q 63 1193 81 1200 "},"K":{"ha":551,"x_min":63,"x_max":550,"o":"m 351 1201 q 388 1172 361 1179 q 385 1142 385 1158 q 383 1117 386 1126 q 374 1094 381 1101 q 360 1074 367 1088 l 328 971 q 313 928 325 957 q 287 870 301 900 q 258 816 272 840 q 238 788 244 792 q 238 842 235 811 q 240 901 240 874 q 239 963 240 944 q 236 997 238 981 q 238 1038 235 1013 q 249 1124 240 1064 q 256 1155 251 1146 q 267 1168 260 1164 q 283 1174 274 1172 q 308 1186 293 1176 q 289 1205 303 1200 q 258 1209 275 1210 q 224 1205 242 1208 q 196 1201 207 1201 q 167 1199 188 1201 q 124 1195 146 1197 q 85 1190 103 1193 q 63 1186 67 1188 q 72 1172 65 1174 q 85 1169 78 1171 q 101 1160 93 1167 q 115 1133 108 1154 q 127 1070 122 1111 q 133 958 132 1029 q 136 924 133 939 q 139 890 139 910 q 136 858 139 871 q 136 821 133 844 q 142 753 142 782 q 138 679 142 724 l 119 243 q 107 221 115 228 q 90 209 99 214 q 73 199 81 204 q 63 181 65 193 q 86 179 71 176 q 119 188 101 182 q 152 197 136 193 q 179 201 168 201 q 188 200 185 201 q 192 199 190 199 l 203 194 q 247 183 231 183 q 289 190 264 182 q 272 215 282 207 q 249 235 263 222 q 227 256 233 247 q 219 275 221 264 q 218 302 217 286 q 219 344 219 318 l 228 676 q 235 693 232 692 q 244 701 239 694 q 248 696 247 697 q 249 694 249 694 q 251 691 250 693 q 257 683 253 689 q 263 673 261 676 q 271 660 264 669 q 288 638 281 644 q 299 623 294 631 q 310 602 304 615 q 326 561 317 589 q 341 501 338 531 q 344 444 344 471 q 344 394 344 417 q 347 358 343 372 q 356 328 351 343 q 364 297 361 313 q 368 263 367 283 q 372 228 369 243 q 351 217 361 225 q 335 203 342 210 q 318 185 326 194 q 338 179 331 179 q 350 181 344 179 q 361 184 356 182 q 375 185 367 186 q 403 182 389 183 q 439 181 417 181 q 470 177 451 179 q 500 178 489 175 q 512 183 511 181 q 521 188 513 185 q 533 192 529 193 q 546 197 536 190 q 540 210 544 207 q 526 218 536 214 q 497 233 515 222 q 453 268 479 243 q 454 313 453 300 q 456 337 456 326 q 453 363 456 347 q 443 414 450 378 q 435 451 438 440 q 432 467 433 463 q 430 473 431 472 q 426 478 429 474 q 417 494 424 482 q 401 532 411 506 q 389 568 392 557 q 384 588 386 579 q 376 610 382 597 q 354 650 371 622 l 332 692 q 330 695 331 693 q 328 699 329 697 q 326 701 328 699 l 293 761 q 307 785 303 779 q 315 796 311 792 q 322 808 318 800 q 335 835 325 815 q 358 871 344 856 q 382 906 371 886 l 424 983 q 459 1052 447 1025 q 479 1100 471 1079 q 496 1138 488 1121 q 521 1176 504 1156 q 541 1193 532 1188 q 549 1206 550 1199 q 533 1213 547 1211 q 498 1214 519 1214 q 452 1213 476 1214 q 406 1209 428 1211 q 368 1205 383 1207 q 351 1201 353 1203 "},"g":{"ha":576,"x_min":60,"x_max":567,"o":"m 468 175 q 464 190 458 181 q 475 224 469 200 q 491 324 488 279 q 495 411 494 369 q 497 493 496 453 q 507 581 499 533 q 516 624 511 603 q 535 663 521 644 q 557 685 547 678 q 560 713 567 693 q 534 709 550 715 q 499 694 518 703 q 463 675 481 685 q 432 661 444 665 q 406 654 422 658 q 370 645 389 650 q 333 635 351 640 q 303 625 315 631 q 293 622 293 621 q 289 613 293 622 q 302 600 294 601 q 320 598 310 599 q 344 594 331 597 q 375 574 358 590 q 386 565 382 567 q 397 556 390 563 q 395 522 393 535 q 400 497 397 508 q 403 473 403 486 q 396 438 403 460 q 390 376 386 408 q 397 313 393 344 q 400 249 401 281 q 382 188 399 217 l 356 158 q 353 156 353 158 q 350 153 353 156 q 306 130 325 129 q 274 147 288 131 q 250 190 260 164 q 234 245 240 217 q 225 297 228 274 q 222 332 222 321 q 217 355 222 340 q 206 386 213 369 q 196 419 200 403 q 194 449 192 436 l 199 564 q 197 592 200 579 q 192 622 193 606 q 193 692 189 657 q 192 757 197 728 q 191 810 189 775 q 198 885 193 846 q 208 959 203 924 q 217 1015 213 994 q 227 1058 218 1028 q 249 1118 236 1089 q 281 1167 263 1147 q 322 1175 300 1186 q 366 1130 357 1158 q 372 1070 375 1101 q 360 1010 368 1039 q 354 963 353 981 q 383 967 378 958 q 397 992 389 976 q 406 1004 403 1001 q 410 1009 408 1007 q 416 1017 413 1011 q 426 1040 419 1024 q 441 1074 435 1064 q 450 1093 447 1085 q 451 1113 453 1101 q 439 1149 449 1124 q 418 1194 429 1178 q 395 1220 407 1210 q 371 1236 383 1231 q 346 1250 358 1242 q 338 1256 339 1254 q 335 1259 336 1258 q 330 1260 333 1260 q 315 1260 326 1260 q 223 1238 263 1260 q 156 1176 183 1217 q 103 1093 118 1124 q 85 1040 89 1063 q 82 999 81 1018 q 78 953 83 981 q 66 885 72 921 q 65 813 60 849 q 68 742 69 778 q 65 669 67 706 q 62 596 63 632 q 67 525 61 560 q 74 451 72 485 q 76 386 75 418 q 83 321 78 354 q 101 249 88 288 q 113 214 108 229 q 123 184 117 199 q 141 155 129 169 q 174 124 153 140 q 205 99 192 108 q 233 85 218 89 q 266 81 247 81 q 313 86 285 82 q 338 90 331 89 q 349 92 344 90 q 357 96 353 93 q 374 107 361 99 q 399 123 389 118 q 421 139 408 128 q 436 153 432 147 q 444 164 440 160 q 451 171 447 168 q 468 175 456 174 "},"k":{"ha":597,"x_min":60,"x_max":669,"o":"m 344 1257 q 364 1249 358 1250 q 381 1240 369 1247 q 369 1205 378 1224 q 348 1166 360 1186 q 322 1124 336 1146 q 299 1079 308 1101 q 284 1054 290 1063 q 272 1040 278 1046 q 262 1026 267 1033 q 253 1006 257 1019 q 251 997 251 999 q 251 993 251 994 q 250 990 251 992 q 246 982 249 988 q 239 974 243 978 q 232 965 235 971 q 220 944 225 956 q 208 924 215 933 q 203 995 203 967 q 205 1044 203 1024 q 209 1080 207 1064 q 211 1115 211 1096 q 209 1149 211 1131 q 208 1183 207 1167 q 215 1213 210 1199 q 233 1233 221 1226 q 249 1239 243 1239 q 258 1240 256 1239 q 263 1243 261 1240 q 265 1256 264 1246 q 244 1261 256 1263 q 219 1260 232 1260 q 152 1260 183 1257 q 89 1265 121 1263 q 76 1265 82 1267 q 63 1256 60 1263 q 74 1243 65 1250 q 95 1228 83 1236 q 110 1215 107 1221 l 106 836 q 106 779 108 803 q 102 729 104 756 q 101 669 100 703 q 110 581 101 635 q 121 485 118 525 q 118 394 124 446 q 117 361 115 376 q 119 333 119 346 q 113 311 119 321 q 98 292 106 301 q 83 272 90 282 q 76 249 76 263 q 124 252 101 244 q 178 260 146 260 q 207 256 194 260 q 229 251 219 253 q 247 250 239 249 q 265 263 256 251 q 279 248 276 247 q 297 256 282 249 q 294 269 296 265 q 279 285 293 272 q 257 302 268 296 q 237 317 246 308 q 223 337 228 325 q 219 369 218 349 q 218 423 221 381 q 212 519 215 465 q 206 624 208 572 q 206 707 203 676 q 212 738 207 718 q 224 781 217 758 q 239 822 231 803 q 256 847 247 840 q 267 813 263 824 q 283 781 272 801 q 292 741 293 758 q 300 704 290 724 l 413 432 q 426 404 417 422 q 444 366 435 386 q 460 326 453 346 q 469 297 468 307 q 448 290 467 296 q 414 278 429 285 q 397 264 399 271 q 429 253 396 257 q 451 251 440 251 q 472 250 461 251 l 575 224 q 607 208 593 217 q 631 196 621 200 q 651 194 642 192 q 669 211 660 196 q 662 219 665 217 q 656 224 658 222 q 650 227 653 225 q 643 235 647 229 l 588 308 q 556 349 568 332 q 538 380 544 367 q 528 403 532 393 q 518 419 524 413 q 497 451 501 443 q 490 466 492 460 q 486 485 489 472 q 471 532 483 499 q 453 567 464 551 q 433 600 442 582 l 397 692 q 394 702 394 700 q 390 713 393 704 q 385 733 388 724 q 378 757 382 743 l 325 910 q 309 947 318 931 q 308 985 300 963 l 461 1242 l 497 1268 q 518 1276 511 1276 q 536 1288 525 1276 q 519 1298 526 1297 q 489 1297 511 1299 l 375 1288 q 359 1284 364 1286 q 352 1279 354 1282 q 349 1271 350 1276 q 344 1257 347 1265 "},"J":{"ha":506,"x_min":61,"x_max":474,"o":"m 61 1267 q 72 1237 63 1247 q 94 1219 81 1226 l 125 1207 q 139 1205 135 1204 q 145 1207 143 1206 q 149 1210 147 1208 q 158 1215 151 1213 q 190 1220 171 1221 q 232 1217 210 1219 q 276 1214 254 1215 q 313 1215 297 1213 q 311 1136 314 1175 q 311 1051 308 1097 q 310 969 315 1007 q 308 889 306 932 q 310 869 308 876 q 315 855 313 861 q 318 840 317 849 q 319 817 319 831 q 314 776 318 794 q 308 739 310 758 q 310 699 307 715 q 311 664 314 683 q 307 641 308 649 q 305 626 306 633 q 305 611 304 619 q 307 588 306 603 q 310 503 311 551 q 308 418 310 456 l 311 303 l 294 271 q 276 247 285 253 q 242 240 268 242 q 210 240 221 240 q 193 244 200 240 q 177 256 186 247 q 150 279 168 264 l 118 315 q 110 328 114 324 q 99 341 103 339 q 81 343 96 343 q 72 318 72 328 q 75 299 71 308 q 86 277 79 290 q 99 243 93 264 q 130 195 107 210 q 182 177 153 181 q 242 177 211 174 q 299 183 274 181 q 374 223 349 189 q 408 303 399 257 q 417 399 418 350 q 417 485 417 449 l 417 625 q 419 688 417 664 q 422 749 422 713 q 420 835 422 796 q 417 911 418 874 q 417 988 415 949 q 426 1072 418 1026 q 429 1122 431 1097 q 427 1169 428 1146 q 430 1217 426 1193 q 446 1264 433 1240 q 461 1288 453 1276 q 472 1306 469 1299 q 465 1315 474 1314 q 428 1308 456 1317 q 397 1304 411 1304 q 368 1300 382 1304 q 360 1298 363 1299 q 353 1295 357 1297 q 340 1291 349 1293 q 311 1286 331 1289 q 253 1281 289 1282 q 189 1276 218 1279 q 124 1273 161 1274 q 61 1267 86 1272 "},"j":{"ha":482,"x_min":-10,"x_max":490,"o":"m 11 335 q 0 331 0 332 q -10 325 0 331 q -4 293 -6 303 q -1 277 -3 283 q 6 265 1 271 q 19 246 10 260 q 29 228 28 233 q 43 214 31 224 q 120 185 74 190 q 211 188 167 181 q 291 210 256 194 q 338 246 326 226 q 348 267 343 256 q 356 286 353 278 l 386 374 q 397 440 397 400 q 397 521 396 481 q 400 579 399 557 q 402 622 401 601 q 403 665 403 642 q 403 728 403 689 l 401 822 q 402 924 397 875 q 411 1024 407 974 q 410 1072 413 1039 q 410 1139 408 1104 q 419 1204 411 1174 q 447 1247 426 1235 q 467 1253 456 1253 q 490 1260 478 1253 q 488 1272 489 1268 q 475 1288 486 1276 q 451 1299 463 1299 q 415 1299 440 1299 q 356 1302 386 1299 q 296 1308 325 1306 q 276 1308 290 1308 q 247 1303 261 1307 q 226 1292 233 1299 q 226 1272 218 1285 q 240 1263 232 1265 q 256 1256 247 1260 q 274 1244 265 1253 q 289 1219 282 1236 q 301 1173 296 1203 q 306 1110 306 1143 q 305 1048 307 1078 q 297 1000 303 1018 q 288 967 290 978 q 285 947 285 956 q 287 928 285 939 q 289 897 289 918 l 286 725 q 292 655 292 688 q 285 574 293 622 q 285 522 279 546 q 285 463 290 497 q 277 403 279 432 q 271 343 275 374 q 257 293 267 318 q 231 249 247 268 q 195 221 215 231 q 150 218 175 211 q 126 223 140 219 q 96 231 111 226 q 68 239 81 235 q 51 249 56 243 q 41 267 44 256 q 33 290 38 278 q 24 315 29 303 q 11 335 19 326 "},"L":{"ha":499,"x_min":42,"x_max":494,"o":"m 85 1307 q 85 1290 85 1294 q 89 1285 86 1286 q 97 1282 92 1283 q 110 1274 101 1281 q 131 1227 132 1256 q 132 1176 131 1199 q 136 1146 133 1158 q 140 1118 139 1133 l 133 871 q 134 795 133 839 q 135 706 135 751 q 134 617 135 661 q 129 542 133 574 q 120 421 122 479 q 122 299 118 363 q 110 293 114 296 q 99 288 107 290 q 84 284 86 282 q 68 278 82 286 q 51 261 60 272 q 42 241 43 250 q 53 228 42 232 q 94 233 64 225 q 141 246 126 242 q 170 251 156 250 q 206 252 185 253 q 272 250 228 251 q 307 253 292 250 q 334 259 322 256 q 357 265 346 263 q 379 263 368 267 q 389 258 388 260 q 393 254 390 256 q 403 253 396 253 q 428 254 410 253 l 468 253 l 472 253 l 475 253 q 476 254 476 253 q 481 256 479 254 q 491 300 488 275 q 494 349 494 325 q 494 368 494 354 q 492 398 493 382 q 491 426 492 414 q 489 443 490 439 q 472 444 478 444 q 463 437 467 443 q 456 419 460 431 q 447 389 453 407 q 436 360 443 374 q 415 332 429 347 q 366 340 388 332 q 325 344 344 349 q 285 337 307 342 q 233 335 264 332 q 232 363 232 350 q 231 392 232 376 q 226 418 229 408 q 219 440 222 428 q 214 509 214 461 q 215 609 214 557 q 217 709 215 661 q 217 778 218 757 q 213 813 214 806 q 211 825 211 821 q 213 839 211 829 q 219 882 215 849 q 225 943 222 913 q 231 1007 228 974 q 229 1060 231 1025 q 228 1131 228 1094 q 229 1201 228 1168 q 238 1249 231 1233 q 251 1266 242 1260 q 272 1278 261 1272 q 291 1290 282 1283 q 304 1308 300 1296 q 255 1317 283 1321 q 200 1310 226 1313 q 170 1310 186 1308 q 139 1313 154 1311 q 109 1313 124 1314 q 85 1307 94 1313 "},"M":{"ha":742,"x_min":43,"x_max":725,"o":"m 383 939 q 369 956 376 944 q 353 982 361 968 q 339 1009 346 996 q 326 1031 332 1022 q 306 1054 313 1049 q 296 1065 300 1060 q 287 1083 292 1071 q 271 1125 282 1094 q 244 1172 264 1144 q 211 1217 224 1200 q 187 1244 197 1235 q 169 1258 176 1253 q 155 1267 161 1264 q 143 1278 149 1271 q 139 1282 139 1282 q 140 1281 139 1282 q 142 1279 142 1279 q 140 1283 143 1279 q 90 1294 113 1285 q 49 1304 68 1304 q 53 1283 47 1290 q 68 1269 60 1276 q 84 1251 76 1263 q 93 1218 92 1240 q 94 1165 96 1194 q 97 1082 93 1135 q 103 949 104 1018 q 104 814 103 879 q 101 682 104 743 q 90 550 97 621 q 89 481 88 518 q 88 415 90 444 q 78 383 86 397 q 63 359 71 369 q 49 341 56 349 q 44 326 43 333 q 50 324 51 324 q 57 322 49 324 q 64 321 64 321 q 71 322 64 321 q 99 329 88 324 q 126 339 111 335 q 162 343 140 343 q 217 336 183 343 q 244 324 235 332 q 269 326 254 317 q 270 344 279 336 q 246 368 261 353 q 215 410 231 383 q 194 485 199 438 l 194 707 q 201 758 200 746 q 199 772 201 769 q 194 779 197 775 q 190 808 192 783 q 185 857 189 842 q 178 888 181 872 q 177 929 176 903 q 185 1013 178 956 q 183 1066 188 1039 q 186 1114 179 1093 q 202 1099 197 1107 q 217 1076 207 1092 l 243 1031 q 256 1010 253 1017 q 260 999 260 1003 q 262 992 261 994 q 265 986 263 990 q 272 978 269 979 q 278 976 275 978 q 285 967 281 974 q 297 944 290 961 l 368 775 q 370 770 368 775 q 375 762 372 765 q 383 760 378 758 q 397 774 389 761 q 424 841 419 807 q 433 893 428 875 q 442 915 438 904 q 451 936 447 925 l 511 1117 q 517 1053 514 1104 q 524 931 521 1001 q 529 778 526 860 q 534 622 532 697 q 538 485 536 546 q 543 399 540 425 q 542 326 547 351 q 528 285 538 300 q 508 263 519 271 q 488 244 497 256 q 503 226 497 229 q 531 231 510 222 q 572 244 558 242 q 596 244 586 246 q 616 240 606 243 q 647 238 626 238 q 673 235 668 238 q 679 229 678 232 q 686 224 681 226 q 713 222 692 221 q 714 231 714 226 q 717 242 714 236 l 725 260 q 672 306 689 289 q 648 342 654 324 q 640 382 642 360 q 635 443 639 404 q 633 463 633 456 q 634 474 633 469 q 635 485 635 479 q 636 503 636 492 q 635 535 636 511 q 633 586 633 560 q 631 635 632 613 q 631 665 631 658 q 634 715 633 689 q 628 763 635 740 l 601 1047 q 604 1076 601 1064 q 606 1108 607 1089 q 603 1138 606 1125 q 600 1171 600 1151 q 605 1239 600 1203 q 603 1300 610 1275 q 613 1310 610 1308 q 619 1312 617 1311 q 622 1316 621 1313 q 626 1332 624 1319 q 601 1337 608 1342 q 578 1324 593 1332 q 546 1299 554 1310 q 535 1276 538 1288 q 527 1253 532 1265 q 506 1225 522 1240 l 500 1219 q 453 1144 468 1185 q 429 1057 439 1103 q 422 1031 426 1047 q 410 996 417 1014 q 396 963 403 978 q 383 939 389 947 "},"N":{"ha":717,"x_min":61,"x_max":701,"o":"m 535 708 q 533 679 535 692 q 529 654 531 667 q 527 628 528 642 q 528 599 526 615 q 530 536 531 567 q 532 474 529 506 q 501 544 515 515 q 473 597 488 572 q 442 644 458 621 q 403 701 425 668 q 389 724 394 713 q 375 746 383 735 q 351 787 363 761 q 327 840 339 813 q 302 894 315 868 q 275 936 289 921 q 240 985 256 957 q 212 1041 225 1014 q 189 1090 199 1068 q 171 1124 179 1113 q 148 1139 161 1136 q 119 1147 135 1142 q 95 1158 100 1154 q 88 1163 90 1161 q 83 1167 86 1165 q 63 1169 79 1168 q 65 1143 61 1156 q 76 1117 69 1131 q 88 1090 82 1104 q 94 1060 93 1076 q 95 1041 96 1047 q 94 1029 94 1035 q 92 1017 93 1024 q 94 1001 92 1011 q 99 951 96 989 q 105 863 101 913 q 111 758 108 814 q 116 653 114 701 q 119 570 118 606 q 118 526 119 535 q 116 499 115 515 q 119 463 117 482 q 122 426 121 444 q 124 393 124 407 q 126 347 124 369 q 130 307 128 325 q 134 277 132 289 q 136 261 136 265 q 131 240 136 247 q 117 226 125 232 q 99 217 108 221 q 85 206 90 213 q 78 198 81 200 q 76 192 76 196 q 76 185 76 189 q 75 171 76 181 q 135 170 107 167 q 192 181 163 174 q 218 184 203 183 q 248 185 233 185 q 275 186 263 185 q 293 190 288 188 q 285 219 294 211 q 263 237 275 226 q 239 268 250 247 q 226 335 228 289 q 216 428 224 383 q 204 518 208 472 q 201 567 201 546 q 199 610 200 589 q 198 654 199 631 q 196 708 197 678 q 192 778 193 756 q 192 819 192 801 q 193 857 192 836 q 196 921 194 878 q 207 901 199 914 q 219 882 215 889 q 232 857 228 868 q 242 833 236 846 q 262 783 253 804 q 285 739 271 763 q 319 679 307 697 q 339 646 331 661 q 358 607 347 631 q 388 531 368 583 q 403 495 399 501 q 410 489 408 489 q 415 486 413 489 q 425 461 418 483 q 437 433 431 444 q 449 411 443 421 q 462 391 456 401 q 474 367 468 381 q 482 342 479 351 q 492 318 485 333 q 502 293 499 303 q 513 268 506 283 l 528 233 q 536 223 533 225 q 542 220 539 221 q 547 217 544 219 q 557 206 550 215 q 563 194 561 199 q 567 182 564 189 q 591 187 583 182 q 601 203 599 192 q 605 235 604 215 q 606 289 606 256 q 607 342 606 311 q 611 403 608 372 q 614 435 613 417 q 617 474 615 454 q 618 512 618 493 q 617 544 618 531 q 619 576 615 561 q 624 610 622 592 q 622 643 625 633 q 617 672 618 653 l 614 1054 q 617 1084 614 1061 q 625 1133 621 1107 q 634 1181 629 1160 q 643 1208 639 1203 q 660 1219 650 1218 q 678 1222 669 1221 q 692 1226 686 1222 q 701 1242 699 1229 q 669 1249 693 1247 q 615 1253 644 1251 q 557 1257 586 1254 q 510 1269 528 1260 q 467 1283 481 1285 q 454 1273 454 1282 q 464 1251 454 1264 q 489 1232 474 1239 q 510 1224 504 1225 q 522 1207 515 1222 q 533 1166 531 1189 q 535 1119 535 1143 q 536 1069 536 1094 q 539 1021 536 1043 q 545 937 544 976 q 544 860 546 897 q 540 786 543 824 q 535 708 538 749 "},"n":{"ha":633,"x_min":60,"x_max":590,"o":"m 108 279 q 138 275 121 271 q 174 286 154 279 q 213 297 193 293 q 250 292 233 301 q 254 287 253 290 q 259 281 256 283 q 269 280 263 279 q 289 288 276 281 l 292 308 q 292 318 293 315 q 286 322 290 321 q 276 326 282 324 q 263 336 271 329 q 227 379 236 361 q 218 410 218 397 q 222 429 218 422 q 226 439 226 436 l 208 574 q 200 669 204 618 q 194 765 196 721 q 199 808 194 789 q 203 858 204 826 q 197 908 200 886 q 194 956 193 931 q 220 920 207 942 q 242 881 233 899 l 263 840 q 272 817 269 828 q 282 792 274 807 q 304 753 293 772 q 325 710 315 733 q 333 689 331 699 q 342 665 336 679 q 351 640 347 654 q 360 615 354 626 q 371 597 364 606 q 383 578 378 589 l 422 492 q 435 456 429 472 q 451 422 440 439 l 465 406 q 472 382 471 394 q 481 358 474 369 q 491 349 488 350 q 497 349 494 349 q 503 345 500 349 q 511 326 506 342 q 524 301 519 307 q 551 300 529 296 q 560 351 564 325 q 557 408 556 376 q 553 638 560 517 q 547 874 547 758 q 545 905 547 889 q 544 936 543 921 q 549 965 546 954 q 551 999 551 976 q 551 1030 551 1014 q 547 1057 550 1046 q 542 1106 540 1088 q 565 1150 544 1124 q 581 1169 574 1161 q 590 1189 589 1178 q 557 1190 564 1190 q 547 1189 550 1189 q 535 1190 543 1189 q 499 1199 526 1192 l 406 1215 q 410 1199 407 1204 q 418 1188 414 1193 q 428 1176 422 1183 q 438 1153 433 1168 q 447 1116 443 1135 q 456 1074 451 1097 q 467 980 464 1017 q 472 917 471 943 q 471 871 472 890 q 467 831 469 851 q 464 785 465 811 q 463 718 463 758 q 463 674 463 699 q 465 624 464 649 q 469 576 467 599 q 474 542 471 554 q 456 566 458 554 q 446 597 454 578 q 438 614 442 607 q 432 625 435 621 q 419 656 422 646 q 413 674 417 665 q 403 699 410 683 q 378 747 396 714 q 369 768 368 763 q 372 781 369 774 q 369 782 368 783 q 368 781 371 781 l 361 781 l 358 781 q 353 795 356 790 q 344 808 350 800 l 283 933 q 263 974 272 953 q 246 1016 254 996 q 231 1051 238 1036 q 218 1069 224 1065 q 202 1087 207 1079 q 194 1103 197 1094 q 189 1122 192 1111 q 178 1149 186 1132 q 160 1177 167 1169 q 147 1188 154 1185 q 128 1195 139 1192 q 99 1210 117 1199 q 82 1217 88 1217 q 60 1215 76 1218 l 67 1194 q 67 1186 68 1188 q 67 1185 67 1185 q 68 1183 67 1185 q 75 1176 69 1182 q 79 1172 78 1172 q 81 1172 81 1172 q 83 1169 82 1172 q 89 1158 85 1167 q 96 1126 93 1149 q 99 1078 99 1103 q 99 1031 100 1053 q 97 1001 99 1010 q 95 959 94 983 q 98 908 96 935 q 102 856 100 882 q 106 811 104 831 q 104 778 106 794 q 104 744 103 761 q 110 715 107 729 q 115 686 113 701 q 115 653 117 669 q 117 621 114 638 q 125 563 119 589 q 129 501 131 538 q 131 440 128 465 q 136 381 133 414 q 132 350 136 367 q 123 319 128 333 q 113 293 118 304 q 108 279 108 282 "},"O":{"ha":531,"x_min":65,"x_max":469,"o":"m 211 1204 q 192 1199 197 1200 q 176 1192 188 1199 l 113 1115 q 91 1057 94 1085 q 85 1003 88 1029 q 83 984 85 996 q 81 965 81 972 q 74 884 78 928 q 71 794 71 840 q 72 751 71 767 q 71 711 74 735 q 65 644 65 669 q 69 597 65 619 q 78 548 72 575 q 92 474 85 521 q 97 447 94 458 q 99 418 100 436 q 106 378 99 413 q 128 304 114 344 q 159 227 142 264 q 197 181 176 190 q 213 176 211 174 q 229 175 215 179 q 243 167 229 175 q 277 155 257 160 q 322 154 297 150 q 367 182 346 158 l 386 208 q 391 226 389 215 q 396 246 393 238 q 424 311 408 279 q 450 379 440 343 q 461 451 457 404 q 467 549 465 497 q 469 647 469 600 q 465 721 468 694 l 435 967 q 426 1004 431 990 q 415 1040 421 1018 q 378 1134 401 1092 q 294 1199 354 1176 q 252 1209 272 1207 q 211 1204 232 1211 m 293 192 q 262 219 269 207 q 251 242 254 231 q 247 265 249 253 q 236 292 246 276 q 222 313 226 306 q 217 324 218 319 q 218 331 217 328 q 219 344 219 335 l 158 867 q 165 900 161 885 q 171 932 168 915 q 180 991 175 957 q 191 1059 185 1025 q 207 1123 197 1093 q 232 1168 217 1153 q 265 1147 253 1165 q 284 1104 276 1128 q 295 1058 292 1081 q 303 1026 299 1036 q 312 997 310 1007 q 314 981 314 988 q 315 972 314 975 q 318 963 315 968 q 335 930 331 943 q 339 903 339 917 q 339 873 339 889 q 346 831 339 857 q 353 802 349 819 q 363 767 358 785 q 370 731 368 749 q 369 703 372 714 q 365 694 367 694 q 363 691 364 694 q 361 678 361 688 q 364 642 361 668 l 358 444 q 350 373 354 411 q 339 304 346 335 l 293 192 "},"o":{"ha":526,"x_min":61,"x_max":474,"o":"m 296 1260 q 251 1253 265 1256 q 228 1245 238 1251 q 210 1227 219 1239 q 181 1193 201 1215 q 167 1177 172 1182 q 159 1168 163 1172 q 153 1156 156 1164 q 144 1135 150 1149 q 126 1106 138 1118 q 104 1078 115 1093 l 96 1065 q 80 1008 78 1038 q 82 939 82 979 q 81 913 82 922 q 79 894 81 903 q 76 877 78 886 q 72 856 74 868 q 63 766 64 797 q 65 716 61 735 q 72 684 68 697 q 78 649 76 671 q 84 565 79 621 q 99 450 89 510 q 125 340 108 390 q 167 271 142 289 q 173 267 169 268 q 179 264 176 267 q 221 242 194 253 q 264 229 247 231 q 276 231 264 229 q 302 235 288 232 q 331 243 317 239 q 350 251 344 247 l 389 285 q 420 336 414 304 q 442 417 426 368 q 450 449 446 429 q 458 491 454 469 q 465 533 463 513 q 468 565 468 553 q 471 599 468 581 q 472 631 474 618 q 469 699 469 675 q 468 747 469 724 q 464 798 467 769 q 453 879 461 826 q 448 921 449 901 q 449 960 447 940 q 442 1020 450 981 q 419 1103 433 1060 q 388 1183 406 1146 q 353 1235 371 1219 q 330 1256 338 1249 q 296 1260 322 1264 m 322 306 q 281 306 297 306 q 254 312 265 307 q 235 327 243 317 q 221 357 228 338 q 197 443 208 394 q 178 544 186 492 q 168 646 171 596 q 169 736 165 696 q 170 765 172 753 q 167 799 168 778 q 167 852 167 829 q 170 896 168 875 q 175 938 172 917 q 182 990 178 960 q 185 1016 183 1008 q 188 1027 186 1024 q 191 1035 189 1031 q 197 1050 193 1039 q 219 1130 215 1103 q 228 1168 224 1157 q 242 1180 232 1179 q 285 1182 253 1181 q 301 1162 292 1168 q 314 1144 310 1156 l 340 985 q 343 924 344 950 q 349 863 342 897 q 366 738 360 811 q 370 585 372 664 q 357 433 368 507 q 322 306 346 358 "},"Q":{"ha":646,"x_min":61,"x_max":615,"o":"m 400 244 q 422 195 411 226 q 435 140 432 164 q 451 83 440 100 q 503 78 461 67 q 511 138 506 106 q 511 194 517 171 q 504 217 508 203 q 494 246 500 231 q 484 274 489 261 q 475 293 479 286 q 556 396 529 340 q 592 526 583 451 q 603 608 597 579 q 613 663 610 638 q 613 720 615 689 q 601 807 611 751 q 590 880 594 847 q 571 946 586 913 q 494 1054 543 1007 q 388 1126 444 1101 q 355 1135 375 1132 q 313 1138 335 1138 q 272 1135 292 1138 q 242 1129 253 1133 q 219 1112 231 1124 q 196 1086 207 1100 q 174 1058 185 1072 q 157 1032 164 1043 q 117 958 131 990 q 95 896 103 926 q 83 831 88 865 q 74 753 79 797 q 67 713 71 726 q 63 688 64 700 q 63 661 61 676 q 68 617 64 646 q 78 550 72 588 q 92 475 83 513 q 115 401 101 438 q 151 338 129 365 q 171 319 157 331 q 201 296 185 308 q 233 274 218 283 q 257 263 249 264 q 274 258 267 260 q 290 254 282 257 q 333 240 319 242 q 353 239 346 238 q 369 243 361 240 q 400 244 378 246 m 369 326 q 329 325 343 325 q 306 328 315 325 q 288 338 296 331 q 267 360 281 346 q 245 382 251 374 q 235 399 239 390 q 230 418 232 407 q 224 451 228 429 q 214 485 219 471 q 204 512 208 499 q 197 540 200 525 q 193 578 193 556 q 185 649 193 606 q 176 725 178 693 q 178 763 175 740 q 185 810 181 786 q 194 857 189 835 q 207 893 200 879 q 217 918 214 908 q 226 942 221 928 q 236 968 233 958 q 243 985 239 978 q 255 1000 247 992 q 279 1024 263 1008 q 299 1038 289 1032 q 319 1050 310 1043 q 336 1042 331 1044 q 356 1032 342 1039 q 375 1016 368 1025 q 388 994 382 1007 q 402 966 394 982 q 425 929 410 950 q 465 848 453 892 q 485 751 476 804 q 497 663 494 693 q 494 608 499 632 q 481 558 490 585 q 460 478 472 531 q 451 430 453 453 q 443 381 450 407 l 431 400 q 413 446 418 421 q 403 494 407 471 q 397 534 400 517 q 386 558 394 551 q 352 559 365 576 q 333 509 339 542 q 330 440 328 476 q 342 383 332 403 q 347 372 346 372 q 351 371 349 372 q 356 361 353 369 q 369 326 360 353 "},"P":{"ha":539,"x_min":50,"x_max":528,"o":"m 50 1281 q 52 1269 51 1271 q 55 1266 53 1267 q 61 1263 57 1265 q 74 1253 65 1261 l 81 1244 q 83 1242 83 1244 q 97 1235 94 1235 q 107 1224 100 1235 q 113 1208 110 1218 q 117 1192 117 1197 q 118 1155 119 1176 q 119 1115 117 1133 q 124 1079 121 1097 q 128 1043 126 1061 q 128 963 129 1003 q 129 882 126 922 q 131 813 131 853 q 132 738 131 774 q 131 691 133 701 q 128 674 129 681 q 129 653 128 667 q 139 597 131 639 q 142 567 140 589 q 147 514 144 544 q 151 449 149 483 q 153 385 153 415 q 155 333 154 356 q 154 301 156 310 q 144 280 153 292 q 123 257 135 268 q 99 235 111 246 q 82 215 88 224 q 105 206 92 206 q 133 210 118 206 q 162 222 147 215 q 190 233 176 229 q 218 240 200 236 q 256 249 236 244 q 291 258 275 253 q 314 267 307 263 q 304 285 313 278 q 287 301 296 293 q 269 318 278 308 q 258 344 261 328 q 255 390 256 358 q 255 456 254 421 q 256 526 256 492 q 256 581 256 560 q 253 608 256 590 q 251 645 251 626 q 249 681 250 664 q 251 707 249 699 q 283 706 269 710 q 321 710 297 701 q 411 747 379 732 q 460 783 443 761 q 488 842 478 804 q 515 946 499 879 q 524 1050 528 994 q 501 1154 521 1106 q 446 1236 482 1203 q 356 1274 410 1269 q 278 1271 319 1276 q 196 1265 236 1265 q 159 1270 181 1265 q 117 1279 138 1275 q 77 1285 96 1283 q 50 1281 58 1286 m 260 1232 q 282 1238 265 1236 q 318 1236 299 1240 q 356 1220 338 1232 q 383 1183 374 1208 q 401 1113 394 1151 q 411 1040 407 1074 q 413 985 414 1017 q 409 922 413 954 q 399 860 406 890 q 382 808 392 831 q 377 799 379 801 q 373 794 375 796 q 368 791 371 793 q 361 783 365 789 q 352 772 354 776 q 342 761 350 768 q 328 755 338 758 q 307 749 318 751 q 285 744 296 746 q 269 743 275 743 q 252 749 254 746 q 243 764 250 751 q 233 794 235 781 q 232 821 231 807 q 235 851 233 835 q 238 888 238 867 q 232 948 236 913 q 229 1007 228 983 l 229 1024 q 227 1029 228 1029 q 224 1035 226 1029 q 218 1047 218 1046 q 221 1068 218 1049 q 223 1088 222 1081 q 226 1106 224 1096 q 226 1158 231 1140 q 221 1185 222 1175 q 226 1205 219 1196 q 260 1232 233 1214 "},"p":{"ha":531,"x_min":69,"x_max":503,"o":"m 75 1228 q 78 1199 72 1204 q 100 1182 85 1194 q 116 1161 113 1171 q 122 1132 119 1151 q 123 1081 125 1108 q 118 1027 121 1054 q 114 976 115 1000 q 119 938 113 953 q 125 926 124 926 q 127 926 126 925 q 128 924 128 926 q 129 911 128 922 q 127 881 129 903 q 122 832 125 858 q 116 781 118 806 q 117 739 114 756 q 123 687 122 701 q 124 665 124 672 q 123 649 124 657 q 125 615 122 640 q 128 558 126 594 q 131 483 131 522 q 131 408 132 444 q 129 351 131 372 q 118 311 126 326 q 99 287 110 296 q 81 272 89 278 q 69 258 72 267 q 119 256 97 250 q 168 268 140 261 q 195 270 179 271 q 227 269 211 269 q 258 269 243 268 q 282 275 274 269 q 276 290 281 288 q 267 292 272 292 q 254 294 261 293 q 242 306 247 296 l 238 328 q 231 370 235 354 q 226 397 228 386 q 222 417 224 408 q 222 439 221 426 l 213 571 q 212 588 213 574 q 211 617 211 601 q 212 647 211 633 q 215 664 213 661 q 316 654 263 644 q 410 704 369 664 q 428 729 424 721 q 444 758 433 738 q 455 772 450 768 q 464 781 460 776 q 472 791 468 785 q 481 811 476 797 q 492 853 489 836 q 494 880 494 869 q 494 897 494 890 q 494 910 493 903 q 499 924 497 922 q 503 947 501 926 q 503 976 503 953 q 502 1025 503 999 q 499 1075 501 1051 q 493 1106 497 1099 q 481 1136 483 1128 q 477 1148 478 1144 q 476 1155 476 1151 q 471 1169 475 1158 q 438 1214 460 1199 q 388 1235 415 1229 q 332 1240 361 1242 q 278 1232 303 1238 q 243 1217 254 1225 q 218 1204 232 1210 q 182 1197 194 1194 q 158 1207 169 1200 q 128 1221 146 1214 q 75 1228 110 1228 m 253 1179 q 274 1182 260 1182 q 296 1181 288 1182 q 317 1177 311 1179 q 331 1168 322 1175 q 346 1157 342 1160 q 361 1150 356 1151 q 369 1147 367 1149 q 374 1142 372 1146 q 379 1129 376 1139 q 391 1092 386 1108 q 399 1058 396 1075 q 403 1024 401 1042 q 406 981 404 1006 q 406 938 407 956 q 401 903 404 919 q 391 872 397 888 q 378 833 385 856 q 369 797 371 811 q 356 767 368 782 q 328 744 344 754 q 292 727 311 735 q 256 717 274 719 q 226 717 238 714 q 214 722 217 719 q 211 728 211 724 q 213 742 211 733 q 214 768 214 751 q 213 809 213 792 q 213 844 213 826 q 208 884 211 864 q 207 924 206 904 q 212 962 210 946 q 213 1001 214 978 q 214 1036 213 1018 q 217 1072 215 1054 q 222 1103 219 1089 q 225 1126 225 1118 q 229 1156 225 1147 q 238 1169 233 1165 q 245 1172 242 1172 q 250 1176 249 1172 q 251 1179 250 1179 l 253 1179 "},"q":{"ha":622,"x_min":61,"x_max":654,"o":"m 253 333 q 212 306 228 318 q 185 284 196 294 q 166 265 174 274 q 149 250 158 257 q 140 245 142 244 q 131 239 138 246 l 144 222 q 166 208 160 208 q 186 201 172 208 q 197 195 197 196 q 207 188 196 194 l 244 203 q 244 213 246 210 q 249 228 242 215 q 259 243 250 232 q 278 266 268 254 q 299 287 289 278 q 313 297 308 296 q 337 294 318 299 q 376 281 356 289 q 417 266 397 274 q 443 256 436 258 q 474 246 456 251 q 513 237 493 240 q 551 235 532 233 q 583 246 571 236 q 617 281 599 257 q 643 321 635 304 q 645 356 654 346 q 596 342 636 365 q 556 325 575 328 q 517 325 536 322 q 481 333 499 328 q 447 343 464 339 l 418 357 q 433 374 425 367 q 449 390 440 381 q 465 416 457 400 q 482 461 474 432 q 499 528 490 490 q 513 604 507 565 q 521 680 519 643 q 518 744 522 717 q 515 774 517 754 q 513 815 514 793 q 513 859 513 838 q 513 896 513 881 q 508 996 513 938 q 492 1112 504 1054 q 457 1217 479 1169 q 397 1283 435 1264 q 353 1297 381 1292 q 294 1303 325 1303 q 233 1297 263 1303 q 185 1276 204 1290 q 163 1254 174 1267 q 146 1232 153 1242 q 118 1170 129 1204 q 96 1111 107 1136 q 86 1076 89 1093 q 82 1042 83 1060 q 80 1005 81 1024 q 76 964 79 986 q 68 901 72 926 q 63 853 64 876 q 63 804 61 831 q 74 736 65 778 q 78 705 76 725 q 79 668 79 685 q 81 647 79 654 q 83 632 82 639 q 86 617 85 625 q 88 596 88 610 q 90 540 88 557 q 95 514 92 524 q 104 493 99 504 q 118 456 110 482 q 138 404 128 422 q 161 376 147 386 q 197 357 175 365 q 253 333 218 349 m 301 1228 q 310 1235 304 1233 q 325 1232 315 1236 q 350 1215 335 1228 q 386 1156 371 1199 q 411 1061 401 1113 q 426 961 421 1010 q 431 886 431 913 q 433 855 429 869 q 435 825 436 840 q 431 798 433 810 q 426 771 428 786 q 426 739 425 751 q 428 710 428 726 q 426 661 428 697 q 420 585 424 625 q 411 512 417 546 q 400 467 406 478 q 392 458 394 458 q 381 449 390 457 q 367 433 372 440 q 356 422 361 426 q 341 416 350 418 q 315 414 332 414 q 263 431 282 415 q 233 472 243 447 q 218 527 222 497 q 213 586 214 557 q 207 620 210 613 q 203 634 204 628 q 202 654 201 640 q 207 710 203 668 q 210 773 211 743 q 206 832 208 803 q 202 890 204 861 q 204 947 200 918 q 206 992 207 972 q 204 1033 204 1013 q 207 1074 204 1053 q 222 1124 210 1096 l 264 1197 q 277 1217 272 1211 q 285 1225 282 1224 q 292 1226 289 1226 q 301 1228 296 1225 "},"R":{"ha":693,"x_min":65,"x_max":715,"o":"m 72 319 q 92 314 79 314 q 122 317 106 314 q 152 323 138 319 q 176 328 167 326 q 203 328 197 331 q 217 324 210 326 q 238 323 224 322 q 285 333 251 324 q 278 345 281 342 q 272 350 275 349 q 264 355 268 351 q 253 367 260 358 q 237 388 246 374 q 225 407 228 401 q 219 431 221 415 q 217 464 218 447 q 217 494 217 481 q 219 514 218 508 q 221 545 222 522 q 218 599 219 568 q 217 669 217 631 q 222 747 217 707 q 274 744 263 757 q 294 699 286 732 q 308 653 303 667 q 317 629 313 640 q 328 599 322 618 q 340 538 333 581 l 369 426 q 395 387 375 417 q 440 324 415 357 q 487 262 464 290 q 521 225 510 233 q 540 206 532 217 q 560 192 549 196 q 608 194 588 183 q 610 195 610 194 q 613 196 611 196 q 644 213 626 204 q 676 234 661 222 q 703 260 692 246 q 715 293 714 275 l 714 306 q 689 301 704 307 q 655 292 674 296 q 617 291 636 288 q 579 315 597 294 q 546 356 557 342 q 528 380 535 369 q 518 402 522 390 q 506 438 514 414 q 494 463 503 447 q 475 494 485 478 q 457 526 465 511 q 444 553 449 542 q 432 589 436 572 q 419 626 428 606 q 388 697 406 663 q 361 764 371 732 q 388 794 378 782 q 407 817 399 806 q 423 843 415 828 q 443 883 431 858 q 469 929 453 903 q 494 988 485 956 q 501 1059 504 1021 q 469 1142 499 1097 q 403 1221 432 1197 q 345 1250 375 1244 q 279 1251 315 1256 q 190 1246 243 1246 q 157 1248 171 1246 q 130 1253 143 1250 q 101 1259 117 1257 q 65 1261 86 1261 q 72 1235 65 1244 q 88 1217 79 1225 q 103 1199 96 1208 q 111 1174 111 1190 l 124 790 q 122 724 124 754 q 119 663 121 693 q 119 602 118 633 q 125 535 121 571 q 128 499 126 526 q 128 440 129 471 q 123 383 126 410 q 113 350 119 357 q 101 343 110 347 q 88 338 92 339 q 76 333 79 333 q 72 333 72 333 q 72 331 71 333 q 72 319 72 328 m 226 779 q 224 783 224 783 q 221 790 224 783 q 217 828 218 799 q 215 890 215 857 q 215 952 214 924 q 215 988 215 981 q 215 1047 217 1021 q 211 1095 213 1072 q 211 1140 210 1118 q 221 1183 213 1161 q 269 1185 249 1185 q 305 1183 289 1186 q 334 1170 321 1179 q 361 1143 347 1161 q 375 1110 371 1129 q 380 1071 379 1092 q 379 1028 381 1050 q 376 988 378 1006 q 370 945 375 958 q 360 910 365 932 q 351 876 356 894 q 336 846 346 857 q 319 831 331 839 q 293 814 307 822 q 265 798 279 806 q 240 786 250 790 q 236 783 236 783 q 236 783 236 783 q 235 783 236 783 q 226 779 233 782 "},"S":{"ha":461,"x_min":54,"x_max":418,"o":"m 218 240 q 206 260 214 253 q 190 275 199 267 q 174 298 182 283 q 158 340 165 313 q 151 371 156 353 q 142 408 146 389 q 139 445 139 426 q 144 476 139 464 q 119 472 129 478 q 103 454 110 465 q 90 431 97 447 q 79 406 82 415 q 72 351 69 381 q 89 303 74 322 q 115 265 103 285 q 164 232 128 246 q 254 217 214 213 q 338 246 294 222 q 373 277 361 260 q 396 319 385 294 q 406 345 401 333 q 414 374 411 357 q 409 435 418 404 q 393 499 400 465 q 379 559 385 538 q 370 592 374 581 q 364 608 367 604 q 358 617 361 613 q 349 628 354 621 q 336 654 343 636 l 283 738 q 247 783 263 761 q 219 826 232 804 q 193 874 206 849 q 168 928 181 899 q 158 958 164 939 q 147 997 151 976 q 140 1036 142 1017 q 140 1068 138 1056 q 144 1081 142 1072 q 149 1099 146 1090 q 153 1117 151 1108 q 157 1126 156 1125 q 178 1141 161 1133 q 206 1146 194 1149 q 241 1115 221 1140 q 269 1063 261 1089 q 275 1031 272 1049 q 282 1003 278 1013 q 287 994 286 996 q 289 993 288 993 q 292 992 290 993 q 299 983 294 990 q 303 974 303 976 q 303 971 303 972 q 304 968 303 969 q 313 961 306 967 q 337 992 331 967 q 344 1048 343 1017 q 344 1108 346 1079 q 342 1151 342 1138 q 260 1169 303 1167 q 174 1165 218 1172 q 149 1160 157 1163 q 136 1153 140 1157 q 129 1142 132 1149 q 118 1124 126 1135 q 91 1087 106 1104 q 67 1046 76 1069 q 56 987 57 1022 q 67 896 54 951 q 76 857 71 875 q 92 824 81 839 q 105 802 101 808 q 110 790 108 796 q 115 778 113 785 q 129 757 118 772 q 149 727 140 742 q 168 697 158 713 q 189 669 179 682 q 210 640 199 657 q 235 603 225 615 q 252 583 244 592 q 266 560 260 574 q 281 515 272 546 q 295 468 286 494 q 310 413 304 442 q 315 358 315 385 q 304 310 315 331 q 299 299 300 303 q 297 291 297 294 q 294 283 296 288 q 292 271 293 279 q 285 251 288 253 q 267 244 283 250 q 244 240 256 242 q 218 240 232 238 "},"T":{"ha":608,"x_min":-11,"x_max":614,"o":"m -4 1251 q -8 1235 -7 1240 q -10 1226 -10 1231 q -10 1216 -11 1222 q -7 1196 -10 1210 q -3 1167 -4 1181 q 1 1138 -1 1153 q 5 1109 4 1122 q 13 1081 6 1096 q 42 1058 19 1058 q 57 1065 54 1058 q 60 1085 60 1071 q 65 1119 61 1099 q 81 1168 68 1139 q 108 1175 82 1172 q 167 1180 135 1178 q 226 1183 199 1182 q 257 1185 253 1185 l 274 808 q 270 725 271 776 q 270 619 269 674 q 272 515 271 564 q 275 436 272 465 q 275 374 278 399 q 265 333 272 350 q 244 302 257 317 q 217 268 232 288 q 203 252 206 256 q 218 244 201 249 q 240 247 225 243 q 273 255 254 250 q 314 264 292 260 q 361 268 336 268 q 382 265 369 268 q 408 258 394 263 q 433 250 421 254 q 454 243 446 246 q 476 235 464 239 q 507 239 489 232 q 490 275 506 257 q 464 304 475 293 q 421 337 435 329 q 401 351 407 344 q 395 372 396 357 q 392 425 394 386 q 384 493 389 460 q 382 556 379 526 q 384 589 383 569 q 385 629 385 608 q 383 670 385 650 q 381 704 382 690 l 376 779 q 378 797 376 792 q 382 814 381 803 q 378 876 385 842 q 371 942 372 910 q 369 999 369 967 q 367 1067 369 1031 q 368 1131 364 1099 q 371 1192 372 1164 l 522 1185 q 539 1147 531 1174 q 550 1103 547 1119 q 552 1082 551 1088 q 553 1075 553 1076 q 556 1073 554 1074 q 561 1064 557 1072 q 565 1056 564 1057 q 567 1056 567 1056 q 567 1054 567 1056 q 567 1044 567 1053 q 567 1032 568 1033 q 569 1021 567 1031 q 584 1022 574 1021 q 597 1047 594 1024 q 597 1072 599 1060 q 597 1101 594 1085 q 610 1202 607 1169 q 610 1247 614 1235 q 592 1256 606 1258 q 558 1253 579 1254 q 499 1251 531 1250 q 436 1250 467 1253 q 367 1249 394 1247 q 316 1251 339 1250 q 269 1253 293 1253 q 215 1250 246 1254 q 181 1249 194 1247 q 152 1251 168 1250 q 111 1251 136 1253 q 43 1244 86 1250 q 23 1244 29 1243 q 14 1246 17 1244 q 8 1249 11 1247 q -4 1251 4 1250 "},"U":{"ha":735,"x_min":36,"x_max":707,"o":"m 454 1185 q 485 1172 471 1172 q 510 1158 500 1171 q 524 1110 519 1146 q 524 992 528 1075 q 526 944 522 964 q 533 899 529 924 q 536 840 536 875 q 528 749 536 804 q 521 653 521 708 q 519 544 521 597 q 511 449 518 492 q 483 389 504 406 q 456 371 471 379 q 424 358 440 363 q 390 356 407 354 q 357 367 374 357 l 340 376 q 324 387 329 383 q 316 394 319 390 q 310 401 313 397 q 300 415 307 406 q 269 469 279 446 q 254 515 258 492 q 249 564 250 538 q 246 631 247 590 q 241 694 244 657 q 231 754 238 731 q 226 803 228 767 q 224 882 225 840 q 223 960 224 924 q 221 1006 222 996 q 220 1009 221 1008 q 221 1014 219 1010 q 224 1051 222 1033 q 242 1083 226 1069 q 263 1099 251 1092 q 274 1110 274 1108 q 276 1119 275 1113 q 231 1126 265 1125 q 156 1125 196 1128 q 81 1117 115 1122 q 36 1108 46 1113 q 44 1097 40 1100 q 54 1093 49 1094 q 65 1089 60 1092 q 79 1078 71 1086 q 112 1038 101 1053 q 125 1011 122 1024 q 127 983 128 999 q 126 942 126 968 q 131 864 128 900 q 133 786 135 828 l 153 496 q 201 385 167 429 q 297 318 235 340 q 360 299 326 307 q 427 289 393 290 q 494 294 461 288 q 558 319 528 300 q 600 367 586 336 q 619 435 614 397 q 622 517 624 474 q 617 603 621 560 q 611 685 614 646 q 611 753 608 724 q 616 790 614 772 q 618 824 618 808 q 615 894 615 854 q 614 972 615 935 q 613 1022 614 994 q 614 1076 611 1049 q 626 1126 617 1103 q 656 1164 635 1149 q 676 1175 668 1174 q 691 1178 685 1176 q 701 1182 697 1179 q 707 1196 704 1185 q 674 1201 697 1203 q 622 1197 651 1200 q 563 1192 593 1194 q 508 1193 532 1189 q 475 1198 492 1196 q 454 1185 458 1200 "},"V":{"ha":604,"x_min":-15,"x_max":626,"o":"m -15 1250 q 5 1238 -10 1242 q 36 1228 19 1233 q 68 1215 53 1224 q 90 1186 83 1206 q 99 1153 96 1172 q 106 1115 103 1135 q 111 1076 108 1096 q 117 1040 114 1057 q 135 973 124 999 q 160 913 146 947 q 177 842 172 878 q 193 769 182 806 l 226 632 q 240 558 233 596 q 257 486 247 521 q 265 453 261 471 q 274 421 269 436 q 281 383 279 401 q 288 346 283 365 q 296 313 292 332 q 304 273 300 293 q 313 235 308 253 q 322 204 318 217 q 352 215 349 206 q 361 246 356 224 q 391 348 372 293 q 419 447 410 403 q 426 492 422 461 q 435 556 431 522 q 443 618 439 589 q 450 660 447 647 q 463 718 456 682 q 477 792 469 754 q 492 866 485 831 q 506 925 499 901 q 514 968 510 940 q 522 1026 518 996 q 533 1085 526 1057 q 549 1132 539 1114 q 578 1181 568 1167 q 594 1201 588 1196 q 608 1210 601 1207 q 626 1224 614 1213 q 604 1237 617 1240 q 569 1231 592 1233 q 531 1227 549 1228 q 492 1224 514 1226 q 438 1218 458 1221 q 388 1204 417 1215 q 375 1199 379 1200 q 369 1197 371 1199 q 365 1194 367 1196 q 364 1185 364 1192 q 381 1177 372 1178 q 398 1176 389 1176 q 416 1174 407 1175 q 435 1167 425 1172 q 445 1094 446 1140 q 438 998 444 1049 q 424 899 432 947 q 414 821 417 851 q 408 765 410 782 q 405 734 407 747 q 399 705 403 721 q 385 653 394 689 q 372 610 378 629 q 363 574 367 592 q 356 535 358 556 q 351 489 353 515 q 340 511 347 493 q 327 551 333 529 q 315 594 321 572 q 306 628 310 615 l 236 924 q 226 960 232 947 q 215 994 221 972 l 181 1146 q 183 1202 172 1185 q 213 1227 193 1219 q 256 1239 232 1235 q 296 1256 279 1243 q 310 1275 315 1268 q 291 1284 306 1282 q 257 1285 276 1286 q 228 1285 238 1285 q 185 1279 199 1285 q 150 1271 172 1274 q 111 1267 135 1268 q 63 1265 88 1267 q 17 1260 39 1264 q -15 1250 -4 1257 "},"W":{"ha":872,"x_min":-4,"x_max":878,"o":"m 617 1250 q 628 1239 619 1243 q 647 1233 636 1235 q 667 1228 657 1231 q 686 1225 678 1226 q 695 1190 694 1203 q 694 1165 696 1176 q 688 1140 692 1153 q 683 1106 685 1126 q 678 1033 681 1068 q 667 965 675 999 q 654 928 661 942 q 643 885 647 914 l 607 614 q 610 603 608 604 q 613 600 613 601 q 614 594 614 599 q 611 576 614 590 q 607 555 610 567 q 600 536 604 543 l 599 538 l 597 538 l 596 540 q 576 576 583 557 q 561 615 569 596 q 517 685 543 651 q 469 761 492 719 q 452 801 456 786 q 457 843 449 815 l 492 944 q 495 956 494 951 q 499 968 496 961 q 505 992 501 981 q 511 1017 508 1003 q 534 1078 518 1044 q 572 1132 550 1113 q 585 1140 579 1138 q 594 1146 590 1143 q 599 1153 597 1149 q 600 1167 600 1157 q 554 1169 583 1174 q 497 1163 525 1164 q 472 1164 488 1163 q 440 1166 456 1165 q 410 1166 424 1167 q 390 1161 396 1165 q 391 1153 390 1157 q 396 1147 392 1150 q 410 1143 400 1144 q 439 1140 419 1142 q 440 1113 438 1124 q 445 1092 443 1103 q 446 1069 447 1082 q 435 1032 444 1056 q 414 969 421 1001 q 399 928 407 938 q 394 932 393 933 q 390 942 396 931 l 376 975 q 357 1017 368 992 q 343 1058 346 1042 q 375 1085 364 1079 q 392 1092 386 1092 q 401 1095 399 1093 q 408 1110 404 1097 q 375 1120 393 1121 q 338 1115 357 1119 q 301 1104 319 1110 q 264 1099 282 1099 q 232 1100 244 1099 q 208 1093 219 1101 q 219 1082 215 1082 q 238 1074 224 1082 q 264 1047 257 1063 q 278 1011 271 1032 q 287 990 283 994 q 297 972 290 986 q 310 933 306 953 q 322 894 315 914 q 338 856 329 872 q 356 818 347 839 q 354 790 360 807 q 340 753 349 774 q 322 711 332 733 q 306 668 311 689 q 283 594 294 631 q 253 524 272 558 q 251 521 253 524 l 247 514 q 215 672 228 590 q 186 829 201 753 q 183 866 183 844 q 181 907 182 888 q 174 942 179 919 q 165 991 169 965 q 162 1039 161 1017 q 171 1072 163 1061 l 178 1081 q 205 1099 192 1094 q 222 1122 218 1103 q 198 1126 214 1125 q 164 1126 182 1126 q 128 1126 146 1126 q 97 1125 110 1125 q 69 1131 81 1126 q 46 1140 57 1135 q 23 1148 35 1144 q -4 1150 11 1151 q 2 1129 -4 1135 q 14 1113 8 1124 q 16 1106 17 1107 q 15 1104 15 1104 q 15 1103 14 1104 q 24 1097 17 1103 q 37 1092 29 1093 q 51 1089 44 1090 q 53 1047 50 1068 q 60 1004 56 1025 q 68 963 64 983 q 72 924 72 943 q 71 891 72 908 q 74 858 69 874 l 79 847 q 80 844 79 844 q 83 836 81 843 l 160 426 q 172 376 164 403 q 181 340 176 363 q 192 296 186 318 q 207 255 199 274 q 228 229 215 236 q 246 238 242 232 q 257 256 250 243 q 259 259 258 257 q 261 263 260 261 q 262 265 261 264 q 263 267 263 265 l 283 333 q 292 363 289 350 q 301 394 296 376 q 317 437 307 414 q 332 483 326 460 l 349 547 q 352 557 350 554 q 356 562 354 560 q 358 567 357 564 q 363 576 360 569 q 382 638 375 604 q 410 696 389 672 q 417 676 411 689 q 431 647 424 663 q 444 616 438 631 q 456 593 451 601 q 493 519 472 554 q 529 443 514 483 l 606 290 q 635 291 628 288 q 645 305 643 294 q 649 335 647 315 q 658 388 650 356 q 667 423 664 407 q 672 454 669 439 q 676 485 674 469 q 682 521 678 501 l 719 665 q 721 685 721 681 q 724 701 721 689 l 740 836 q 740 845 740 840 q 742 856 740 850 q 743 865 743 864 q 743 866 743 867 q 744 865 743 865 q 746 871 744 865 q 753 916 753 894 q 760 960 754 938 q 770 992 764 978 q 779 1024 776 1007 q 785 1099 785 1060 q 792 1171 785 1138 q 807 1204 797 1193 q 829 1222 817 1215 q 854 1233 842 1228 q 878 1249 867 1238 q 860 1256 874 1254 q 827 1256 846 1257 q 788 1254 808 1256 q 750 1254 768 1253 q 719 1258 738 1256 q 681 1261 700 1260 q 645 1260 663 1263 q 617 1250 628 1258 "},"w":{"ha":1013,"x_min":14,"x_max":1021,"o":"m 725 1269 q 749 1252 736 1254 q 773 1248 763 1250 q 790 1238 783 1246 q 798 1201 797 1229 q 792 1119 799 1174 q 769 971 786 1064 l 763 907 q 758 895 763 904 q 750 872 754 886 q 742 842 746 858 q 736 807 738 825 q 736 795 735 796 q 736 788 738 794 l 706 640 q 704 617 703 628 q 706 598 706 607 q 706 579 707 589 q 697 557 704 569 q 688 576 690 568 q 681 594 685 585 q 673 615 676 607 q 664 635 669 624 q 654 660 660 644 q 644 695 649 676 q 633 733 639 714 q 622 769 628 753 q 604 824 608 807 q 599 853 600 842 q 598 876 599 865 q 589 913 597 888 q 581 936 585 926 q 575 956 578 946 q 569 976 572 965 q 565 1004 567 988 q 554 1052 563 1033 q 539 1096 546 1071 q 525 1145 531 1128 q 515 1174 519 1163 q 505 1196 510 1185 q 493 1226 500 1207 q 488 1245 489 1240 q 484 1251 486 1250 q 478 1252 482 1251 q 465 1258 475 1253 q 461 1248 463 1253 q 457 1240 460 1243 q 456 1239 457 1239 q 456 1238 456 1239 l 433 1188 q 421 1115 424 1147 q 410 1060 418 1083 q 397 1003 400 1031 q 390 940 394 975 q 374 858 385 904 q 338 749 364 813 q 326 703 329 728 q 319 653 322 678 q 313 608 317 629 q 303 572 310 586 q 285 632 294 596 q 267 708 275 668 q 253 786 258 747 q 246 854 247 825 q 238 915 244 876 q 224 997 231 954 q 214 1081 217 1039 q 218 1153 211 1124 q 242 1155 233 1154 q 263 1161 251 1156 q 224 1180 254 1181 q 139 1182 194 1179 q 79 1188 111 1185 q 22 1185 47 1192 l 14 1182 q 18 1172 17 1172 q 32 1164 19 1171 q 69 1148 47 1156 q 103 1121 92 1140 q 114 1093 110 1110 q 121 1058 118 1076 q 126 1022 124 1040 q 129 990 128 1004 l 175 732 q 196 600 188 665 q 218 468 204 535 q 228 410 221 451 q 242 326 235 369 q 257 248 250 283 q 268 207 264 213 q 287 208 281 207 q 296 213 293 208 q 302 228 299 218 q 314 256 306 239 q 316 261 317 263 q 318 267 315 260 l 351 372 q 361 424 358 394 q 367 479 364 454 l 408 688 q 417 740 413 711 q 426 794 421 768 l 475 999 q 488 954 479 992 q 508 869 497 917 q 529 775 518 822 q 550 701 540 728 q 569 656 560 678 q 585 607 578 635 l 611 508 q 624 465 619 479 q 631 438 628 450 q 639 412 633 426 q 656 368 644 397 q 667 329 663 350 q 677 288 672 308 q 688 251 682 268 q 701 224 693 233 q 716 225 714 225 q 718 226 718 225 q 719 229 718 228 q 731 235 721 231 q 738 235 740 239 q 747 239 736 232 q 745 278 743 250 q 752 337 747 306 q 763 399 757 368 q 772 447 769 429 q 800 642 788 540 q 828 839 813 743 q 836 883 832 864 q 844 922 840 903 q 853 961 849 940 q 863 1010 858 982 l 897 1138 q 905 1168 903 1154 q 912 1194 907 1182 q 928 1217 917 1207 q 963 1238 939 1228 q 988 1246 979 1244 q 1002 1249 997 1247 q 1011 1252 1007 1250 q 1021 1263 1015 1254 q 992 1271 1007 1271 q 961 1274 978 1271 q 917 1276 940 1276 q 870 1274 893 1275 q 826 1274 847 1274 q 789 1278 804 1274 q 775 1283 782 1281 q 757 1282 768 1285 l 725 1269 "},";":{"ha":390,"x_min":128,"x_max":274,"o":"m 210 447 q 225 439 219 443 q 240 432 231 435 q 253 448 249 443 q 261 457 258 453 q 265 469 264 461 q 269 494 267 476 q 273 538 272 518 q 269 581 274 557 q 261 621 265 603 q 249 652 257 639 q 224 672 240 665 q 181 676 208 678 q 166 675 167 675 q 157 664 165 675 q 132 616 136 639 q 135 560 128 593 q 147 528 139 538 q 164 515 154 518 q 183 510 174 511 q 200 506 192 510 q 211 493 208 501 q 214 476 214 485 q 212 458 214 467 q 210 447 210 450 m 192 1057 q 163 1046 172 1051 q 146 1024 153 1040 q 142 1012 144 1021 q 138 993 140 1003 q 133 974 135 983 q 132 960 132 964 q 135 945 132 957 q 139 931 138 933 q 151 914 143 922 q 171 899 160 906 q 194 889 182 892 q 218 889 207 886 q 235 904 226 890 q 251 934 244 918 q 263 965 258 950 q 265 986 267 981 q 256 1014 263 1000 q 241 1039 250 1028 q 219 1056 232 1050 q 192 1057 207 1061 "},"x":{"ha":697,"x_min":-19,"x_max":683,"o":"m 354 1314 q 371 1295 361 1301 q 390 1283 381 1289 q 406 1268 399 1276 q 413 1242 413 1260 q 401 1189 413 1215 q 381 1142 389 1163 q 360 1097 371 1118 q 340 1053 350 1076 q 321 1003 332 1029 q 304 953 310 976 l 290 969 q 271 1014 283 981 q 246 1086 258 1047 q 225 1160 233 1125 q 219 1210 217 1196 q 230 1227 222 1221 q 247 1239 238 1233 q 260 1246 256 1243 q 268 1251 265 1249 q 272 1256 271 1253 q 275 1267 274 1260 q 247 1273 264 1272 q 212 1272 231 1274 q 174 1269 193 1271 q 142 1267 156 1267 q 112 1269 129 1267 q 76 1276 94 1272 q 43 1281 58 1279 q 18 1278 28 1282 q 31 1258 22 1263 q 50 1248 39 1254 q 76 1227 61 1242 q 108 1176 90 1213 q 163 1042 136 1118 q 221 896 189 965 q 244 853 236 865 q 254 832 253 842 q 250 808 256 822 q 231 758 244 793 l 64 335 q 56 317 60 324 q 50 301 53 310 q 42 287 44 290 q 37 283 39 283 q 33 281 35 282 q 26 274 31 279 q 24 266 24 268 q 25 263 25 264 q 23 259 25 261 q 11 251 21 257 q -8 243 -3 243 q -19 231 -12 243 q 7 222 -6 219 q 35 230 19 225 q 72 238 50 235 q 124 233 93 242 q 161 226 142 228 q 196 217 181 224 q 228 206 217 208 q 245 203 239 204 q 256 202 251 203 q 267 196 260 201 q 269 204 269 203 q 275 210 269 206 q 246 246 251 236 q 240 259 240 256 q 238 265 240 263 q 219 278 236 267 q 197 315 196 293 q 207 363 197 336 q 216 395 213 379 q 226 431 219 411 q 243 489 238 467 q 253 530 249 511 q 265 569 258 549 q 286 625 271 590 q 301 654 292 636 q 308 683 311 672 q 327 639 314 675 q 355 560 340 603 q 382 481 369 518 q 399 435 394 444 q 417 368 410 400 q 433 300 424 336 q 442 266 440 275 q 425 242 443 257 q 413 233 415 235 q 400 226 410 231 q 389 222 393 222 q 383 219 385 221 q 378 215 381 218 q 374 204 376 211 q 397 203 386 203 q 419 201 408 204 q 428 198 425 200 q 433 194 431 196 q 440 190 435 192 q 456 190 444 189 q 476 194 468 192 q 503 193 483 196 l 626 176 q 661 176 646 176 q 683 200 676 176 l 644 235 q 631 238 633 240 q 625 237 629 236 q 610 247 621 238 q 568 285 599 256 q 553 300 557 296 q 548 309 550 304 q 544 324 546 314 q 532 357 542 333 q 515 396 524 378 q 500 433 507 414 q 482 482 488 463 q 472 518 476 501 q 463 551 468 535 q 446 592 457 568 l 381 743 q 367 773 372 763 q 363 792 363 783 q 366 810 363 800 q 376 836 369 819 l 382 856 q 386 867 385 867 q 390 874 388 867 q 396 887 394 881 q 398 901 397 893 q 402 919 399 908 q 414 949 406 931 q 419 956 418 956 q 425 968 419 957 q 440 1006 435 985 q 454 1049 444 1028 l 525 1194 q 553 1238 544 1226 q 567 1251 561 1249 q 582 1256 574 1254 q 608 1271 590 1257 l 643 1293 q 632 1306 638 1303 q 620 1310 626 1310 q 605 1308 614 1310 q 583 1308 596 1307 q 508 1310 546 1313 q 426 1307 471 1307 q 385 1313 404 1308 q 354 1314 367 1317 "},"Y":{"ha":606,"x_min":-56,"x_max":653,"o":"m 411 1239 q 407 1213 411 1228 q 398 1182 403 1197 q 387 1152 393 1167 q 376 1128 381 1138 q 367 1101 369 1113 q 360 1074 365 1089 q 347 1038 356 1061 q 328 988 339 1015 q 305 930 317 960 q 282 874 293 900 q 263 829 271 849 q 250 803 254 810 q 249 806 250 803 l 249 807 q 245 806 246 800 q 244 814 244 813 q 225 855 232 835 q 203 907 218 875 q 184 962 190 933 q 168 1022 178 990 l 149 1099 q 144 1144 140 1131 q 157 1165 149 1158 q 174 1175 165 1171 q 185 1192 183 1179 q 160 1199 175 1197 q 128 1199 144 1200 q 94 1195 111 1197 q 67 1192 78 1193 q 37 1192 56 1192 q -1 1194 18 1193 q -35 1194 -19 1194 q -56 1190 -50 1194 q -33 1176 -47 1182 q -6 1163 -19 1171 q 22 1140 8 1154 q 44 1101 36 1126 q 47 1090 47 1093 q 47 1085 47 1088 q 48 1080 47 1083 q 51 1067 49 1076 l 131 850 q 147 806 143 818 q 153 786 150 794 q 163 765 157 778 q 188 715 169 751 q 203 685 192 706 q 217 657 214 665 q 220 636 219 649 q 221 610 221 624 q 220 583 221 596 q 219 560 219 569 q 220 464 218 511 q 225 369 222 417 q 226 325 228 343 q 225 281 225 307 q 228 217 225 239 q 229 181 231 194 q 219 157 228 167 q 188 131 210 147 q 160 113 169 117 q 144 106 150 108 q 136 101 139 104 q 132 89 133 99 q 135 88 135 86 q 162 81 138 79 q 215 89 186 83 q 269 101 244 94 q 299 107 294 107 q 349 108 324 110 q 400 108 375 107 l 465 107 q 477 106 476 107 q 488 110 478 106 q 478 131 486 124 q 460 144 471 139 q 438 151 450 149 q 414 158 425 154 q 385 167 397 164 q 365 176 372 171 q 353 192 357 182 q 347 224 349 203 q 344 340 343 279 q 342 461 344 400 q 337 582 339 517 q 338 700 335 647 q 351 758 339 719 q 378 840 363 796 q 410 924 394 883 q 435 988 426 964 q 442 1010 439 1000 q 448 1028 444 1019 q 456 1046 451 1036 q 469 1071 461 1056 q 484 1095 479 1086 q 492 1113 489 1104 q 498 1131 494 1121 q 508 1157 501 1140 q 541 1211 521 1185 q 589 1253 561 1238 l 638 1282 q 648 1303 653 1293 q 632 1315 643 1313 q 620 1315 629 1315 q 601 1315 611 1315 q 581 1315 590 1315 q 567 1315 571 1315 q 445 1313 488 1318 q 386 1308 403 1308 q 359 1313 371 1310 q 331 1314 347 1317 q 342 1282 335 1289 q 360 1273 350 1275 q 383 1266 371 1271 q 411 1239 396 1261 "},"y":{"ha":650,"x_min":-96,"x_max":669,"o":"m 372 1381 l 360 1381 q 382 1365 368 1367 q 410 1360 396 1364 q 433 1343 424 1357 q 442 1290 443 1329 q 440 1258 442 1268 q 435 1244 438 1249 q 428 1238 432 1240 q 421 1226 425 1235 q 410 1192 414 1213 q 400 1158 407 1172 q 393 1147 394 1147 q 391 1146 392 1146 q 389 1144 390 1146 q 383 1133 388 1143 q 374 1106 381 1128 q 359 1056 368 1085 q 340 997 350 1028 q 319 940 329 965 l 304 910 q 272 951 286 928 q 246 994 257 974 q 228 1031 235 1015 q 218 1051 221 1047 q 203 1074 207 1067 q 199 1088 200 1082 q 194 1103 197 1094 q 181 1128 190 1111 q 166 1148 172 1140 q 155 1164 160 1156 q 147 1183 150 1172 q 142 1210 143 1193 q 174 1228 163 1224 q 190 1233 185 1232 q 197 1237 194 1235 q 201 1249 199 1239 l 169 1260 q 152 1265 158 1265 q 136 1263 146 1265 q 108 1258 126 1261 q 56 1256 90 1256 l -85 1251 l -89 1250 q -94 1247 -94 1247 q -96 1244 -93 1247 q -80 1227 -87 1232 q -62 1221 -72 1222 q -42 1220 -53 1219 q -15 1217 -31 1221 q 22 1186 10 1211 q 54 1131 35 1161 l 117 1033 q 154 966 138 999 q 194 900 171 933 q 238 838 217 869 q 279 772 260 807 l 301 718 q 303 694 303 711 q 302 659 303 678 q 300 622 301 640 q 299 594 299 604 q 299 510 297 565 q 304 399 301 456 q 308 297 307 343 q 307 239 310 251 l 282 158 q 278 147 279 151 q 276 140 278 143 q 270 135 274 138 q 258 129 267 133 q 237 121 246 124 q 217 114 228 118 l 276 93 q 315 94 292 90 q 354 100 339 97 q 395 103 375 104 q 435 103 415 103 q 472 106 454 103 q 507 118 490 108 q 500 135 504 131 q 488 143 496 139 q 469 156 481 147 q 440 185 457 164 q 428 198 432 194 q 424 205 425 201 q 422 215 422 208 q 419 236 422 221 q 411 326 413 279 q 411 421 410 372 q 409 516 413 474 q 404 607 406 558 q 401 735 401 686 q 403 818 401 785 q 412 875 406 851 q 427 926 418 899 q 450 992 436 954 q 482 1092 464 1031 l 543 1240 q 549 1260 547 1251 q 557 1278 551 1268 q 583 1315 567 1300 q 617 1340 600 1329 q 649 1358 635 1350 q 669 1375 664 1365 q 651 1390 664 1388 q 620 1390 639 1392 q 578 1383 601 1388 q 526 1379 554 1379 q 490 1383 513 1379 q 445 1390 468 1388 q 402 1392 422 1393 q 372 1381 382 1390 "},"X":{"ha":699,"x_min":14,"x_max":718,"o":"m 357 1314 q 374 1295 364 1301 q 392 1283 383 1289 q 408 1269 401 1278 q 417 1243 415 1261 q 407 1190 418 1217 q 389 1143 396 1164 q 369 1098 379 1119 q 351 1053 360 1076 q 331 1002 342 1029 q 317 953 321 975 l 303 969 q 282 1013 296 979 q 254 1084 268 1046 q 231 1157 240 1122 q 225 1206 222 1192 q 235 1224 228 1218 q 251 1236 242 1231 q 272 1248 267 1246 q 279 1265 278 1250 q 250 1271 267 1271 q 215 1269 233 1271 q 178 1264 197 1267 q 146 1261 160 1261 q 116 1264 133 1261 q 81 1269 99 1267 q 47 1272 63 1271 q 22 1268 32 1272 q 35 1249 26 1253 q 55 1240 43 1246 q 81 1219 67 1233 q 115 1171 96 1206 q 174 1037 146 1113 q 236 893 201 961 q 260 851 251 863 q 271 830 269 839 q 267 806 272 821 q 249 756 261 792 l 94 328 q 87 309 90 317 q 81 294 83 301 q 73 280 75 283 q 69 275 71 276 q 65 273 67 274 q 58 265 63 272 q 56 258 56 260 q 58 254 57 256 q 56 251 58 253 q 44 243 53 249 q 25 234 31 235 q 14 221 19 233 q 40 213 28 210 q 67 222 51 217 q 104 232 83 228 q 157 228 125 236 q 194 222 175 224 q 229 214 214 219 q 261 203 250 206 q 278 201 272 201 q 289 199 285 200 q 300 193 293 199 q 303 202 303 201 q 308 208 304 203 q 279 243 285 233 q 273 256 274 253 q 270 262 272 260 q 251 275 268 264 q 228 311 228 289 q 236 360 228 333 q 245 392 242 376 q 254 428 249 408 q 269 488 264 465 q 278 528 274 510 q 288 568 282 547 q 308 624 294 589 q 322 653 313 635 q 329 682 332 672 q 349 639 335 675 q 378 561 363 603 q 408 483 394 519 q 425 438 421 446 q 447 370 439 403 q 465 303 454 338 q 474 269 472 278 q 458 244 475 261 q 445 235 449 238 q 433 228 442 232 q 416 221 418 221 q 408 206 414 221 q 431 206 421 204 q 453 204 442 207 q 463 201 460 203 q 467 197 465 199 q 474 193 469 194 q 490 193 479 192 q 510 198 503 196 q 536 197 517 200 l 660 185 q 695 185 679 185 q 718 210 711 186 l 678 244 q 665 247 667 250 q 658 245 663 244 q 642 255 654 246 q 600 292 631 264 q 584 306 588 301 q 579 315 581 310 q 574 331 578 321 q 561 363 571 340 q 544 401 551 383 q 526 439 536 419 q 508 488 514 468 q 497 523 501 507 q 486 555 492 539 q 468 594 481 571 l 399 744 q 385 773 390 763 q 381 792 381 783 q 383 810 381 800 q 392 836 386 819 l 397 857 q 401 868 400 868 q 406 875 403 868 q 410 888 410 882 q 413 902 411 894 q 416 921 414 910 q 426 950 418 932 q 431 958 431 958 q 438 969 432 958 q 451 1009 446 988 q 464 1051 456 1031 l 532 1200 q 558 1243 550 1232 q 573 1257 567 1254 q 587 1262 579 1260 q 613 1279 594 1264 l 646 1301 q 634 1315 639 1311 q 623 1318 629 1318 q 608 1317 617 1318 q 586 1315 599 1315 q 511 1315 549 1318 q 429 1310 474 1311 q 388 1314 407 1310 q 357 1314 368 1318 "},"Z":{"ha":601,"x_min":61,"x_max":571,"o":"m 106 1032 q 122 1028 118 1029 q 128 1033 126 1026 q 131 1055 129 1039 q 142 1101 133 1071 q 151 1137 147 1124 q 167 1167 154 1150 l 174 1176 q 195 1192 181 1185 q 228 1203 210 1199 q 264 1210 246 1208 q 296 1207 282 1211 q 323 1203 311 1203 q 347 1206 335 1204 q 369 1208 358 1207 q 394 1206 381 1210 l 397 1204 q 392 1182 399 1203 q 376 1133 386 1161 q 356 1074 367 1104 q 336 1024 344 1043 l 269 842 q 268 839 269 842 l 132 406 q 122 361 128 381 q 110 324 117 342 q 95 287 103 306 q 78 244 88 268 q 76 241 76 242 q 74 240 75 240 q 74 238 74 240 q 74 229 74 236 q 74 216 74 219 q 74 213 74 213 q 74 213 74 213 q 76 211 75 214 q 108 199 85 201 q 160 199 132 197 q 215 206 188 201 q 260 215 243 211 q 306 226 285 221 q 347 234 326 231 q 389 240 367 238 q 439 243 411 242 q 470 249 461 246 q 500 251 479 251 q 551 253 538 251 q 568 260 565 254 q 567 277 571 265 q 565 310 564 289 q 567 345 568 331 q 567 378 565 360 q 567 399 567 386 q 565 426 568 413 q 555 453 563 439 q 531 478 547 467 l 521 457 q 479 384 506 413 q 421 331 453 356 q 381 308 397 314 q 349 301 365 301 q 316 300 333 300 q 272 294 299 300 q 244 290 257 292 q 214 294 231 289 q 222 314 215 296 q 237 353 229 332 q 251 394 244 375 q 258 415 258 413 q 260 430 261 428 q 263 446 258 432 q 267 463 267 461 q 269 463 268 465 q 271 461 269 461 q 276 474 272 461 q 281 488 281 482 q 281 501 281 493 q 288 522 282 508 q 307 561 293 536 l 382 781 q 385 797 383 790 q 390 808 386 803 q 397 820 393 814 q 406 839 400 826 q 424 889 419 868 q 435 928 428 910 q 441 944 438 936 q 447 958 444 951 l 488 1090 q 492 1120 493 1115 q 490 1128 490 1125 q 492 1142 489 1132 q 508 1189 496 1153 q 528 1236 517 1211 q 543 1282 539 1261 q 469 1294 522 1292 q 356 1294 417 1296 q 238 1290 294 1293 q 154 1286 182 1286 q 129 1287 140 1286 q 104 1288 118 1288 q 70 1285 79 1288 q 63 1277 61 1282 q 72 1265 64 1272 q 86 1249 79 1257 q 99 1208 99 1235 q 96 1151 99 1182 q 93 1089 93 1121 q 106 1032 93 1057 "},"#":{"ha":1094,"x_min":76,"x_max":1018,"o":"m 875 1278 q 869 1267 871 1271 q 861 1257 867 1264 l 843 1236 q 855 1228 854 1229 q 861 1217 856 1228 q 854 1207 857 1210 q 848 1200 851 1204 q 840 1187 844 1196 q 826 1161 835 1178 q 821 1147 824 1153 q 782 1060 797 1103 q 747 967 767 1018 l 551 958 l 650 1188 q 660 1213 660 1206 q 663 1224 661 1219 q 669 1234 664 1229 q 696 1253 675 1239 q 683 1271 693 1265 q 659 1278 672 1276 q 633 1278 646 1279 q 610 1276 619 1276 q 598 1278 603 1276 q 582 1282 593 1281 q 563 1225 571 1244 q 549 1191 556 1206 q 533 1161 542 1176 q 510 1115 524 1146 l 435 946 q 384 947 404 946 q 346 948 364 947 q 307 947 328 949 q 256 940 286 946 q 253 903 257 914 q 244 885 250 892 q 233 874 239 879 q 224 856 228 869 q 238 840 232 843 q 252 836 244 836 q 270 839 260 836 q 296 843 281 842 q 347 847 319 846 q 397 847 374 847 l 375 774 q 353 717 367 749 q 324 654 339 686 q 294 593 308 622 q 272 543 281 564 q 237 544 261 544 q 187 543 213 544 q 139 538 161 542 q 111 531 117 535 q 106 523 107 526 q 106 513 106 519 q 106 497 107 507 q 99 469 104 488 q 85 440 94 454 q 79 411 76 425 q 100 395 82 399 q 141 392 118 392 q 187 395 164 393 q 222 397 210 397 q 208 367 217 381 q 189 332 199 353 q 130 192 147 236 q 114 131 113 147 q 132 117 115 115 q 175 114 149 118 q 192 109 185 111 q 203 107 199 107 q 205 104 208 106 q 211 108 201 103 q 222 115 221 113 q 222 122 224 118 q 220 131 221 125 q 224 147 219 136 q 233 164 228 157 q 243 179 238 171 q 251 199 250 190 q 257 218 253 207 l 333 411 q 377 417 351 415 q 430 419 403 419 q 483 419 457 419 q 529 419 510 419 l 433 188 q 427 172 429 176 q 424 163 425 167 q 423 155 422 160 q 425 142 424 150 l 426 135 q 427 126 428 126 q 431 114 426 125 q 458 110 443 110 q 488 115 474 111 q 512 122 501 118 q 525 131 522 126 l 535 147 q 540 156 538 154 q 544 164 542 157 q 553 181 549 172 q 560 200 557 189 q 566 221 564 211 q 571 240 568 231 q 581 256 575 251 q 592 270 586 261 q 607 296 599 279 q 626 346 615 313 q 640 385 633 365 q 657 422 646 406 q 715 424 701 424 q 735 424 729 424 q 751 426 742 424 q 794 436 760 429 q 803 470 797 451 q 815 500 810 489 q 824 513 819 508 q 833 524 829 518 q 838 536 836 529 q 838 557 839 543 q 819 569 832 567 q 787 570 806 571 q 747 566 768 569 q 704 563 725 563 q 722 644 713 617 q 741 692 731 672 q 763 730 751 711 q 789 783 774 749 q 803 821 797 803 q 817 858 810 839 l 963 864 q 969 877 969 875 q 974 890 968 879 l 988 913 q 989 915 988 914 q 1008 955 1001 942 q 1014 974 1015 968 q 1003 983 1013 981 q 975 990 993 986 q 966 992 968 992 q 954 992 964 993 q 935 988 944 990 q 917 983 925 985 q 892 982 904 982 q 867 981 879 982 q 885 1028 872 1003 q 915 1082 899 1054 q 947 1141 931 1110 q 974 1206 963 1172 q 978 1227 978 1219 q 986 1246 979 1235 l 999 1258 l 1018 1269 q 995 1292 1011 1289 q 957 1289 979 1296 q 916 1281 938 1283 q 875 1278 894 1279 m 507 850 q 608 853 556 851 q 707 854 661 854 l 579 543 l 386 547 l 478 775 q 492 814 485 797 q 507 850 500 831 "},"":{"ha":704,"x_min":54,"x_max":665,"o":"m 54 1403 q 56 1393 54 1396 q 58 1390 57 1390 q 61 1391 60 1390 q 63 1390 63 1392 q 67 1385 67 1385 q 67 1385 68 1385 q 63 1383 65 1385 q 60 1371 61 1381 q 131 1337 107 1363 q 165 1275 154 1311 q 177 1197 175 1239 q 182 1114 179 1154 q 183 1022 185 1069 q 178 928 181 975 q 173 644 172 785 q 171 363 174 504 q 172 319 171 342 q 176 275 174 297 q 178 231 178 253 q 174 192 178 210 q 155 139 165 157 q 134 110 144 121 q 115 90 124 99 q 99 67 106 82 q 127 71 119 68 q 140 78 135 74 q 153 90 144 82 q 183 110 161 97 l 208 122 l 211 122 q 219 125 221 125 q 232 126 218 125 q 256 124 238 126 q 297 117 275 121 q 339 108 319 113 q 365 99 358 103 q 371 94 367 99 l 379 88 q 391 83 388 83 q 394 83 394 82 q 394 86 394 85 q 394 89 393 88 q 394 108 400 94 q 376 138 388 122 q 351 170 364 154 q 332 197 338 186 q 321 241 324 211 q 317 305 318 271 q 315 372 315 339 q 314 429 315 406 q 313 443 313 438 q 311 458 314 449 q 339 435 322 451 q 372 413 356 419 q 460 395 419 393 q 534 416 501 397 q 592 468 567 435 q 633 546 617 501 q 653 614 646 576 q 663 690 660 651 q 665 767 665 729 q 664 840 665 806 q 660 881 663 857 q 653 931 657 906 q 644 981 649 957 q 633 1021 639 1004 l 603 1097 q 587 1133 593 1119 q 563 1163 581 1147 q 447 1199 504 1210 q 342 1129 389 1188 q 320 1099 329 1114 q 299 1065 311 1083 l 299 1067 l 297 1106 q 298 1134 297 1122 q 301 1163 299 1146 q 306 1213 304 1183 q 313 1270 308 1242 q 323 1322 317 1299 q 340 1354 329 1344 l 347 1358 q 350 1361 347 1361 l 378 1379 q 399 1397 388 1385 q 414 1421 411 1408 q 394 1424 407 1424 q 365 1424 381 1425 q 334 1420 350 1422 q 307 1414 318 1418 q 303 1413 306 1413 l 196 1408 q 181 1408 186 1408 q 173 1406 176 1407 q 166 1404 169 1406 q 154 1403 163 1403 q 104 1402 131 1400 q 54 1403 78 1404 m 403 1101 q 433 1097 419 1106 q 456 1076 446 1089 q 475 1047 467 1063 q 489 1022 483 1032 q 502 976 496 1008 q 513 906 508 943 q 519 835 517 869 q 522 785 522 801 q 521 740 522 765 q 517 688 519 715 q 510 635 514 661 q 504 586 507 608 q 494 542 501 565 q 475 498 488 518 q 446 465 463 478 q 408 453 429 451 q 340 472 360 456 q 313 513 319 488 q 308 569 307 538 q 306 635 310 600 q 303 699 303 667 q 300 778 303 731 q 298 802 297 796 q 301 825 299 808 q 302 843 303 838 q 301 851 301 849 q 299 857 300 854 q 297 867 297 860 q 301 919 299 893 q 310 967 303 944 q 326 1010 318 994 q 347 1047 335 1026 q 369 1081 358 1065 q 403 1101 379 1096 "},"":{"ha":854,"x_min":72,"x_max":814,"o":"m 72 1425 q 99 1397 86 1403 q 126 1383 113 1390 q 153 1360 139 1376 q 183 1304 167 1344 q 195 1261 193 1281 q 198 1221 197 1242 q 199 1175 199 1200 q 204 1115 199 1150 q 210 1066 207 1094 q 215 1008 213 1038 q 219 952 217 979 q 221 904 221 925 q 223 799 221 850 q 219 693 225 749 l 221 558 q 219 544 221 551 q 216 526 217 536 q 216 503 215 517 q 222 469 217 490 q 223 467 222 468 q 224 463 224 467 q 222 453 222 454 q 222 454 222 453 q 222 456 222 456 q 217 449 221 457 q 215 445 217 447 q 214 442 214 443 l 213 351 q 210 326 213 332 q 208 300 207 319 q 210 275 210 283 q 210 260 210 267 q 210 243 210 253 q 213 214 210 233 q 212 191 214 200 q 207 172 210 182 q 203 150 204 163 q 206 119 201 138 q 203 93 208 100 q 190 79 199 86 q 169 63 178 68 q 153 55 161 58 q 138 48 146 51 q 117 36 129 44 q 151 26 133 21 q 176 36 168 32 q 179 39 176 36 q 233 60 201 51 q 300 71 265 68 q 370 72 335 74 q 435 60 406 69 q 460 54 453 54 q 471 56 468 54 q 473 62 474 58 q 472 67 472 65 q 463 79 468 78 q 442 88 457 81 q 394 125 417 100 q 367 178 371 150 q 367 203 365 193 q 369 225 368 214 q 368 266 372 242 q 367 318 364 290 q 367 372 368 344 q 363 466 363 413 q 363 576 363 519 q 362 687 363 632 q 357 786 361 742 q 354 835 356 801 q 351 910 353 868 q 348 1000 349 953 q 347 1089 347 1047 q 347 1162 346 1131 q 350 1206 347 1193 q 358 1250 354 1229 q 365 1296 363 1271 q 371 1316 368 1307 q 378 1335 374 1325 q 389 1351 379 1338 q 412 1381 399 1365 q 438 1409 425 1396 q 460 1422 451 1422 q 503 1409 488 1425 q 526 1376 518 1393 q 535 1302 539 1350 q 517 1201 531 1254 q 488 1098 504 1147 q 460 1019 471 1049 q 435 910 435 953 q 449 833 435 867 q 486 767 464 799 q 525 692 508 736 q 549 653 533 671 q 572 617 565 636 q 588 577 581 596 q 601 538 594 558 q 626 460 611 507 q 651 364 642 414 q 660 267 661 314 q 639 189 660 219 q 629 176 633 182 q 617 165 625 169 q 599 157 610 160 q 568 154 588 154 q 540 154 556 153 q 511 156 524 156 q 489 157 496 157 q 479 138 482 157 q 502 126 488 131 q 532 117 517 121 q 559 113 547 114 q 575 110 571 111 q 610 100 593 106 q 644 92 628 94 q 678 93 661 90 q 713 108 696 96 l 738 129 q 762 156 753 144 q 778 178 771 167 q 790 203 785 189 q 801 236 794 217 q 804 329 814 271 q 776 448 794 388 q 738 563 758 508 q 704 646 717 617 q 690 674 697 661 q 676 701 683 686 q 661 732 668 719 q 647 760 654 744 q 620 819 633 789 q 593 881 607 849 q 575 958 576 921 q 582 1031 574 996 q 606 1101 590 1067 q 638 1168 621 1135 q 653 1201 646 1185 q 667 1233 660 1217 q 679 1314 681 1272 q 661 1390 678 1356 q 613 1445 644 1424 q 535 1467 581 1467 q 494 1463 510 1467 q 460 1457 479 1460 q 440 1457 449 1456 q 419 1456 431 1458 q 400 1451 404 1454 q 382 1446 396 1449 l 231 1429 q 187 1420 206 1422 q 151 1419 168 1418 q 115 1422 133 1419 q 72 1425 97 1424 "},"%":{"ha":1104,"x_min":-61,"x_max":1093,"o":"m 693 1335 l 682 1336 q 697 1322 692 1326 q 710 1314 703 1317 q 731 1310 718 1311 q 772 1307 744 1308 q 784 1284 782 1294 q 783 1264 786 1274 q 773 1244 779 1254 q 760 1224 767 1235 l 640 1013 q 604 968 619 979 q 585 953 589 957 l 508 831 q 497 810 501 819 q 486 789 493 800 l 436 708 q 394 641 414 668 q 359 593 375 614 q 330 554 343 572 q 306 514 317 536 q 294 494 299 497 q 279 479 290 490 q 266 461 271 468 q 258 447 261 454 q 251 433 256 440 q 240 417 247 426 l 151 276 q 129 239 140 257 q 103 204 118 221 q 69 173 89 188 q 21 146 50 158 q 1 139 14 143 q -24 131 -11 135 q -48 120 -37 126 q -61 107 -58 114 q -42 97 -51 97 q -26 98 -33 96 q -11 102 -18 100 q 1 101 -4 104 q 8 95 8 97 q 6 93 7 93 q 11 95 6 93 q 36 101 17 97 q 80 100 56 104 q 130 92 104 96 q 183 85 156 88 q 235 90 210 83 q 270 98 256 96 q 294 101 285 100 q 310 101 304 101 q 322 104 317 101 q 314 122 321 117 q 298 131 307 128 q 278 136 289 133 q 257 146 267 139 q 256 180 257 160 q 258 213 256 200 q 260 217 261 219 q 264 222 260 215 l 376 403 q 386 422 383 415 q 391 433 389 428 q 397 444 393 438 q 411 464 401 451 q 417 475 415 471 q 425 488 419 479 q 451 519 433 499 q 481 563 468 540 l 835 1119 l 947 1268 q 962 1285 957 1279 q 974 1304 967 1292 q 983 1319 979 1314 q 989 1326 986 1324 q 997 1333 992 1329 q 1014 1343 1003 1336 q 1017 1346 1014 1343 q 1025 1351 1022 1349 q 1035 1358 1031 1356 q 1044 1363 1039 1360 q 1060 1369 1054 1367 q 1069 1374 1065 1372 q 1079 1376 1074 1375 q 1093 1379 1085 1376 q 1092 1387 1092 1383 q 1088 1394 1092 1390 q 1078 1399 1085 1397 q 1056 1400 1071 1400 q 1031 1401 1040 1401 q 1001 1399 1021 1401 q 935 1392 958 1394 q 892 1385 911 1389 q 849 1375 872 1381 q 786 1363 826 1369 q 775 1360 781 1361 q 763 1357 769 1360 q 740 1349 747 1350 q 727 1346 732 1347 q 715 1343 722 1344 q 693 1335 708 1342 m 810 694 q 799 691 801 692 q 797 690 797 690 q 797 688 797 689 q 793 686 797 688 l 708 626 q 689 592 696 607 q 677 561 682 576 q 669 529 672 546 q 658 492 665 513 q 642 418 647 457 q 640 342 636 379 q 657 273 643 306 q 699 219 671 240 q 735 190 722 201 q 763 173 749 179 q 801 163 778 167 q 868 158 824 160 q 902 165 892 157 q 926 179 913 172 q 944 190 939 189 q 953 192 950 192 q 958 199 956 193 q 968 226 960 206 q 974 238 972 238 q 979 247 975 239 l 983 253 l 986 256 q 1008 305 1003 285 q 1018 361 1013 325 q 1024 406 1021 381 q 1028 457 1028 431 q 1026 507 1029 483 q 1014 549 1022 531 q 1004 565 1011 557 q 993 581 997 572 q 980 605 981 599 q 977 616 979 611 q 968 629 975 621 q 936 660 961 638 q 929 668 931 665 q 924 675 925 674 q 923 677 924 676 q 921 678 922 678 q 913 682 919 679 q 892 686 908 683 q 859 691 876 689 q 827 694 842 693 q 810 694 813 694 m 283 1356 q 228 1335 254 1344 q 183 1303 203 1326 q 172 1285 179 1299 q 161 1267 164 1272 q 149 1226 153 1247 q 138 1182 144 1206 q 136 1063 121 1124 q 184 958 151 1003 q 261 892 217 913 q 347 894 306 872 q 358 901 356 899 q 363 903 361 903 q 367 904 364 904 q 378 904 369 904 q 397 909 389 904 q 411 924 404 914 q 426 949 418 933 q 447 985 435 964 q 480 1063 468 1018 q 491 1153 492 1107 q 476 1240 490 1199 q 432 1310 463 1282 q 421 1317 431 1311 q 400 1331 411 1324 q 379 1343 389 1338 q 367 1350 369 1349 q 324 1360 350 1357 q 283 1356 299 1363 m 840 646 q 871 592 858 631 q 890 503 883 553 q 894 402 896 454 q 884 308 893 350 q 858 242 875 267 q 815 226 840 218 q 781 263 792 233 q 767 327 771 292 q 764 397 763 363 q 767 451 765 432 q 768 497 767 468 q 776 556 769 526 q 797 612 782 586 q 840 646 813 638 m 306 1313 q 323 1297 315 1301 q 336 1282 331 1292 q 349 1225 346 1267 q 351 1136 351 1183 q 347 1048 350 1089 q 340 993 343 1007 q 333 972 338 985 q 323 947 329 958 q 308 930 317 936 q 290 928 300 924 q 278 947 279 932 q 275 975 278 963 q 271 1001 275 990 q 266 1041 267 1026 q 265 1067 265 1056 q 265 1092 265 1079 q 264 1124 265 1104 q 263 1167 263 1143 q 267 1216 264 1192 q 276 1263 269 1240 q 294 1300 283 1285 l 303 1310 q 304 1313 303 1311 l 306 1313 "},"$":{"ha":721,"x_min":99,"x_max":621,"o":"m 189 1508 l 189 1493 q 211 1476 196 1478 q 244 1469 226 1474 q 275 1459 267 1464 q 300 1442 283 1454 l 301 1351 q 199 1309 243 1347 q 131 1215 156 1271 q 103 1097 107 1160 q 119 979 99 1033 q 137 941 128 957 q 155 912 146 925 q 174 886 164 899 q 197 858 185 874 l 289 747 q 295 703 293 742 q 298 610 297 665 q 298 491 299 556 q 297 366 297 426 q 294 256 296 306 q 293 185 293 207 q 269 199 281 188 q 250 226 258 211 q 235 258 242 242 q 222 289 228 275 q 206 344 208 324 q 205 380 203 365 q 209 407 207 394 q 206 438 211 419 q 177 433 182 439 q 165 411 172 426 q 145 365 151 382 q 135 334 139 347 q 126 309 131 321 q 114 281 122 297 l 100 243 q 147 203 132 217 q 170 182 163 189 q 181 173 178 175 q 192 168 185 171 q 215 159 200 165 q 263 139 231 153 l 289 124 q 293 61 294 96 q 275 7 292 26 q 257 -8 268 -1 q 235 -22 246 -15 q 215 -35 224 -29 q 204 -47 206 -42 q 274 -44 240 -53 q 347 -32 307 -36 q 384 -28 363 -29 q 421 -31 406 -28 q 458 -40 440 -33 q 492 -37 476 -47 q 473 -12 489 -24 q 438 15 457 -1 q 405 58 419 32 q 392 129 390 83 l 461 161 q 485 178 465 163 q 526 216 504 194 q 567 260 547 238 q 594 299 588 283 q 604 320 600 313 q 611 339 608 328 q 615 360 615 353 q 617 378 615 367 q 619 392 618 388 q 621 401 621 397 q 621 409 621 404 q 621 422 621 414 q 619 470 621 450 q 613 517 618 490 q 588 595 603 561 q 550 667 572 629 q 535 693 539 685 q 530 707 532 701 q 527 716 528 713 q 520 728 526 719 q 502 751 514 736 q 467 794 490 767 q 420 842 436 831 q 397 862 404 854 q 389 883 389 869 q 389 933 389 896 q 386 982 389 961 q 385 1031 383 1003 q 387 1081 386 1061 q 389 1129 388 1101 l 390 1325 q 419 1297 410 1317 q 433 1255 429 1278 q 437 1207 436 1232 q 440 1163 438 1182 q 451 1131 443 1143 q 478 1121 460 1118 q 513 1149 497 1129 q 538 1185 528 1168 q 555 1235 547 1203 q 568 1286 563 1267 q 544 1306 560 1296 q 510 1326 528 1317 q 475 1343 493 1336 q 443 1354 457 1350 q 415 1360 431 1357 q 386 1367 399 1364 q 385 1423 383 1400 q 394 1461 388 1446 q 415 1486 401 1476 q 449 1503 429 1496 q 478 1512 467 1510 q 497 1526 490 1514 q 480 1528 486 1528 q 467 1529 474 1529 q 453 1528 461 1529 q 431 1524 444 1526 q 390 1516 413 1519 q 350 1510 368 1513 q 308 1507 333 1507 q 259 1508 283 1507 q 215 1510 235 1510 q 189 1508 194 1511 m 292 1125 q 288 1080 289 1106 q 288 1026 288 1054 q 290 972 289 999 q 292 924 292 944 q 275 940 285 928 q 256 967 265 953 q 240 997 247 982 q 229 1018 233 1011 q 206 1072 215 1042 q 193 1133 197 1103 q 193 1193 189 1164 q 211 1247 197 1222 q 247 1288 225 1271 q 300 1310 269 1304 q 298 1217 297 1267 q 292 1125 299 1167 m 396 172 l 393 193 q 389 238 390 213 q 388 291 388 264 q 389 343 388 318 q 393 386 390 368 q 397 436 396 407 q 397 495 397 465 q 396 554 397 525 q 393 607 394 583 q 410 589 400 603 q 428 559 419 575 q 444 528 438 543 q 456 504 451 513 q 478 444 469 478 q 492 378 486 411 q 496 309 496 344 q 486 239 496 274 q 457 190 475 203 q 396 172 439 176 "},"":{"ha":611,"x_min":61,"x_max":542,"o":"m 313 1367 l 313 1360 q 269 1349 288 1353 q 237 1340 251 1346 q 209 1324 222 1335 q 182 1292 196 1313 q 133 1185 153 1246 q 102 1060 114 1125 q 83 931 90 994 q 71 814 76 867 q 64 711 67 774 q 62 583 61 649 q 67 458 63 518 q 82 364 72 399 q 88 345 88 347 q 94 329 88 343 q 111 288 104 310 q 144 240 118 265 l 185 194 q 185 169 185 193 q 181 113 185 146 q 164 48 176 81 q 125 -3 151 15 q 109 -8 117 -7 q 94 -12 101 -10 q 81 -19 88 -14 q 69 -33 75 -24 l 185 -26 q 240 -19 213 -24 q 286 0 268 -14 q 281 17 286 8 q 275 35 276 25 q 276 57 272 46 q 282 81 279 68 q 283 103 282 90 q 285 128 283 115 q 288 151 286 140 q 293 167 290 161 q 341 160 314 157 q 395 173 368 163 q 444 199 422 183 q 479 231 467 215 q 492 246 488 240 q 501 257 497 251 q 510 270 506 263 q 522 290 515 278 q 527 300 525 296 q 532 308 529 304 q 538 317 536 315 q 540 318 539 318 q 540 319 540 318 q 542 328 540 321 l 514 372 q 497 390 507 381 q 479 410 488 399 q 463 429 472 418 q 442 449 453 440 q 417 460 431 457 q 390 454 404 463 l 390 447 q 393 432 390 440 q 400 407 396 424 q 407 362 404 390 q 410 288 410 333 q 401 250 410 268 q 376 219 392 232 q 341 203 361 207 q 299 208 321 200 l 317 488 q 320 547 318 522 q 324 593 322 571 q 330 638 326 615 q 338 693 333 661 q 340 728 340 710 q 343 765 340 746 q 355 906 350 832 q 374 1040 360 981 q 383 1108 381 1071 q 389 1176 386 1144 l 401 1318 q 429 1278 424 1297 q 433 1233 435 1258 q 426 1172 431 1207 q 424 1089 421 1138 q 446 1079 431 1085 q 472 1078 461 1074 q 488 1088 482 1081 q 506 1111 494 1096 q 513 1130 511 1119 q 515 1153 514 1140 q 519 1183 515 1167 q 536 1219 524 1199 q 486 1296 519 1258 q 413 1353 453 1333 q 419 1375 414 1360 q 432 1406 425 1390 q 446 1437 439 1422 q 457 1456 453 1451 l 521 1499 q 533 1503 529 1503 q 537 1503 536 1503 q 538 1505 538 1503 q 542 1515 539 1507 q 508 1520 531 1521 q 460 1516 485 1519 q 410 1508 435 1513 q 371 1503 386 1504 q 347 1499 354 1501 q 337 1490 339 1496 q 334 1474 335 1485 q 331 1447 333 1464 q 320 1406 325 1425 q 313 1367 315 1388 m 206 269 q 179 326 189 292 q 165 401 169 360 q 158 487 160 442 q 156 575 156 532 q 156 647 156 613 q 158 710 157 682 q 161 757 160 738 q 164 783 163 776 q 167 812 164 790 q 173 865 169 833 q 182 935 176 896 q 194 1015 188 974 q 214 1124 203 1069 q 239 1224 225 1179 q 271 1296 253 1268 q 313 1324 289 1324 q 311 1313 313 1321 q 308 1297 310 1306 q 306 1280 307 1288 q 304 1269 304 1272 q 288 1109 296 1185 q 271 960 279 1033 q 253 810 263 886 q 236 650 244 735 q 226 526 231 593 q 215 401 221 460 q 210 335 213 369 q 206 269 208 301 "},"":{"ha":879,"x_min":10,"x_max":857,"o":"m 515 1401 q 537 1392 525 1394 q 562 1387 549 1389 q 587 1381 575 1385 q 608 1368 599 1376 q 604 1331 611 1364 q 585 1251 597 1299 q 557 1147 572 1203 q 527 1042 542 1092 q 501 955 513 993 q 488 906 490 917 q 472 927 478 917 q 456 950 465 938 q 439 973 447 963 q 422 999 431 983 q 392 1053 404 1029 q 369 1097 381 1076 q 342 1141 357 1118 q 303 1196 328 1164 q 343 1268 249 1264 q 347 1272 346 1271 q 349 1276 347 1274 q 358 1288 354 1286 q 363 1289 361 1289 q 365 1290 365 1289 q 365 1299 365 1292 q 364 1299 364 1299 q 363 1300 364 1300 q 361 1301 361 1300 l 274 1301 q 240 1300 254 1300 q 210 1300 225 1300 q 179 1299 196 1300 q 140 1296 163 1299 q 121 1290 129 1293 q 101 1285 113 1288 q 55 1281 79 1281 q 10 1276 31 1282 q 33 1262 15 1268 q 71 1249 50 1256 q 111 1236 92 1243 q 142 1219 131 1229 q 178 1181 165 1199 q 203 1142 192 1163 q 228 1093 215 1121 q 267 1026 242 1065 q 295 981 281 1010 q 321 938 310 951 l 336 921 q 361 884 351 901 q 385 843 371 867 l 199 800 q 228 736 201 746 q 292 735 254 726 l 442 764 l 439 636 q 388 629 417 632 q 330 624 358 626 q 278 618 301 621 q 244 610 254 615 q 242 607 244 610 l 224 596 q 227 576 225 581 q 232 560 229 571 q 233 549 233 547 q 232 542 233 551 q 230 537 232 542 q 230 527 228 532 q 241 520 232 522 q 271 522 250 518 q 350 532 311 529 q 432 535 389 535 q 432 458 432 499 q 429 379 432 417 q 431 299 426 339 q 435 221 435 260 q 434 163 435 183 q 431 129 433 142 q 421 110 428 117 q 400 93 414 103 q 376 78 383 82 q 365 72 369 74 q 353 66 361 69 q 326 54 346 63 q 310 47 315 49 q 297 38 306 44 q 324 33 310 31 q 360 42 339 36 q 408 56 381 49 q 475 65 436 63 q 521 67 504 67 q 552 65 538 67 q 585 65 567 64 q 633 69 603 65 q 653 72 646 71 q 667 73 661 72 q 677 76 672 74 q 689 83 682 78 q 672 93 679 94 q 649 97 664 92 q 617 111 633 103 q 586 131 600 119 q 563 157 572 142 q 557 193 554 172 q 556 226 560 215 q 553 258 553 236 q 557 333 553 299 q 565 408 561 368 q 570 476 569 447 q 574 540 571 504 q 702 553 638 547 q 818 575 767 558 l 800 663 q 766 665 788 665 q 721 665 744 665 q 674 662 697 664 q 635 658 651 660 q 620 658 631 658 q 607 656 610 657 q 576 667 582 656 q 575 721 571 679 q 574 749 576 732 q 575 785 572 767 q 662 785 617 788 q 747 792 707 782 q 790 817 781 800 q 796 851 799 833 q 785 881 793 868 q 775 897 776 894 q 751 888 771 894 q 705 876 731 882 q 652 868 679 871 q 607 868 625 865 q 613 897 610 875 q 622 949 617 919 q 634 1012 626 979 q 653 1072 642 1044 q 670 1141 669 1114 q 682 1192 671 1168 q 713 1267 699 1224 q 742 1339 726 1310 q 778 1386 760 1372 q 812 1406 796 1400 q 840 1415 828 1411 q 857 1431 851 1418 q 826 1440 844 1440 q 787 1436 808 1440 q 740 1426 765 1432 q 686 1421 714 1421 q 643 1421 667 1421 q 595 1419 619 1421 q 549 1413 571 1417 q 515 1401 528 1408 "},"~":{"ha":942,"x_min":57,"x_max":917,"o":"m 57 738 q 69 727 64 731 q 78 722 74 724 q 90 717 83 719 q 106 711 96 715 q 125 727 113 717 q 144 740 138 738 q 203 756 174 754 q 262 753 233 758 q 318 739 290 749 q 371 719 346 729 q 394 709 385 714 q 419 699 404 704 q 504 669 468 679 q 588 665 540 660 q 611 665 606 667 q 627 663 617 663 q 661 672 638 664 q 738 706 685 681 q 781 725 753 713 q 836 752 808 738 q 887 781 864 767 q 917 804 910 794 q 908 818 911 813 q 901 826 906 824 q 886 829 896 829 q 856 829 876 829 q 833 826 843 829 q 809 817 824 822 q 770 806 794 813 q 706 792 746 799 q 647 791 676 786 q 590 805 618 796 q 535 826 563 814 q 481 849 507 839 q 409 872 438 864 q 358 882 381 881 q 317 879 336 883 q 273 865 297 875 q 216 842 249 856 q 136 810 183 828 q 84 784 110 800 q 57 738 58 768 "},"*":{"ha":431,"x_min":4,"x_max":426,"o":"m 151 1188 q 122 1206 132 1199 q 96 1228 111 1214 q 67 1247 78 1243 q 38 1263 57 1251 q 32 1255 33 1257 q 31 1251 31 1253 q 31 1245 31 1249 q 32 1233 32 1242 q 14 1240 14 1240 q 4 1229 14 1240 l 57 1169 q 53 1167 54 1169 q 51 1161 51 1161 q 49 1161 50 1161 q 46 1160 49 1161 q 39 1151 43 1160 q 49 1139 46 1144 q 58 1126 53 1133 q 86 1132 79 1132 q 113 1121 93 1132 l 33 1025 q 53 994 44 1004 q 72 985 63 985 q 93 994 82 985 q 121 1018 104 1003 q 135 1031 128 1025 q 150 1042 142 1036 q 155 1017 156 1033 q 157 988 154 1001 q 170 967 160 974 q 207 969 181 960 q 230 976 222 975 q 239 988 238 978 q 238 1022 240 997 q 231 1096 235 1046 q 267 1081 250 1090 q 299 1060 283 1071 q 330 1038 314 1049 q 365 1021 346 1026 q 383 1040 378 1036 q 392 1044 388 1044 q 403 1042 396 1043 q 426 1046 410 1042 q 399 1078 419 1068 q 358 1100 378 1088 q 323 1124 342 1111 q 285 1151 304 1136 q 299 1176 289 1165 q 322 1197 310 1186 q 346 1218 335 1207 q 363 1246 357 1229 q 326 1260 339 1261 q 301 1247 313 1258 q 274 1219 289 1235 q 233 1189 260 1203 q 235 1228 235 1213 q 232 1256 236 1244 q 217 1276 228 1268 q 185 1293 206 1285 q 163 1293 168 1300 q 157 1273 157 1286 q 159 1244 157 1260 q 161 1219 161 1229 q 162 1213 161 1213 q 160 1206 163 1214 q 155 1192 156 1192 q 151 1188 154 1192 "},"":{"ha":364,"x_min":83,"x_max":367,"o":"m 99 1221 q 124 1231 118 1226 q 139 1251 131 1235 q 151 1275 146 1267 q 175 1288 156 1283 q 208 1259 201 1279 q 209 1215 214 1239 q 194 1167 204 1192 q 178 1125 183 1142 q 145 1040 163 1082 q 110 958 128 999 q 108 916 99 931 q 146 896 118 901 q 199 888 174 892 q 251 882 224 885 l 293 878 q 337 882 322 871 q 358 917 351 893 q 364 942 361 929 q 365 969 367 954 q 339 971 349 974 q 316 964 329 968 q 280 956 303 960 q 214 951 257 951 q 228 1008 219 976 q 249 1070 238 1039 q 271 1132 260 1101 q 290 1188 282 1163 q 293 1244 299 1213 q 270 1300 288 1275 q 224 1336 253 1325 q 156 1332 194 1347 q 120 1313 138 1325 q 93 1286 103 1301 q 83 1254 83 1271 q 99 1221 83 1238 "},"":{"ha":346,"x_min":63,"x_max":294,"o":"m 63 1208 q 88 1191 74 1190 q 138 1218 103 1192 q 139 1192 139 1211 q 138 1151 139 1172 q 137 1110 138 1129 q 136 1083 136 1090 q 138 1053 136 1074 q 140 1012 139 1033 q 142 972 142 990 q 142 947 143 954 q 124 933 133 936 q 107 926 115 929 q 92 917 99 922 q 83 899 85 911 q 131 891 106 892 q 178 893 156 890 q 220 899 201 896 q 249 903 239 903 q 277 906 271 904 q 294 924 283 908 q 272 938 285 936 q 249 945 260 939 q 232 973 239 951 q 228 1047 225 994 q 226 1133 231 1088 q 222 1224 222 1179 q 221 1273 222 1251 q 212 1307 219 1294 q 190 1320 204 1319 q 151 1308 176 1321 q 132 1292 146 1306 q 103 1263 118 1279 q 76 1231 89 1246 q 63 1208 64 1215 "},"":{"ha":1132,"x_min":0,"x_max":0,"o":""},"/":{"ha":767,"x_min":15,"x_max":750,"o":"m 622 1346 l 621 1338 q 588 1273 606 1303 q 561 1224 569 1243 q 557 1212 558 1217 q 553 1203 556 1207 q 549 1194 551 1199 q 542 1181 547 1189 q 501 1115 517 1142 q 475 1064 486 1088 q 453 1016 464 1040 q 428 960 443 992 q 427 958 428 958 q 426 956 426 957 l 378 857 q 360 815 367 833 q 342 774 353 796 q 322 733 331 751 q 301 690 313 715 q 263 606 282 646 q 228 519 244 565 q 193 423 206 457 q 174 369 181 389 q 161 339 167 350 q 147 310 156 328 q 122 263 138 293 q 79 178 107 233 q 42 90 57 135 q 15 -1 28 44 q 32 -21 26 -14 q 42 -30 38 -28 q 55 -30 47 -32 q 78 -22 63 -28 q 99 -16 90 -17 q 122 -12 107 -15 l 176 113 q 190 151 186 142 q 197 164 194 161 q 201 171 199 167 q 213 194 204 175 q 243 271 226 225 q 285 368 260 317 q 294 390 292 382 q 303 413 296 397 l 581 1004 q 601 1044 594 1026 q 619 1083 607 1063 q 631 1101 628 1096 q 642 1124 635 1107 q 651 1146 647 1136 q 661 1165 654 1156 l 731 1283 q 740 1301 738 1297 q 750 1322 743 1306 l 714 1356 q 704 1360 707 1360 q 698 1358 701 1360 q 689 1353 694 1356 q 671 1349 683 1350 q 648 1347 661 1349 q 622 1346 635 1346 "},".":{"ha":315,"x_min":82,"x_max":217,"o":"m 142 396 q 113 385 122 390 q 96 363 103 379 q 92 351 94 360 q 88 332 90 342 q 83 313 85 322 q 82 299 82 303 q 85 284 82 296 q 89 269 88 272 q 101 253 93 261 q 121 238 110 244 q 144 228 132 231 q 168 228 157 225 q 185 243 176 229 q 201 273 194 257 q 213 304 208 289 q 215 325 217 319 q 206 353 213 339 q 191 378 200 367 q 169 394 182 389 q 142 396 157 400 "},",":{"ha":460,"x_min":178,"x_max":313,"o":"m 254 161 q 268 153 263 157 q 282 147 274 150 q 295 161 290 157 q 302 169 300 165 q 306 181 304 174 q 308 204 307 188 q 312 245 311 228 q 308 285 313 263 q 301 322 304 304 q 290 351 297 339 q 267 368 282 363 q 226 372 253 374 q 213 371 214 371 q 206 361 213 371 q 182 317 186 338 q 185 265 178 296 q 196 235 189 244 q 211 224 203 226 q 228 220 219 221 q 244 215 238 219 q 255 203 253 211 q 257 188 257 196 q 256 172 257 179 q 254 161 254 164 "},"b":{"ha":660,"x_min":32,"x_max":624,"o":"m 32 1115 q 33 1107 33 1108 q 32 1106 32 1106 q 34 1106 32 1106 q 43 1100 36 1106 q 87 1070 69 1081 q 115 1046 104 1060 q 128 1008 125 1032 q 132 935 132 983 q 134 835 132 882 q 139 744 136 789 q 143 652 142 699 q 143 551 144 606 q 140 487 142 515 q 136 421 138 458 q 137 391 136 411 q 139 350 138 371 q 141 311 140 329 q 140 289 142 293 q 126 258 136 268 q 106 242 117 249 q 87 229 96 236 q 75 208 78 222 q 115 206 96 201 q 156 217 133 211 q 208 223 179 222 q 279 210 238 224 q 294 205 290 206 q 298 204 297 204 q 299 206 299 204 q 303 208 299 207 q 332 206 308 210 q 387 203 356 203 q 451 210 418 203 q 508 238 483 217 q 513 242 514 242 q 510 240 513 242 q 508 238 508 239 q 514 243 508 238 l 521 250 q 539 276 532 263 q 561 304 546 289 q 613 404 601 346 q 615 521 624 463 q 604 599 608 568 q 588 654 600 629 q 553 704 576 679 q 486 765 529 729 q 426 799 461 785 q 353 821 392 814 q 391 836 374 831 q 426 851 408 842 q 461 876 443 860 q 499 925 479 893 q 515 976 514 950 q 506 1023 515 1001 q 481 1061 496 1044 q 450 1086 465 1078 q 394 1113 414 1106 q 358 1122 375 1121 q 317 1121 340 1124 q 251 1115 294 1118 q 197 1109 224 1114 q 138 1104 169 1104 q 112 1108 126 1104 q 82 1115 97 1111 q 53 1119 67 1118 q 32 1115 40 1119 m 225 779 q 251 779 240 778 q 270 781 261 781 q 289 781 279 782 q 315 775 299 779 q 367 753 340 767 q 417 723 393 740 q 460 684 442 706 q 488 639 479 663 q 497 598 493 622 q 501 548 500 574 q 500 497 501 522 q 496 453 499 472 q 477 381 489 411 q 436 324 465 351 q 399 300 421 310 q 353 285 376 290 q 310 277 331 279 q 281 278 290 275 q 253 283 264 282 q 236 289 242 285 q 229 302 231 293 q 231 331 228 311 q 231 430 238 383 q 226 503 225 476 q 230 567 228 528 q 233 649 232 607 q 232 726 233 690 q 225 779 231 763 m 226 811 l 211 1029 q 229 1063 211 1053 q 278 1083 247 1072 q 327 1085 311 1097 q 358 1057 343 1072 q 383 1021 372 1043 q 399 974 394 999 q 401 926 404 949 q 383 886 397 903 q 367 872 376 878 q 347 860 357 867 q 309 831 321 838 q 288 824 297 825 q 265 823 278 824 q 226 811 253 822 "},"c":{"ha":547,"x_min":61,"x_max":526,"o":"m 518 482 q 488 467 497 479 q 475 436 479 454 q 467 397 471 418 q 450 356 463 375 q 434 340 444 347 q 411 326 424 332 q 386 315 399 319 q 364 313 374 311 q 317 328 338 315 q 281 361 297 342 q 253 403 265 381 q 232 449 240 426 q 228 463 228 458 q 228 472 228 468 q 228 482 228 476 q 228 500 229 488 q 221 525 226 513 q 210 550 215 538 q 200 576 204 563 q 196 604 196 589 q 191 654 196 615 q 184 745 186 693 q 185 856 182 797 q 200 965 188 914 q 217 1024 206 986 q 245 1100 229 1061 q 278 1172 261 1139 q 308 1219 294 1206 q 333 1232 321 1232 q 356 1224 346 1232 q 375 1205 367 1217 q 388 1183 383 1193 q 406 1135 397 1163 q 426 1092 414 1107 q 444 1079 431 1088 q 472 1065 457 1071 q 498 1059 486 1060 q 513 1068 510 1058 q 508 1120 517 1089 q 484 1181 499 1151 q 456 1233 469 1211 q 439 1258 443 1256 q 391 1281 419 1272 q 339 1289 363 1289 q 245 1263 285 1290 q 176 1192 206 1235 q 127 1099 147 1150 q 93 1006 107 1049 q 79 951 83 976 q 68 897 75 926 q 64 861 65 888 q 62 800 63 835 q 62 726 61 765 q 63 653 63 688 q 65 592 64 618 q 69 556 67 565 q 98 453 81 497 q 140 364 115 408 q 167 332 147 351 q 210 294 188 313 q 255 260 233 275 q 289 243 276 246 q 389 243 349 228 q 472 297 429 258 q 497 322 489 313 q 507 341 504 332 q 512 360 510 350 q 519 388 514 371 q 521 390 521 389 q 522 392 521 390 q 525 410 524 397 q 526 437 526 424 q 524 463 526 450 q 518 482 522 475 "},"d":{"ha":636,"x_min":57,"x_max":638,"o":"m 206 444 q 185 435 197 439 q 161 424 174 431 q 135 404 149 417 q 110 369 122 392 q 102 357 104 358 q 99 356 100 356 q 98 353 99 356 q 96 342 97 351 q 119 338 111 335 q 140 349 128 342 q 175 365 153 356 q 240 379 197 374 q 260 381 247 381 q 281 385 274 382 q 292 390 290 388 q 294 392 293 392 q 300 393 296 393 q 319 393 304 393 q 366 392 350 393 q 395 395 382 392 q 424 407 408 399 q 471 433 440 415 q 522 478 496 449 q 563 533 549 507 q 576 568 565 539 q 597 633 586 597 q 617 700 608 668 q 628 742 626 732 q 633 794 631 776 q 636 828 635 813 q 638 865 638 844 q 635 925 638 885 q 633 962 633 949 q 630 988 632 975 q 622 1015 628 1000 q 601 1058 615 1031 q 584 1090 593 1075 q 564 1119 575 1104 q 534 1151 554 1133 q 489 1188 514 1169 q 439 1220 464 1206 q 396 1242 414 1235 q 326 1262 350 1258 q 288 1264 301 1265 q 263 1258 274 1263 q 236 1253 253 1253 q 201 1253 228 1253 q 145 1255 174 1254 q 93 1255 117 1256 q 68 1250 69 1254 q 65 1226 57 1233 q 90 1211 74 1219 q 126 1189 107 1203 q 156 1147 144 1175 q 163 1099 161 1133 q 167 1017 165 1064 q 169 915 168 969 q 172 806 169 860 q 177 705 174 753 q 188 624 181 657 q 193 581 193 596 q 194 533 193 565 q 198 488 196 517 q 206 444 200 458 m 297 465 q 299 499 299 483 q 296 531 299 515 q 290 562 290 550 q 289 584 289 574 q 290 605 289 594 q 290 631 292 615 q 287 682 288 665 q 285 712 286 699 q 280 742 283 725 q 269 794 276 758 q 257 877 263 826 q 249 980 251 928 q 247 1077 246 1032 q 254 1143 247 1122 q 286 1173 263 1171 q 340 1171 310 1175 q 383 1153 369 1168 q 415 1121 397 1139 l 446 1085 q 460 1069 457 1075 q 471 1047 464 1063 q 505 967 493 1003 q 522 897 517 932 q 527 822 526 861 q 528 731 528 782 q 522 684 528 714 q 509 622 517 654 q 492 563 501 590 q 478 525 483 535 q 464 513 474 519 q 442 500 454 507 q 419 488 431 493 q 400 478 407 482 q 371 465 381 469 q 352 461 361 461 q 331 463 343 461 q 297 465 319 464 "},"e":{"ha":565,"x_min":63,"x_max":556,"o":"m 63 1056 q 70 1036 64 1044 q 85 1021 76 1028 q 105 1006 94 1014 q 125 985 115 997 q 149 940 139 965 q 160 885 158 915 q 160 860 161 868 q 160 847 160 853 q 160 835 160 842 q 164 811 161 828 q 172 747 169 779 q 172 678 175 714 q 174 598 169 644 q 182 499 179 551 q 183 394 185 447 q 164 290 181 340 q 150 263 157 272 q 136 247 143 253 q 121 233 129 240 q 104 213 113 226 q 128 209 118 206 q 153 218 139 213 q 189 228 168 224 q 244 231 210 233 q 277 222 264 228 q 315 214 290 215 q 367 215 346 213 q 404 222 388 218 q 437 228 421 225 q 474 229 453 231 q 513 225 492 228 q 544 236 535 222 q 553 269 556 249 q 550 308 550 290 q 549 326 550 314 q 548 350 549 338 q 546 372 547 363 q 544 383 544 382 q 526 382 528 383 q 519 371 525 381 l 488 288 q 436 290 457 286 q 383 294 415 294 q 329 292 360 293 q 281 300 299 290 q 271 360 274 313 q 266 463 268 407 q 264 571 264 519 q 264 643 264 622 l 383 674 q 390 613 389 629 q 389 592 390 596 q 385 590 388 588 q 383 586 383 592 l 397 569 q 403 558 403 563 q 406 552 404 554 q 409 549 407 550 q 419 544 411 547 q 436 574 436 560 q 433 611 436 589 q 435 651 432 622 q 435 728 439 679 q 433 745 433 736 q 431 760 432 754 q 424 778 428 774 q 432 790 419 782 q 415 801 424 792 q 397 816 406 811 q 383 816 389 821 q 378 782 378 811 q 376 751 376 760 q 353 735 376 742 l 258 715 q 257 783 258 743 q 255 862 256 822 q 256 935 254 901 q 265 986 258 969 q 293 1008 272 1000 q 339 1021 314 1017 q 388 1026 364 1025 q 424 1028 411 1028 q 448 1019 439 1028 q 463 999 457 1011 q 475 972 469 988 q 489 943 481 957 q 499 927 493 935 q 513 914 504 919 q 527 931 526 921 q 531 974 528 940 q 533 1018 533 997 q 517 1050 532 1039 q 457 1068 497 1063 q 371 1073 417 1074 q 282 1066 325 1072 q 215 1047 239 1060 q 171 1033 190 1033 q 134 1037 151 1032 q 99 1049 117 1042 q 63 1056 82 1056 "},"f":{"ha":518,"x_min":63,"x_max":524,"o":"m 63 1197 q 65 1181 64 1186 q 68 1173 65 1176 q 76 1167 71 1169 q 90 1161 82 1165 q 133 1122 126 1142 q 142 1079 140 1101 q 147 1045 144 1060 q 151 1011 149 1031 q 157 881 157 947 q 160 747 157 814 q 160 618 163 682 q 165 489 158 554 q 176 431 168 461 q 178 371 183 401 q 166 347 175 356 q 145 331 157 338 q 123 319 133 325 q 107 301 113 313 q 116 290 110 297 q 158 286 122 283 q 188 297 175 289 q 217 307 200 304 q 244 306 229 308 q 276 299 258 303 q 312 290 293 294 q 350 288 331 286 q 349 319 353 310 q 338 333 346 329 q 322 338 331 336 q 304 347 313 339 q 289 372 296 354 q 279 425 282 389 q 283 453 278 442 q 289 483 288 464 q 283 537 292 511 q 269 594 274 563 q 266 627 267 613 q 263 660 265 642 q 258 692 260 678 q 256 726 256 707 l 340 746 q 351 725 346 738 q 358 704 356 713 q 361 686 361 692 q 362 677 361 681 q 366 671 363 674 q 379 663 369 668 l 389 676 q 394 704 394 692 q 392 727 394 717 q 385 746 389 738 q 381 763 382 754 q 361 883 374 826 q 335 888 342 892 q 327 874 328 885 q 330 847 326 864 q 335 810 333 829 l 246 808 q 248 899 250 851 q 244 990 246 946 q 245 1069 243 1033 q 258 1124 247 1104 q 297 1127 268 1125 q 358 1131 326 1129 q 417 1133 390 1133 q 449 1129 444 1133 q 456 1110 451 1126 q 465 1072 460 1093 q 474 1034 469 1051 q 481 1013 478 1017 q 508 1031 504 1015 q 515 1069 513 1046 q 519 1163 524 1136 q 500 1197 515 1190 q 457 1197 485 1203 q 392 1190 429 1192 l 263 1190 q 242 1188 253 1190 q 221 1186 232 1186 q 178 1188 207 1185 q 133 1193 150 1192 q 110 1198 118 1194 q 97 1203 103 1201 q 83 1204 90 1206 q 63 1197 76 1203 "},"h":{"ha":610,"x_min":61,"x_max":590,"o":"m 435 832 q 387 826 413 829 q 334 820 361 822 q 281 817 307 818 q 229 821 254 817 q 231 876 232 846 q 228 938 231 907 q 225 960 226 950 q 226 989 224 969 q 224 1038 231 1018 q 213 1076 218 1058 q 211 1112 208 1093 q 236 1158 214 1131 q 255 1177 247 1172 q 265 1197 263 1182 q 240 1205 249 1206 q 222 1201 231 1204 q 203 1197 214 1199 q 172 1201 193 1196 q 119 1205 147 1208 q 63 1203 92 1201 q 62 1181 63 1189 q 63 1169 61 1174 q 68 1160 64 1164 q 83 1153 72 1157 q 113 1141 103 1146 q 126 1125 122 1136 q 131 1092 131 1114 q 131 1028 131 1069 q 131 887 131 953 q 138 750 132 821 q 133 690 140 718 q 125 629 126 661 q 127 564 125 606 q 131 480 129 522 q 135 401 133 438 q 135 350 136 364 q 123 321 132 331 q 103 303 114 311 q 83 288 92 296 q 74 267 74 281 q 91 264 83 261 q 106 272 99 267 q 125 283 114 278 q 156 286 136 288 q 179 282 174 285 q 203 276 185 279 q 229 270 219 275 q 245 263 239 265 q 258 265 251 261 q 275 282 264 268 q 251 321 271 299 q 218 354 232 343 q 220 423 218 381 q 225 510 222 465 q 229 594 228 556 q 228 650 231 632 q 224 663 226 660 q 222 667 222 665 q 220 672 221 668 q 219 689 219 676 q 222 714 221 700 q 224 743 224 728 q 226 744 225 743 q 228 744 226 746 l 265 758 q 311 767 292 764 q 349 771 331 769 q 388 773 368 772 q 436 774 408 774 q 435 693 436 733 q 436 619 435 653 q 435 574 436 586 q 435 553 435 563 q 436 527 435 543 q 442 472 438 511 q 441 440 443 461 q 436 396 439 419 q 431 351 433 372 q 426 317 428 329 q 415 259 421 276 q 404 235 410 242 q 394 225 399 228 q 386 213 389 222 q 392 190 382 194 q 414 189 401 186 q 429 196 428 192 q 438 204 431 200 q 448 209 446 208 q 453 208 450 210 q 464 205 457 207 q 489 203 471 203 q 502 203 493 203 q 520 202 511 203 q 537 201 529 201 q 546 200 544 200 q 559 197 554 200 q 568 192 564 194 q 577 191 572 190 q 590 199 582 192 q 586 206 588 204 q 584 209 585 208 q 582 211 583 210 q 576 219 581 213 q 553 258 565 238 q 542 297 542 278 l 549 731 q 542 803 544 765 q 536 874 539 840 q 533 1019 528 946 q 540 1168 539 1093 q 545 1234 540 1215 q 556 1259 550 1253 q 568 1268 563 1265 q 576 1288 574 1271 q 555 1295 565 1296 q 533 1290 544 1294 q 508 1282 521 1286 q 483 1278 496 1278 q 460 1283 478 1279 q 435 1290 442 1288 q 411 1298 419 1294 q 385 1303 403 1301 q 392 1280 385 1290 q 410 1261 400 1269 q 428 1244 419 1253 q 440 1224 438 1235 q 441 1192 443 1213 q 440 1157 439 1172 q 444 1128 442 1140 q 447 1096 447 1117 q 442 1031 447 1064 q 438 971 436 999 q 438 901 438 936 q 435 832 439 867 "},"l":{"ha":499,"x_min":42,"x_max":494,"o":"m 85 1307 q 85 1290 85 1294 q 89 1285 86 1286 q 97 1282 92 1283 q 110 1274 101 1281 q 131 1227 132 1256 q 132 1176 131 1199 q 136 1146 133 1158 q 140 1118 139 1133 l 133 871 q 134 795 133 839 q 135 706 135 751 q 134 617 135 661 q 129 542 133 574 q 120 421 122 479 q 122 299 118 363 q 110 293 114 296 q 99 288 107 290 q 84 284 86 282 q 68 278 82 286 q 51 261 60 272 q 42 241 43 250 q 53 228 42 232 q 94 233 64 225 q 141 246 126 242 q 170 251 156 250 q 206 252 185 253 q 272 250 228 251 q 307 253 292 250 q 334 259 322 256 q 357 265 346 263 q 379 263 368 267 q 389 258 388 260 q 393 254 390 256 q 403 253 396 253 q 428 254 410 253 l 468 253 l 472 253 l 475 253 q 476 254 476 253 q 481 256 479 254 q 491 300 488 275 q 494 349 494 325 q 494 368 494 354 q 492 398 493 382 q 491 426 492 414 q 489 443 490 439 q 472 444 478 444 q 463 437 467 443 q 456 419 460 431 q 447 389 453 407 q 436 360 443 374 q 415 332 429 347 q 366 340 388 332 q 325 344 344 349 q 285 337 307 342 q 233 335 264 332 q 232 363 232 350 q 231 392 232 376 q 226 418 229 408 q 219 440 222 428 q 214 509 214 461 q 215 609 214 557 q 217 709 215 661 q 217 778 218 757 q 213 813 214 806 q 211 825 211 821 q 213 839 211 829 q 219 882 215 849 q 225 943 222 913 q 231 1007 228 974 q 229 1060 231 1025 q 228 1131 228 1094 q 229 1201 228 1168 q 238 1249 231 1233 q 251 1266 242 1260 q 272 1278 261 1272 q 291 1290 282 1283 q 304 1308 300 1296 q 255 1317 283 1321 q 200 1310 226 1313 q 170 1310 186 1308 q 139 1313 154 1311 q 109 1313 124 1314 q 85 1307 94 1313 "},"m":{"ha":742,"x_min":43,"x_max":725,"o":"m 383 939 q 369 956 376 944 q 353 982 361 968 q 339 1009 346 996 q 326 1031 332 1022 q 306 1054 313 1049 q 296 1065 300 1060 q 287 1083 292 1071 q 271 1125 282 1094 q 244 1172 264 1144 q 211 1217 224 1200 q 187 1244 197 1235 q 169 1258 176 1253 q 155 1267 161 1264 q 143 1278 149 1271 q 139 1282 139 1282 q 140 1281 139 1282 q 142 1279 142 1279 q 140 1283 143 1279 q 90 1294 113 1285 q 49 1304 68 1304 q 53 1283 47 1290 q 68 1269 60 1276 q 84 1251 76 1263 q 93 1218 92 1240 q 94 1165 96 1194 q 97 1082 93 1135 q 103 949 104 1018 q 104 814 103 879 q 101 682 104 743 q 90 550 97 621 q 89 481 88 518 q 88 415 90 444 q 78 383 86 397 q 63 359 71 369 q 49 341 56 349 q 44 326 43 333 q 50 324 51 324 q 57 322 49 324 q 64 321 64 321 q 71 322 64 321 q 99 329 88 324 q 126 339 111 335 q 162 343 140 343 q 217 336 183 343 q 244 324 235 332 q 269 326 254 317 q 270 344 279 336 q 246 368 261 353 q 215 410 231 383 q 194 485 199 438 l 194 707 q 201 758 200 746 q 199 772 201 769 q 194 779 197 775 q 190 808 192 783 q 185 857 189 842 q 178 888 181 872 q 177 929 176 903 q 185 1013 178 956 q 183 1066 188 1039 q 186 1114 179 1093 q 202 1099 197 1107 q 217 1076 207 1092 l 243 1031 q 256 1010 253 1017 q 260 999 260 1003 q 262 992 261 994 q 265 986 263 990 q 272 978 269 979 q 278 976 275 978 q 285 967 281 974 q 297 944 290 961 l 368 775 q 370 770 368 775 q 375 762 372 765 q 383 760 378 758 q 397 774 389 761 q 424 841 419 807 q 433 893 428 875 q 442 915 438 904 q 451 936 447 925 l 511 1117 q 517 1053 514 1104 q 524 931 521 1001 q 529 778 526 860 q 534 622 532 697 q 538 485 536 546 q 543 399 540 425 q 542 326 547 351 q 528 285 538 300 q 508 263 519 271 q 488 244 497 256 q 503 226 497 229 q 531 231 510 222 q 572 244 558 242 q 596 244 586 246 q 616 240 606 243 q 647 238 626 238 q 673 235 668 238 q 679 229 678 232 q 686 224 681 226 q 713 222 692 221 q 714 231 714 226 q 717 242 714 236 l 725 260 q 672 306 689 289 q 648 342 654 324 q 640 382 642 360 q 635 443 639 404 q 633 463 633 456 q 634 474 633 469 q 635 485 635 479 q 636 503 636 492 q 635 535 636 511 q 633 586 633 560 q 631 635 632 613 q 631 665 631 658 q 634 715 633 689 q 628 763 635 740 l 601 1047 q 604 1076 601 1064 q 606 1108 607 1089 q 603 1138 606 1125 q 600 1171 600 1151 q 605 1239 600 1203 q 603 1300 610 1275 q 613 1310 610 1308 q 619 1312 617 1311 q 622 1316 621 1313 q 626 1332 624 1319 q 601 1337 608 1342 q 578 1324 593 1332 q 546 1299 554 1310 q 535 1276 538 1288 q 527 1253 532 1265 q 506 1225 522 1240 l 500 1219 q 453 1144 468 1185 q 429 1057 439 1103 q 422 1031 426 1047 q 410 996 417 1014 q 396 963 403 978 q 383 939 389 947 "},"r":{"ha":693,"x_min":65,"x_max":715,"o":"m 72 319 q 92 314 79 314 q 122 317 106 314 q 152 323 138 319 q 176 328 167 326 q 203 328 197 331 q 217 324 210 326 q 238 323 224 322 q 285 333 251 324 q 278 345 281 342 q 272 350 275 349 q 264 355 268 351 q 253 367 260 358 q 237 388 246 374 q 225 407 228 401 q 219 431 221 415 q 217 464 218 447 q 217 494 217 481 q 219 514 218 508 q 221 545 222 522 q 218 599 219 568 q 217 669 217 631 q 222 747 217 707 q 274 744 263 757 q 294 699 286 732 q 308 653 303 667 q 317 629 313 640 q 328 599 322 618 q 340 538 333 581 l 369 426 q 395 387 375 417 q 440 324 415 357 q 487 262 464 290 q 521 225 510 233 q 540 206 532 217 q 560 192 549 196 q 608 194 588 183 q 610 195 610 194 q 613 196 611 196 q 644 213 626 204 q 676 234 661 222 q 703 260 692 246 q 715 293 714 275 l 714 306 q 689 301 704 307 q 655 292 674 296 q 617 291 636 288 q 579 315 597 294 q 546 356 557 342 q 528 380 535 369 q 518 402 522 390 q 506 438 514 414 q 494 463 503 447 q 475 494 485 478 q 457 526 465 511 q 444 553 449 542 q 432 589 436 572 q 419 626 428 606 q 388 697 406 663 q 361 764 371 732 q 388 794 378 782 q 407 817 399 806 q 423 843 415 828 q 443 883 431 858 q 469 929 453 903 q 494 988 485 956 q 501 1059 504 1021 q 469 1142 499 1097 q 403 1221 432 1197 q 345 1250 375 1244 q 279 1251 315 1256 q 190 1246 243 1246 q 157 1248 171 1246 q 130 1253 143 1250 q 101 1259 117 1257 q 65 1261 86 1261 q 72 1235 65 1244 q 88 1217 79 1225 q 103 1199 96 1208 q 111 1174 111 1190 l 124 790 q 122 724 124 754 q 119 663 121 693 q 119 602 118 633 q 125 535 121 571 q 128 499 126 526 q 128 440 129 471 q 123 383 126 410 q 113 350 119 357 q 101 343 110 347 q 88 338 92 339 q 76 333 79 333 q 72 333 72 333 q 72 331 71 333 q 72 319 72 328 m 226 779 q 224 783 224 783 q 221 790 224 783 q 217 828 218 799 q 215 890 215 857 q 215 952 214 924 q 215 988 215 981 q 215 1047 217 1021 q 211 1095 213 1072 q 211 1140 210 1118 q 221 1183 213 1161 q 269 1185 249 1185 q 305 1183 289 1186 q 334 1170 321 1179 q 361 1143 347 1161 q 375 1110 371 1129 q 380 1071 379 1092 q 379 1028 381 1050 q 376 988 378 1006 q 370 945 375 958 q 360 910 365 932 q 351 876 356 894 q 336 846 346 857 q 319 831 331 839 q 293 814 307 822 q 265 798 279 806 q 240 786 250 790 q 236 783 236 783 q 236 783 236 783 q 235 783 236 783 q 226 779 233 782 "},"s":{"ha":461,"x_min":54,"x_max":418,"o":"m 218 240 q 206 260 214 253 q 190 275 199 267 q 174 298 182 283 q 158 340 165 313 q 151 371 156 353 q 142 408 146 389 q 139 445 139 426 q 144 476 139 464 q 119 472 129 478 q 103 454 110 465 q 90 431 97 447 q 79 406 82 415 q 72 351 69 381 q 89 303 74 322 q 115 265 103 285 q 164 232 128 246 q 254 217 214 213 q 338 246 294 222 q 373 277 361 260 q 396 319 385 294 q 406 345 401 333 q 414 374 411 357 q 409 435 418 404 q 393 499 400 465 q 379 559 385 538 q 370 592 374 581 q 364 608 367 604 q 358 617 361 613 q 349 628 354 621 q 336 654 343 636 l 283 738 q 247 783 263 761 q 219 826 232 804 q 193 874 206 849 q 168 928 181 899 q 158 958 164 939 q 147 997 151 976 q 140 1036 142 1017 q 140 1068 138 1056 q 144 1081 142 1072 q 149 1099 146 1090 q 153 1117 151 1108 q 157 1126 156 1125 q 178 1141 161 1133 q 206 1146 194 1149 q 241 1115 221 1140 q 269 1063 261 1089 q 275 1031 272 1049 q 282 1003 278 1013 q 287 994 286 996 q 289 993 288 993 q 292 992 290 993 q 299 983 294 990 q 303 974 303 976 q 303 971 303 972 q 304 968 303 969 q 313 961 306 967 q 337 992 331 967 q 344 1048 343 1017 q 344 1108 346 1079 q 342 1151 342 1138 q 260 1169 303 1167 q 174 1165 218 1172 q 149 1160 157 1163 q 136 1153 140 1157 q 129 1142 132 1149 q 118 1124 126 1135 q 91 1087 106 1104 q 67 1046 76 1069 q 56 987 57 1022 q 67 896 54 951 q 76 857 71 875 q 92 824 81 839 q 105 802 101 808 q 110 790 108 796 q 115 778 113 785 q 129 757 118 772 q 149 727 140 742 q 168 697 158 713 q 189 669 179 682 q 210 640 199 657 q 235 603 225 615 q 252 583 244 592 q 266 560 260 574 q 281 515 272 546 q 295 468 286 494 q 310 413 304 442 q 315 358 315 385 q 304 310 315 331 q 299 299 300 303 q 297 291 297 294 q 294 283 296 288 q 292 271 293 279 q 285 251 288 253 q 267 244 283 250 q 244 240 256 242 q 218 240 232 238 "},"t":{"ha":608,"x_min":-11,"x_max":614,"o":"m -4 1251 q -8 1235 -7 1240 q -10 1226 -10 1231 q -10 1216 -11 1222 q -7 1196 -10 1210 q -3 1167 -4 1181 q 1 1138 -1 1153 q 5 1109 4 1122 q 13 1081 6 1096 q 42 1058 19 1058 q 57 1065 54 1058 q 60 1085 60 1071 q 65 1119 61 1099 q 81 1168 68 1139 q 108 1175 82 1172 q 167 1180 135 1178 q 226 1183 199 1182 q 257 1185 253 1185 l 274 808 q 270 725 271 776 q 270 619 269 674 q 272 515 271 564 q 275 436 272 465 q 275 374 278 399 q 265 333 272 350 q 244 302 257 317 q 217 268 232 288 q 203 252 206 256 q 218 244 201 249 q 240 247 225 243 q 273 255 254 250 q 314 264 292 260 q 361 268 336 268 q 382 265 369 268 q 408 258 394 263 q 433 250 421 254 q 454 243 446 246 q 476 235 464 239 q 507 239 489 232 q 490 275 506 257 q 464 304 475 293 q 421 337 435 329 q 401 351 407 344 q 395 372 396 357 q 392 425 394 386 q 384 493 389 460 q 382 556 379 526 q 384 589 383 569 q 385 629 385 608 q 383 670 385 650 q 381 704 382 690 l 376 779 q 378 797 376 792 q 382 814 381 803 q 378 876 385 842 q 371 942 372 910 q 369 999 369 967 q 367 1067 369 1031 q 368 1131 364 1099 q 371 1192 372 1164 l 522 1185 q 539 1147 531 1174 q 550 1103 547 1119 q 552 1082 551 1088 q 553 1075 553 1076 q 556 1073 554 1074 q 561 1064 557 1072 q 565 1056 564 1057 q 567 1056 567 1056 q 567 1054 567 1056 q 567 1044 567 1053 q 567 1032 568 1033 q 569 1021 567 1031 q 584 1022 574 1021 q 597 1047 594 1024 q 597 1072 599 1060 q 597 1101 594 1085 q 610 1202 607 1169 q 610 1247 614 1235 q 592 1256 606 1258 q 558 1253 579 1254 q 499 1251 531 1250 q 436 1250 467 1253 q 367 1249 394 1247 q 316 1251 339 1250 q 269 1253 293 1253 q 215 1250 246 1254 q 181 1249 194 1247 q 152 1251 168 1250 q 111 1251 136 1253 q 43 1244 86 1250 q 23 1244 29 1243 q 14 1246 17 1244 q 8 1249 11 1247 q -4 1251 4 1250 "},"u":{"ha":735,"x_min":36,"x_max":707,"o":"m 454 1185 q 485 1172 471 1172 q 510 1158 500 1171 q 524 1110 519 1146 q 524 992 528 1075 q 526 944 522 964 q 533 899 529 924 q 536 840 536 875 q 528 749 536 804 q 521 653 521 708 q 519 544 521 597 q 511 449 518 492 q 483 389 504 406 q 456 371 471 379 q 424 358 440 363 q 390 356 407 354 q 357 367 374 357 l 340 376 q 324 387 329 383 q 316 394 319 390 q 310 401 313 397 q 300 415 307 406 q 269 469 279 446 q 254 515 258 492 q 249 564 250 538 q 246 631 247 590 q 241 694 244 657 q 231 754 238 731 q 226 803 228 767 q 224 882 225 840 q 223 960 224 924 q 221 1006 222 996 q 220 1009 221 1008 q 221 1014 219 1010 q 224 1051 222 1033 q 242 1083 226 1069 q 263 1099 251 1092 q 274 1110 274 1108 q 276 1119 275 1113 q 231 1126 265 1125 q 156 1125 196 1128 q 81 1117 115 1122 q 36 1108 46 1113 q 44 1097 40 1100 q 54 1093 49 1094 q 65 1089 60 1092 q 79 1078 71 1086 q 112 1038 101 1053 q 125 1011 122 1024 q 127 983 128 999 q 126 942 126 968 q 131 864 128 900 q 133 786 135 828 l 153 496 q 201 385 167 429 q 297 318 235 340 q 360 299 326 307 q 427 289 393 290 q 494 294 461 288 q 558 319 528 300 q 600 367 586 336 q 619 435 614 397 q 622 517 624 474 q 617 603 621 560 q 611 685 614 646 q 611 753 608 724 q 616 790 614 772 q 618 824 618 808 q 615 894 615 854 q 614 972 615 935 q 613 1022 614 994 q 614 1076 611 1049 q 626 1126 617 1103 q 656 1164 635 1149 q 676 1175 668 1174 q 691 1178 685 1176 q 701 1182 697 1179 q 707 1196 704 1185 q 674 1201 697 1203 q 622 1197 651 1200 q 563 1192 593 1194 q 508 1193 532 1189 q 475 1198 492 1196 q 454 1185 458 1200 "},"v":{"ha":604,"x_min":-15,"x_max":626,"o":"m -15 1250 q 5 1238 -10 1242 q 36 1228 19 1233 q 68 1215 53 1224 q 90 1186 83 1206 q 99 1153 96 1172 q 106 1115 103 1135 q 111 1076 108 1096 q 117 1040 114 1057 q 135 973 124 999 q 160 913 146 947 q 177 842 172 878 q 193 769 182 806 l 226 632 q 240 558 233 596 q 257 486 247 521 q 265 453 261 471 q 274 421 269 436 q 281 383 279 401 q 288 346 283 365 q 296 313 292 332 q 304 273 300 293 q 313 235 308 253 q 322 204 318 217 q 352 215 349 206 q 361 246 356 224 q 391 348 372 293 q 419 447 410 403 q 426 492 422 461 q 435 556 431 522 q 443 618 439 589 q 450 660 447 647 q 463 718 456 682 q 477 792 469 754 q 492 866 485 831 q 506 925 499 901 q 514 968 510 940 q 522 1026 518 996 q 533 1085 526 1057 q 549 1132 539 1114 q 578 1181 568 1167 q 594 1201 588 1196 q 608 1210 601 1207 q 626 1224 614 1213 q 604 1237 617 1240 q 569 1231 592 1233 q 531 1227 549 1228 q 492 1224 514 1226 q 438 1218 458 1221 q 388 1204 417 1215 q 375 1199 379 1200 q 369 1197 371 1199 q 365 1194 367 1196 q 364 1185 364 1192 q 381 1177 372 1178 q 398 1176 389 1176 q 416 1174 407 1175 q 435 1167 425 1172 q 445 1094 446 1140 q 438 998 444 1049 q 424 899 432 947 q 414 821 417 851 q 408 765 410 782 q 405 734 407 747 q 399 705 403 721 q 385 653 394 689 q 372 610 378 629 q 363 574 367 592 q 356 535 358 556 q 351 489 353 515 q 340 511 347 493 q 327 551 333 529 q 315 594 321 572 q 306 628 310 615 l 236 924 q 226 960 232 947 q 215 994 221 972 l 181 1146 q 183 1202 172 1185 q 213 1227 193 1219 q 256 1239 232 1235 q 296 1256 279 1243 q 310 1275 315 1268 q 291 1284 306 1282 q 257 1285 276 1286 q 228 1285 238 1285 q 185 1279 199 1285 q 150 1271 172 1274 q 111 1267 135 1268 q 63 1265 88 1267 q 17 1260 39 1264 q -15 1250 -4 1257 "},"z":{"ha":601,"x_min":61,"x_max":571,"o":"m 106 1032 q 122 1028 118 1029 q 128 1033 126 1026 q 131 1055 129 1039 q 142 1101 133 1071 q 151 1137 147 1124 q 167 1167 154 1150 l 174 1176 q 195 1192 181 1185 q 228 1203 210 1199 q 264 1210 246 1208 q 296 1207 282 1211 q 323 1203 311 1203 q 347 1206 335 1204 q 369 1208 358 1207 q 394 1206 381 1210 l 397 1204 q 392 1182 399 1203 q 376 1133 386 1161 q 356 1074 367 1104 q 336 1024 344 1043 l 269 842 q 268 839 269 842 l 132 406 q 122 361 128 381 q 110 324 117 342 q 95 287 103 306 q 78 244 88 268 q 76 241 76 242 q 74 240 75 240 q 74 238 74 240 q 74 229 74 236 q 74 216 74 219 q 74 213 74 213 q 74 213 74 213 q 76 211 75 214 q 108 199 85 201 q 160 199 132 197 q 215 206 188 201 q 260 215 243 211 q 306 226 285 221 q 347 234 326 231 q 389 240 367 238 q 439 243 411 242 q 470 249 461 246 q 500 251 479 251 q 551 253 538 251 q 568 260 565 254 q 567 277 571 265 q 565 310 564 289 q 567 345 568 331 q 567 378 565 360 q 567 399 567 386 q 565 426 568 413 q 555 453 563 439 q 531 478 547 467 l 521 457 q 479 384 506 413 q 421 331 453 356 q 381 308 397 314 q 349 301 365 301 q 316 300 333 300 q 272 294 299 300 q 244 290 257 292 q 214 294 231 289 q 222 314 215 296 q 237 353 229 332 q 251 394 244 375 q 258 415 258 413 q 260 430 261 428 q 263 446 258 432 q 267 463 267 461 q 269 463 268 465 q 271 461 269 461 q 276 474 272 461 q 281 488 281 482 q 281 501 281 493 q 288 522 282 508 q 307 561 293 536 l 382 781 q 385 797 383 790 q 390 808 386 803 q 397 820 393 814 q 406 839 400 826 q 424 889 419 868 q 435 928 428 910 q 441 944 438 936 q 447 958 444 951 l 488 1090 q 492 1120 493 1115 q 490 1128 490 1125 q 492 1142 489 1132 q 508 1189 496 1153 q 528 1236 517 1211 q 543 1282 539 1261 q 469 1294 522 1292 q 356 1294 417 1296 q 238 1290 294 1293 q 154 1286 182 1286 q 129 1287 140 1286 q 104 1288 118 1288 q 70 1285 79 1288 q 63 1277 61 1282 q 72 1265 64 1272 q 86 1249 79 1257 q 99 1208 99 1235 q 96 1151 99 1182 q 93 1089 93 1121 q 106 1032 93 1057 "},"_":{"ha":733,"x_min":49,"x_max":697,"o":"m 660 35 q 669 44 669 43 q 667 47 668 46 q 672 52 667 49 q 697 68 676 56 q 690 106 697 92 q 684 116 686 114 q 679 119 682 118 q 673 124 676 121 q 663 139 669 128 q 631 138 646 140 q 601 133 617 135 q 566 130 585 131 q 522 133 547 129 q 442 146 468 142 q 403 151 415 150 q 385 152 390 153 q 368 149 379 151 q 332 146 357 147 q 257 144 307 144 q 221 144 244 144 q 172 142 197 143 q 124 138 146 140 q 93 129 101 135 l 83 124 q 76 121 82 124 q 69 117 71 118 l 54 93 q 51 81 51 85 q 50 68 51 76 q 49 31 49 49 q 65 13 49 13 q 76 17 72 14 q 89 22 79 19 q 107 25 96 25 q 125 28 118 25 q 165 38 157 35 q 170 42 172 40 q 164 43 168 43 q 169 43 160 43 q 208 42 178 43 q 303 43 238 42 q 333 44 318 42 q 368 47 349 47 q 401 44 386 47 q 436 42 415 40 q 494 42 468 43 q 545 39 519 40 q 598 36 571 38 q 660 35 625 35 "},"-":{"ha":554,"x_min":63,"x_max":488,"o":"m 450 628 q 459 638 460 636 q 458 640 458 639 q 462 645 457 642 q 488 661 467 649 q 481 699 488 685 q 474 709 476 707 q 469 713 472 711 q 463 717 467 714 q 453 732 460 721 q 422 731 436 733 q 391 726 407 728 q 356 723 375 724 q 313 726 338 722 q 258 733 275 732 q 226 730 242 733 q 183 722 210 726 q 97 717 157 718 q 90 714 96 717 q 83 710 85 711 l 68 686 q 65 674 65 678 q 64 661 65 669 q 63 624 63 642 q 79 606 63 606 q 90 610 86 607 q 103 615 93 613 q 121 618 110 618 q 139 621 132 618 q 119 620 129 618 q 114 625 110 622 q 143 631 118 628 q 226 635 168 633 q 284 634 258 635 q 335 631 310 633 q 388 628 361 629 q 450 628 415 628 "},"":{"ha":728,"x_min":40,"x_max":667,"o":"m 582 731 q 591 740 592 739 q 590 743 590 742 q 594 748 589 744 q 619 764 599 751 q 613 801 619 788 q 606 812 608 810 q 601 815 604 814 q 595 820 599 817 q 585 835 592 824 q 503 833 538 835 q 440 830 468 832 q 388 826 413 828 q 335 825 363 825 q 340 847 338 839 q 358 906 346 868 q 385 982 369 943 q 418 1054 401 1021 q 449 1101 435 1088 q 474 1114 461 1114 q 497 1106 486 1114 q 515 1087 507 1099 q 528 1065 524 1075 q 546 1017 538 1044 q 567 974 554 989 q 584 961 571 969 q 612 947 597 953 q 638 941 626 942 q 653 950 650 940 q 648 1002 657 971 q 624 1063 639 1033 q 597 1115 610 1093 q 579 1140 583 1138 q 531 1163 560 1154 q 479 1171 503 1171 q 385 1144 425 1172 q 317 1074 346 1117 q 267 981 288 1032 q 233 888 247 931 q 224 856 228 871 q 218 826 221 842 q 144 822 183 825 q 90 811 104 818 l 81 806 q 74 803 79 806 q 67 799 68 800 l 51 775 q 49 763 49 767 q 47 750 49 758 q 46 713 46 731 q 63 694 46 694 q 73 699 69 696 q 86 704 76 701 q 104 707 93 707 q 122 710 115 707 q 167 720 160 717 q 172 724 174 724 q 172 724 171 725 q 203 724 174 724 q 201 665 201 697 q 201 599 201 632 q 133 594 168 597 q 85 585 97 592 l 75 579 q 68 576 74 579 q 61 572 63 574 l 46 549 q 43 536 43 540 q 42 524 43 532 q 40 486 40 504 q 57 468 40 468 q 67 472 64 469 q 81 478 71 475 q 99 481 88 481 q 117 483 110 481 q 153 491 143 488 q 166 496 164 494 q 167 498 168 497 q 166 499 165 499 q 174 498 167 499 q 204 497 182 497 q 206 460 206 475 q 210 438 207 444 q 238 335 221 379 q 281 246 256 290 q 308 214 288 233 q 351 176 328 194 q 395 142 374 157 q 429 125 417 128 q 529 125 489 110 q 613 179 569 140 q 637 204 629 194 q 647 223 644 214 q 652 242 650 232 q 660 269 654 253 l 663 274 q 665 292 664 279 q 667 319 667 306 q 665 344 667 332 q 658 364 663 357 q 628 349 638 361 q 615 318 619 336 q 607 278 611 300 q 590 238 603 257 q 574 222 585 229 q 551 208 564 214 q 526 197 539 201 q 504 194 514 193 q 458 210 478 197 q 422 243 438 224 q 393 285 406 263 q 372 331 381 308 q 368 345 368 340 q 368 354 368 350 q 369 364 368 358 q 368 382 369 369 q 361 407 367 394 q 350 432 356 419 q 340 458 344 444 q 336 486 336 471 q 335 492 336 489 q 335 503 335 496 q 397 501 361 503 q 467 495 432 499 q 531 490 501 492 q 576 490 560 488 q 585 500 586 499 q 584 503 585 501 q 588 508 583 504 q 614 524 593 511 q 607 561 614 547 q 601 572 603 569 q 596 575 599 574 q 590 580 593 576 q 579 594 586 583 q 496 595 531 594 q 433 597 461 596 q 381 599 406 599 q 326 600 356 600 q 323 662 324 629 q 324 728 322 694 q 386 729 349 729 q 461 729 424 729 q 531 728 499 729 q 582 731 564 728 "},"":{"ha":704,"x_min":54,"x_max":665,"o":"m 54 1403 q 56 1393 54 1396 q 58 1390 57 1390 q 61 1391 60 1390 q 63 1390 63 1392 q 67 1385 67 1385 q 67 1385 68 1385 q 63 1383 65 1385 q 60 1371 61 1381 q 131 1337 107 1363 q 165 1275 154 1311 q 177 1197 175 1239 q 182 1114 179 1154 q 183 1022 185 1069 q 178 928 181 975 q 173 644 172 785 q 171 363 174 504 q 172 319 171 342 q 176 275 174 297 q 178 231 178 253 q 174 192 178 210 q 155 139 165 157 q 134 110 144 121 q 115 90 124 99 q 99 67 106 82 q 127 71 119 68 q 140 78 135 74 q 153 90 144 82 q 183 110 161 97 l 208 122 l 211 122 q 219 125 221 125 q 232 126 218 125 q 256 124 238 126 q 297 117 275 121 q 339 108 319 113 q 365 99 358 103 q 371 94 367 99 l 379 88 q 391 83 388 83 q 394 83 394 82 q 394 86 394 85 q 394 89 393 88 q 394 108 400 94 q 376 138 388 122 q 351 170 364 154 q 332 197 338 186 q 321 241 324 211 q 317 305 318 271 q 315 372 315 339 q 314 429 315 406 q 313 443 313 438 q 311 458 314 449 q 339 435 322 451 q 372 413 356 419 q 460 395 419 393 q 534 416 501 397 q 592 468 567 435 q 633 546 617 501 q 653 614 646 576 q 663 690 660 651 q 665 767 665 729 q 664 840 665 806 q 660 881 663 857 q 653 931 657 906 q 644 981 649 957 q 633 1021 639 1004 l 603 1097 q 587 1133 593 1119 q 563 1163 581 1147 q 447 1199 504 1210 q 342 1129 389 1188 q 320 1099 329 1114 q 299 1065 311 1083 l 299 1067 l 297 1106 q 298 1134 297 1122 q 301 1163 299 1146 q 306 1213 304 1183 q 313 1270 308 1242 q 323 1322 317 1299 q 340 1354 329 1344 l 347 1358 q 350 1361 347 1361 l 378 1379 q 399 1397 388 1385 q 414 1421 411 1408 q 394 1424 407 1424 q 365 1424 381 1425 q 334 1420 350 1422 q 307 1414 318 1418 q 303 1413 306 1413 l 196 1408 q 181 1408 186 1408 q 173 1406 176 1407 q 166 1404 169 1406 q 154 1403 163 1403 q 104 1402 131 1400 q 54 1403 78 1404 m 403 1101 q 433 1097 419 1106 q 456 1076 446 1089 q 475 1047 467 1063 q 489 1022 483 1032 q 502 976 496 1008 q 513 906 508 943 q 519 835 517 869 q 522 785 522 801 q 521 740 522 765 q 517 688 519 715 q 510 635 514 661 q 504 586 507 608 q 494 542 501 565 q 475 498 488 518 q 446 465 463 478 q 408 453 429 451 q 340 472 360 456 q 313 513 319 488 q 308 569 307 538 q 306 635 310 600 q 303 699 303 667 q 300 778 303 731 q 298 802 297 796 q 301 825 299 808 q 302 843 303 838 q 301 851 301 849 q 299 857 300 854 q 297 867 297 860 q 301 919 299 893 q 310 967 303 944 q 326 1010 318 994 q 347 1047 335 1026 q 369 1081 358 1065 q 403 1101 379 1096 "},"":{"ha":854,"x_min":72,"x_max":814,"o":"m 72 1425 q 99 1397 86 1403 q 126 1383 113 1390 q 153 1360 139 1376 q 183 1304 167 1344 q 195 1261 193 1281 q 198 1221 197 1242 q 199 1175 199 1200 q 204 1115 199 1150 q 210 1066 207 1094 q 215 1008 213 1038 q 219 952 217 979 q 221 904 221 925 q 223 799 221 850 q 219 693 225 749 l 221 558 q 219 544 221 551 q 216 526 217 536 q 216 503 215 517 q 222 469 217 490 q 223 467 222 468 q 224 463 224 467 q 222 453 222 454 q 222 454 222 453 q 222 456 222 456 q 217 449 221 457 q 215 445 217 447 q 214 442 214 443 l 213 351 q 210 326 213 332 q 208 300 207 319 q 210 275 210 283 q 210 260 210 267 q 210 243 210 253 q 213 214 210 233 q 212 191 214 200 q 207 172 210 182 q 203 150 204 163 q 206 119 201 138 q 203 93 208 100 q 190 79 199 86 q 169 63 178 68 q 153 55 161 58 q 138 48 146 51 q 117 36 129 44 q 151 26 133 21 q 176 36 168 32 q 179 39 176 36 q 233 60 201 51 q 300 71 265 68 q 370 72 335 74 q 435 60 406 69 q 460 54 453 54 q 471 56 468 54 q 473 62 474 58 q 472 67 472 65 q 463 79 468 78 q 442 88 457 81 q 394 125 417 100 q 367 178 371 150 q 367 203 365 193 q 369 225 368 214 q 368 266 372 242 q 367 318 364 290 q 367 372 368 344 q 363 466 363 413 q 363 576 363 519 q 362 687 363 632 q 357 786 361 742 q 354 835 356 801 q 351 910 353 868 q 348 1000 349 953 q 347 1089 347 1047 q 347 1162 346 1131 q 350 1206 347 1193 q 358 1250 354 1229 q 365 1296 363 1271 q 371 1316 368 1307 q 378 1335 374 1325 q 389 1351 379 1338 q 412 1381 399 1365 q 438 1409 425 1396 q 460 1422 451 1422 q 503 1409 488 1425 q 526 1376 518 1393 q 535 1302 539 1350 q 517 1201 531 1254 q 488 1098 504 1147 q 460 1019 471 1049 q 435 910 435 953 q 449 833 435 867 q 486 767 464 799 q 525 692 508 736 q 542 653 533 671 q 557 617 550 636 q 572 577 565 596 q 586 538 579 558 q 614 460 596 507 q 644 364 632 414 q 658 267 657 314 q 639 189 660 219 q 629 176 633 182 q 617 165 625 169 q 599 157 610 160 q 568 154 588 154 q 540 154 556 153 q 511 156 524 156 q 489 157 496 157 q 479 138 482 157 q 502 126 488 131 q 532 117 517 121 q 559 113 547 114 q 575 110 571 111 q 610 100 593 106 q 644 92 628 94 q 678 93 661 90 q 713 108 696 96 l 738 129 q 762 156 753 144 q 778 178 771 167 q 790 203 785 189 q 801 236 794 217 q 804 329 814 271 q 776 448 794 388 q 738 563 758 508 q 704 646 717 617 q 690 674 697 661 q 676 701 683 686 q 661 732 668 719 q 647 760 654 744 q 620 819 633 789 q 593 881 607 849 q 575 958 576 921 q 582 1031 574 996 q 606 1101 590 1067 q 638 1168 621 1135 q 653 1201 646 1185 q 667 1233 660 1217 q 679 1314 681 1272 q 661 1390 678 1356 q 613 1445 644 1424 q 535 1467 581 1467 q 494 1463 510 1467 q 460 1457 479 1460 q 440 1457 449 1456 q 419 1456 431 1458 q 400 1451 404 1454 q 382 1446 396 1449 l 231 1429 q 187 1420 206 1422 q 151 1419 168 1418 q 115 1422 133 1419 q 72 1425 97 1424 "},"":{"ha":919,"x_min":22,"x_max":878,"o":"m 22 1418 q 38 1390 25 1399 q 75 1369 51 1382 q 117 1345 104 1353 q 135 1326 131 1338 q 139 1294 139 1315 q 142 1232 139 1274 q 144 1204 143 1214 q 146 1185 146 1194 q 145 1165 146 1176 q 140 1135 144 1154 q 136 1093 138 1118 q 134 1042 135 1068 q 134 993 133 1017 q 135 956 135 969 q 134 888 136 924 q 129 816 132 853 q 124 742 126 779 q 124 669 122 704 q 124 650 124 663 q 126 624 125 638 q 127 597 126 610 q 128 575 128 583 q 125 526 128 551 q 126 476 122 500 q 131 457 128 461 q 136 435 133 453 q 146 313 140 376 q 151 190 151 250 q 146 163 151 178 q 133 132 140 147 q 116 103 125 117 q 100 82 107 90 q 89 71 93 74 q 82 67 85 68 q 77 63 79 65 q 72 51 75 60 q 72 49 72 51 q 76 46 72 47 q 86 46 79 44 q 107 53 93 47 q 150 68 135 64 q 177 74 165 72 q 202 75 189 75 q 239 78 215 75 q 274 82 263 81 q 296 83 286 83 q 319 78 306 82 q 361 64 332 74 q 379 58 372 61 q 400 61 386 56 q 376 94 393 83 q 342 114 360 104 q 308 137 324 124 q 286 176 292 150 l 264 788 l 356 815 q 379 784 374 799 q 396 746 385 769 q 405 717 404 729 q 407 697 406 704 q 416 686 408 689 q 446 685 424 683 q 438 779 443 731 q 438 874 433 828 q 440 926 440 906 q 436 978 439 947 q 438 997 436 993 q 446 1015 440 1001 q 454 1035 451 1026 q 454 1058 457 1043 q 424 1053 442 1060 q 406 1046 407 1047 q 395 1009 399 1029 q 388 969 392 989 q 376 933 383 950 q 356 903 368 915 l 279 896 q 282 1017 283 963 q 278 1135 281 1072 q 278 1158 278 1144 q 278 1185 279 1172 q 276 1215 275 1207 q 278 1231 276 1224 q 280 1248 279 1238 q 279 1285 281 1258 q 277 1306 279 1296 q 278 1324 275 1315 q 281 1335 279 1332 q 292 1338 283 1338 q 320 1340 301 1339 q 375 1344 339 1340 q 392 1346 386 1346 q 401 1345 397 1346 q 408 1343 404 1344 q 418 1340 411 1342 q 453 1340 431 1338 q 504 1346 476 1342 q 563 1353 532 1350 q 622 1357 594 1357 q 639 1336 632 1349 q 664 1253 658 1292 q 668 1178 669 1215 q 662 1103 667 1142 q 656 1021 657 1064 q 657 966 656 1003 q 660 890 658 929 q 664 815 663 850 q 664 763 665 779 q 660 723 663 747 q 658 681 657 699 l 671 343 q 656 314 668 325 q 630 294 644 303 q 602 275 615 285 q 583 249 589 265 q 610 255 596 249 q 641 269 625 261 q 674 285 657 278 q 710 297 692 293 q 766 299 729 301 q 836 294 803 296 q 851 294 850 294 q 861 306 851 294 q 851 317 857 314 q 840 324 846 321 q 827 331 833 326 q 814 346 821 335 q 801 385 804 361 q 797 435 797 408 q 797 487 796 461 q 797 533 797 513 l 792 724 q 796 796 799 763 q 788 874 793 829 q 783 955 782 911 q 785 1040 783 999 q 784 1071 786 1058 q 781 1104 782 1083 q 778 1178 778 1133 q 775 1271 779 1224 q 781 1328 772 1299 q 801 1382 790 1358 q 808 1396 806 1389 q 817 1408 814 1404 q 825 1413 821 1411 q 835 1416 829 1414 q 851 1425 842 1418 q 866 1434 861 1432 q 873 1438 871 1436 q 875 1440 875 1439 q 878 1446 875 1442 q 842 1456 867 1454 q 801 1456 817 1458 q 765 1449 783 1453 q 731 1443 746 1446 q 660 1442 703 1447 q 575 1431 618 1438 q 547 1433 560 1432 q 529 1432 535 1433 l 529 1424 q 510 1420 518 1421 q 493 1418 501 1419 l 110 1401 q 83 1405 93 1401 q 65 1411 74 1408 q 47 1417 57 1414 q 22 1418 38 1419 "},"":{"ha":922,"x_min":-76,"x_max":861,"o":"m 436 1463 l 372 1339 q 355 1294 363 1317 q 338 1250 347 1272 q 331 1226 333 1238 q 324 1201 328 1214 q 317 1188 319 1190 q 313 1183 315 1185 q 309 1176 311 1181 q 303 1160 307 1172 q 285 1106 296 1138 q 262 1040 274 1074 q 240 976 250 1007 q 226 925 231 946 q 214 876 221 903 q 199 821 207 849 q 186 768 192 793 q 178 725 181 743 q 158 620 171 672 q 132 522 144 568 q 115 460 121 485 q 106 415 110 436 q 97 373 101 394 q 86 319 93 351 q 82 292 83 306 q 78 271 81 279 q 76 263 76 267 q 75 253 75 258 l 72 244 q 65 208 64 219 q 61 179 65 197 q 47 142 57 163 q 22 103 36 122 q -10 66 7 83 q -46 39 -28 49 q -67 26 -61 29 q -75 21 -74 22 q -76 18 -76 19 q -75 11 -75 17 q -45 6 -58 0 q -13 23 -32 13 q 35 42 6 33 q 114 42 64 50 q 169 35 143 36 q 217 31 194 33 q 243 26 229 29 q 271 19 257 22 q 297 16 285 17 q 317 19 310 15 q 313 30 314 28 q 297 39 313 32 l 290 42 q 265 57 278 47 q 242 78 253 67 q 223 103 231 90 q 214 132 215 117 q 215 210 211 158 q 226 319 219 263 q 241 428 233 376 q 253 508 249 481 q 342 516 296 518 q 433 515 388 514 q 432 471 432 504 q 433 400 432 438 q 435 331 435 363 q 438 294 436 300 q 442 253 442 275 q 428 214 443 232 q 386 183 406 190 q 360 164 367 176 q 383 160 368 160 q 414 164 397 161 q 448 170 431 167 q 478 174 465 174 l 646 168 q 668 165 660 165 q 684 164 676 164 q 699 165 692 164 q 722 164 707 165 q 758 163 740 163 q 794 163 776 164 q 827 159 819 163 q 847 143 835 156 q 849 151 849 149 q 850 153 850 153 q 852 153 850 153 q 861 158 854 154 l 853 315 q 851 347 853 328 q 845 387 849 367 q 836 424 842 407 q 825 451 831 442 q 806 442 811 449 q 801 422 801 435 q 801 392 800 410 q 801 349 803 374 q 790 276 799 303 q 763 237 782 249 q 711 225 743 225 q 631 232 679 225 q 582 262 593 238 q 567 319 571 286 q 550 452 558 383 q 544 581 542 521 l 531 856 q 569 860 556 858 q 592 855 583 861 q 608 830 601 849 q 626 772 615 811 q 630 758 628 767 q 638 742 632 750 q 651 730 643 735 q 675 728 660 725 q 694 740 694 731 q 685 769 694 749 q 664 825 676 790 q 647 914 651 860 q 642 969 644 942 q 639 1024 639 997 q 641 1045 639 1032 q 643 1070 643 1058 q 638 1090 643 1082 q 621 1099 633 1099 q 613 1051 610 1082 q 613 988 615 1019 q 594 931 611 956 q 528 901 578 906 q 526 1008 531 958 q 518 1106 521 1057 q 520 1163 517 1138 q 515 1221 524 1188 q 512 1270 510 1243 q 514 1324 514 1297 q 524 1372 514 1358 q 567 1390 535 1386 q 624 1390 594 1394 q 674 1374 653 1385 q 694 1360 686 1367 q 707 1344 701 1353 q 717 1327 713 1336 q 729 1306 722 1318 q 750 1267 744 1281 q 758 1247 756 1254 q 760 1234 760 1239 q 768 1221 761 1229 q 779 1222 776 1222 q 783 1224 782 1222 q 784 1227 783 1225 q 790 1235 785 1229 l 806 1246 q 799 1281 803 1265 q 794 1310 796 1296 q 790 1341 792 1325 q 786 1376 788 1357 q 783 1415 783 1397 q 779 1454 782 1433 q 764 1483 775 1479 q 732 1483 753 1488 q 678 1469 711 1478 q 597 1458 644 1460 q 556 1458 578 1458 q 515 1457 535 1457 q 474 1459 489 1457 q 436 1463 458 1461 m 249 571 q 261 644 251 611 q 276 718 271 678 q 284 757 279 740 q 294 790 289 774 q 306 822 300 806 q 315 857 311 838 q 323 890 317 867 q 337 941 329 913 q 353 1001 344 969 q 370 1060 363 1033 q 385 1107 378 1088 q 394 1131 392 1126 q 399 1106 397 1124 q 402 1068 401 1089 q 403 1027 403 1047 q 404 996 404 1007 q 413 925 406 958 q 416 858 419 889 q 411 793 413 828 l 421 585 q 380 580 399 583 q 338 576 361 576 q 292 576 313 576 q 249 571 272 576 "},"":{"ha":883,"x_min":3,"x_max":840,"o":"m 439 908 q 394 910 414 906 q 350 913 374 914 q 306 913 322 911 q 263 915 289 915 l 243 850 q 239 826 236 831 q 260 824 242 821 q 316 834 279 828 q 414 842 353 840 l 353 565 q 344 542 350 557 q 336 514 339 528 q 309 408 321 464 q 281 300 297 353 q 240 200 265 247 q 172 118 215 153 q 150 103 161 108 q 122 97 139 97 q 103 99 110 97 q 93 106 97 101 q 85 115 89 110 q 75 124 82 119 q 78 165 75 144 q 88 201 81 185 q 110 228 96 217 q 147 242 124 239 q 183 247 176 244 q 193 261 190 249 q 167 269 188 264 q 121 280 146 275 q 73 288 96 285 q 42 290 50 292 q 31 252 33 271 q 24 210 28 233 q 11 172 19 189 q 11 135 3 154 q 74 69 31 86 q 165 53 118 53 q 249 64 211 53 q 296 82 288 75 q 340 125 322 104 q 370 168 358 146 q 390 216 382 190 q 407 276 399 242 q 413 298 411 289 q 417 318 414 307 q 423 338 419 329 q 429 358 426 346 q 448 440 440 399 q 465 524 456 482 q 499 647 481 592 q 532 764 518 703 q 535 782 533 769 q 541 808 538 794 q 547 833 544 822 q 551 847 550 844 q 578 851 560 850 q 616 853 596 853 q 656 854 636 854 q 689 854 676 854 q 700 853 697 854 q 706 850 703 851 q 713 847 708 849 q 729 846 718 846 q 733 872 731 861 q 739 899 736 882 q 743 920 740 915 q 747 927 746 925 q 750 931 749 929 q 751 942 751 933 q 733 946 743 947 q 713 939 722 944 q 696 928 704 933 q 682 919 688 922 q 660 914 675 915 q 629 912 646 913 q 596 910 613 911 q 569 910 579 910 q 583 967 574 946 q 604 1017 593 989 q 622 1060 615 1044 q 633 1090 628 1076 q 646 1117 639 1103 q 668 1156 653 1131 l 747 1253 q 750 1256 747 1253 q 755 1258 756 1258 q 764 1263 754 1258 q 760 1240 764 1256 q 753 1206 757 1224 q 744 1170 749 1188 q 736 1144 739 1153 q 715 1095 724 1108 q 699 1078 706 1082 q 688 1072 692 1074 q 683 1056 683 1069 q 701 1050 697 1049 q 711 1056 704 1051 q 713 1056 713 1056 q 714 1057 713 1057 l 753 1086 q 799 1099 772 1097 q 840 1113 825 1101 q 836 1129 839 1115 q 831 1160 833 1143 q 826 1192 829 1176 q 822 1215 824 1208 q 813 1243 818 1231 q 796 1267 807 1256 q 794 1269 796 1267 q 743 1308 769 1294 q 672 1311 717 1322 q 642 1303 654 1307 q 622 1294 631 1299 q 606 1282 614 1289 q 588 1267 597 1275 q 523 1179 547 1232 q 483 1072 499 1126 q 459 972 468 1018 q 439 908 450 926 "},"":{"ha":844,"x_min":58,"x_max":786,"o":"m 785 188 l 783 218 q 785 257 785 228 q 786 317 786 286 q 784 375 786 349 q 776 408 782 401 q 775 414 776 411 q 760 413 771 418 q 751 404 754 410 q 747 394 749 399 q 744 374 743 383 q 744 349 746 364 q 736 300 743 324 q 722 258 729 276 l 569 260 q 562 381 564 322 q 563 501 560 439 q 562 516 563 511 q 560 525 561 521 q 557 534 558 529 q 556 549 556 539 q 556 595 556 565 q 555 655 556 625 q 554 708 554 685 q 557 735 554 731 l 622 765 q 637 729 633 740 q 642 710 640 718 q 644 694 643 703 q 650 665 644 685 q 653 647 653 656 q 658 629 654 639 l 683 628 q 688 688 688 671 q 688 716 689 706 q 685 741 686 726 q 682 793 683 756 q 683 831 682 807 q 683 881 683 856 q 683 926 683 906 q 679 957 682 947 l 661 963 q 653 952 653 953 q 650 938 653 951 q 646 920 647 928 q 643 903 644 913 q 640 886 640 896 q 638 867 639 876 l 631 842 q 630 840 631 840 q 629 839 629 840 l 629 838 q 616 830 628 833 q 590 824 604 826 q 563 822 576 822 q 544 821 550 821 q 548 857 549 832 q 547 913 547 882 q 547 979 546 944 q 556 1046 547 1014 l 556 1050 l 561 1071 q 563 1113 564 1088 q 560 1164 561 1138 q 559 1213 558 1190 q 567 1247 560 1236 q 585 1260 572 1256 q 615 1265 599 1264 q 644 1267 631 1267 q 665 1265 658 1267 q 672 1264 667 1265 q 681 1261 678 1263 l 693 1258 q 697 1257 693 1257 q 702 1235 701 1243 q 704 1222 703 1228 q 708 1208 706 1215 q 721 1188 711 1200 q 733 1162 732 1172 q 746 1144 735 1151 q 766 1144 758 1138 q 782 1156 774 1150 q 774 1240 778 1196 q 763 1318 769 1285 q 756 1335 760 1329 q 746 1342 753 1340 q 725 1344 739 1344 q 689 1343 711 1343 l 508 1332 q 481 1329 489 1331 q 467 1328 472 1328 q 453 1330 461 1328 q 426 1338 446 1332 q 402 1347 407 1343 q 397 1353 397 1351 q 394 1358 396 1356 q 379 1364 393 1360 q 326 1372 354 1371 q 274 1364 297 1374 q 249 1349 263 1360 q 220 1324 235 1338 q 192 1297 206 1310 q 172 1275 179 1283 q 153 1244 161 1263 q 139 1210 146 1225 l 124 1164 q 121 1156 124 1158 q 112 1126 114 1138 q 108 1103 110 1114 q 104 1083 106 1093 q 99 1057 103 1072 q 91 1032 93 1039 q 88 1019 89 1025 q 88 1006 88 1014 q 89 981 89 999 q 80 896 89 942 q 68 804 71 850 q 65 766 65 781 q 63 739 64 751 q 63 712 63 726 q 67 675 64 697 l 65 656 q 65 588 58 624 q 71 519 71 551 q 73 498 71 508 q 78 476 75 488 q 85 434 83 451 q 88 400 86 417 q 94 365 89 383 q 111 318 99 346 q 142 253 125 285 q 181 197 158 222 q 233 153 203 172 q 306 125 263 135 q 383 119 350 115 q 444 133 417 124 q 493 153 471 142 q 538 167 515 164 l 618 186 q 638 190 628 189 q 657 194 647 192 q 690 197 686 201 q 697 190 693 193 q 741 183 721 179 q 785 188 761 186 m 450 204 q 382 197 422 193 q 318 221 342 201 q 259 301 281 253 q 226 403 238 349 q 209 514 214 458 q 200 617 204 569 q 192 756 193 697 q 194 867 192 815 q 205 974 197 919 q 222 1099 213 1028 q 240 1163 226 1129 q 274 1223 253 1196 q 322 1267 294 1250 q 383 1282 350 1283 q 415 1270 400 1281 q 433 1244 431 1260 q 436 1192 436 1225 q 435 1124 436 1160 q 433 1053 435 1088 q 432 996 432 1018 q 435 872 432 928 q 442 760 439 815 q 443 646 444 706 q 433 511 442 586 q 431 437 429 474 q 436 362 432 400 q 444 284 440 324 q 450 204 449 244 "},"":{"ha":922,"x_min":-76,"x_max":861,"o":"m 436 1463 l 372 1339 q 355 1294 363 1317 q 338 1250 347 1272 q 331 1226 333 1238 q 324 1201 328 1214 q 317 1188 319 1190 q 313 1183 315 1185 q 309 1176 311 1181 q 303 1160 307 1172 q 285 1106 296 1138 q 262 1040 274 1074 q 240 976 250 1007 q 226 925 231 946 q 214 876 221 903 q 199 821 207 849 q 186 768 192 793 q 178 725 181 743 q 158 620 171 672 q 132 522 144 568 q 115 460 121 485 q 106 415 110 436 q 97 373 101 394 q 86 319 93 351 q 82 292 83 306 q 78 271 81 279 q 76 263 76 267 q 75 253 75 258 l 72 244 q 65 208 64 219 q 61 179 65 197 q 47 142 57 163 q 22 103 36 122 q -10 66 7 83 q -46 39 -28 49 q -67 26 -61 29 q -75 21 -74 22 q -76 18 -76 19 q -75 11 -75 17 q -45 6 -58 0 q -13 23 -32 13 q 35 42 6 33 q 114 42 64 50 q 169 35 143 36 q 217 31 194 33 q 243 26 229 29 q 271 19 257 22 q 297 16 285 17 q 317 19 310 15 q 313 30 314 28 q 297 39 313 32 l 290 42 q 265 57 278 47 q 242 78 253 67 q 223 103 231 90 q 214 132 215 117 q 215 210 211 158 q 226 319 219 263 q 241 428 233 376 q 253 508 249 481 q 342 516 296 518 q 433 515 388 514 q 432 471 432 504 q 433 400 432 438 q 435 331 435 363 q 438 294 436 300 q 442 253 442 275 q 428 214 443 232 q 386 183 406 190 q 360 164 367 176 q 383 160 368 160 q 414 164 397 161 q 448 170 431 167 q 478 174 465 174 l 646 168 q 668 165 660 165 q 684 164 676 164 q 699 165 692 164 q 722 164 707 165 q 758 163 740 163 q 794 163 776 164 q 827 159 819 163 q 847 143 835 156 q 849 151 849 149 q 850 153 850 153 q 852 153 850 153 q 861 158 854 154 l 853 315 q 851 347 853 328 q 845 387 849 367 q 836 424 842 407 q 825 451 831 442 q 806 442 811 449 q 801 422 801 435 q 801 392 800 410 q 801 349 803 374 q 790 276 799 303 q 763 237 782 249 q 711 225 743 225 q 631 232 679 225 q 582 262 593 238 q 567 319 571 286 q 550 452 558 383 q 544 581 542 521 l 531 856 q 569 860 556 858 q 592 855 583 861 q 608 830 601 849 q 626 772 615 811 q 630 758 628 767 q 638 742 632 750 q 651 730 643 735 q 675 728 660 725 q 694 740 694 731 q 685 769 694 749 q 664 825 676 790 q 647 914 651 860 q 642 969 644 942 q 639 1024 639 997 q 641 1045 639 1032 q 643 1070 643 1058 q 638 1090 643 1082 q 621 1099 633 1099 q 613 1051 610 1082 q 613 988 615 1019 q 594 931 611 956 q 528 901 578 906 q 526 1008 531 958 q 518 1106 521 1057 q 520 1163 517 1138 q 515 1221 524 1188 q 512 1270 510 1243 q 514 1324 514 1297 q 524 1372 514 1358 q 567 1390 535 1386 q 624 1390 594 1394 q 674 1374 653 1385 q 694 1360 686 1367 q 707 1344 701 1353 q 717 1327 713 1336 q 729 1306 722 1318 q 750 1267 744 1281 q 758 1247 756 1254 q 760 1234 760 1239 q 768 1221 761 1229 q 779 1222 776 1222 q 783 1224 782 1222 q 784 1227 783 1225 q 790 1235 785 1229 l 806 1246 q 799 1281 803 1265 q 794 1310 796 1296 q 790 1341 792 1325 q 786 1376 788 1357 q 783 1415 783 1397 q 779 1454 782 1433 q 764 1483 775 1479 q 732 1483 753 1488 q 678 1469 711 1478 q 597 1458 644 1460 q 556 1458 578 1458 q 515 1457 535 1457 q 474 1459 489 1457 q 436 1463 458 1461 m 249 571 q 261 644 251 611 q 276 718 271 678 q 284 757 279 740 q 294 790 289 774 q 306 822 300 806 q 315 857 311 838 q 323 890 317 867 q 337 941 329 913 q 353 1001 344 969 q 370 1060 363 1033 q 385 1107 378 1088 q 394 1131 392 1126 q 399 1106 397 1124 q 402 1068 401 1089 q 403 1027 403 1047 q 404 996 404 1007 q 413 925 406 958 q 416 858 419 889 q 411 793 413 828 l 421 585 q 380 580 399 583 q 338 576 361 576 q 292 576 313 576 q 249 571 272 576 "},"":{"ha":621,"x_min":-3,"x_max":660,"o":"m 339 1401 q 336 1421 338 1408 q 335 1436 335 1433 q 322 1458 333 1439 q 298 1504 311 1478 q 272 1558 285 1531 q 253 1603 258 1585 q 247 1624 249 1614 q 242 1643 246 1633 q 237 1653 238 1653 q 235 1668 236 1653 q 234 1675 235 1671 q 222 1685 233 1679 q 214 1687 215 1688 q 206 1688 213 1686 q 171 1690 185 1689 q 144 1692 157 1692 q 118 1692 132 1692 q 85 1692 104 1692 q 88 1680 86 1682 q 92 1676 90 1678 q 99 1669 94 1675 q 111 1647 103 1664 q 134 1613 119 1632 q 163 1574 149 1593 q 189 1542 178 1556 q 201 1528 200 1529 q 232 1482 217 1504 q 254 1440 247 1460 q 275 1406 261 1419 q 313 1396 289 1393 q 326 1397 324 1396 q 327 1398 328 1397 q 328 1400 326 1399 q 339 1401 329 1401 m 1 171 q 29 173 18 167 q 52 188 40 179 q 79 203 64 196 q 118 208 94 210 q 148 207 126 208 q 192 206 169 206 q 234 206 215 206 q 256 211 253 207 q 262 224 263 218 q 256 233 261 229 q 242 242 250 238 q 225 253 233 246 q 199 274 210 265 q 176 290 188 283 q 183 334 178 314 q 192 375 188 354 q 196 421 194 394 q 200 469 197 447 q 204 516 204 494 q 205 558 204 538 q 209 597 206 578 q 224 635 213 615 q 258 631 239 633 q 292 626 276 628 q 334 628 319 624 q 357 624 349 632 q 369 590 365 617 q 381 500 374 564 q 391 440 383 472 q 406 376 399 408 q 415 333 410 356 q 422 288 419 311 q 423 243 425 265 q 408 201 421 221 q 401 190 406 197 q 392 174 396 182 q 385 158 388 165 q 382 146 382 150 q 385 143 386 144 q 382 142 383 142 q 383 142 381 142 q 397 144 386 142 q 414 153 404 146 q 426 167 421 160 q 438 182 431 175 q 453 192 446 190 q 469 193 461 193 q 488 193 478 193 q 513 196 499 193 q 533 201 525 199 q 547 206 540 204 q 563 209 554 208 q 588 208 572 210 q 625 198 611 206 q 660 193 639 190 q 651 210 656 208 q 636 219 647 213 q 623 228 628 225 q 610 239 618 232 l 554 282 q 528 324 539 294 q 510 389 518 354 q 496 456 501 424 q 486 506 490 489 q 475 544 481 526 q 464 581 469 561 l 438 733 q 431 774 435 753 q 425 811 428 794 l 389 1071 q 380 1110 383 1089 q 371 1146 376 1132 q 353 1195 358 1181 q 347 1219 349 1210 q 342 1243 344 1229 q 332 1293 340 1257 q 325 1322 329 1303 q 308 1346 321 1340 l 292 1349 l 217 1056 q 212 1019 213 1032 q 207 983 211 1006 q 191 918 197 938 q 180 882 185 899 q 172 838 175 865 q 164 751 168 811 q 149 672 161 710 q 131 597 138 633 q 126 557 128 578 q 118 517 124 536 q 112 497 115 504 q 105 483 108 490 q 99 466 101 475 q 97 443 97 457 q 95 394 96 410 q 94 366 94 379 q 90 335 93 353 q 81 281 88 317 q 62 244 76 257 q 33 222 47 232 q 8 201 18 213 q 1 171 -3 190 m 231 696 q 249 798 240 758 q 267 874 258 838 q 282 953 275 910 q 296 1069 289 997 q 304 1038 299 1064 q 315 973 310 1011 q 327 891 321 935 q 338 806 333 847 q 345 734 342 765 q 349 690 349 703 q 317 690 333 692 q 285 689 300 689 q 257 692 267 690 q 231 696 247 694 "},"":{"ha":565,"x_min":63,"x_max":556,"o":"m 339 1154 q 336 1174 338 1161 q 335 1189 335 1186 q 322 1211 333 1192 q 298 1257 311 1231 q 272 1310 285 1283 q 253 1356 258 1338 q 247 1376 249 1367 q 242 1396 246 1386 q 237 1406 238 1406 q 235 1421 236 1406 q 234 1428 235 1424 q 222 1438 233 1432 q 214 1440 215 1440 q 206 1440 213 1439 q 171 1443 185 1442 q 144 1444 157 1444 q 118 1444 132 1444 q 85 1444 104 1444 q 88 1433 86 1435 q 92 1429 90 1431 q 99 1422 94 1428 q 111 1400 103 1417 q 134 1365 119 1385 q 163 1327 149 1346 q 189 1295 178 1308 q 201 1281 200 1282 q 232 1235 217 1257 q 254 1193 247 1213 q 275 1159 261 1172 q 313 1149 289 1146 q 326 1149 324 1149 q 327 1151 328 1150 q 328 1153 326 1151 q 339 1154 329 1154 m 63 1056 q 70 1036 64 1044 q 85 1021 76 1028 q 105 1006 94 1014 q 125 985 115 997 q 149 940 139 965 q 160 885 158 915 q 160 860 161 868 q 160 847 160 853 q 160 835 160 842 q 164 811 161 828 q 172 747 169 779 q 172 678 175 714 q 174 598 169 644 q 182 499 179 551 q 183 394 185 447 q 164 290 181 340 q 150 263 157 272 q 136 247 143 253 q 121 233 129 240 q 104 213 113 226 q 128 209 118 206 q 153 218 139 213 q 189 228 168 224 q 244 231 210 233 q 277 222 264 228 q 315 214 290 215 q 367 215 346 213 q 404 222 388 218 q 437 228 421 225 q 474 229 453 231 q 513 225 492 228 q 544 236 535 222 q 553 269 556 249 q 550 308 550 290 q 549 326 550 314 q 548 350 549 338 q 546 372 547 363 q 544 383 544 382 q 526 382 528 383 q 519 371 525 381 l 488 288 q 436 290 457 286 q 383 294 415 294 q 329 292 360 293 q 281 300 299 290 q 271 360 274 313 q 266 463 268 407 q 264 571 264 519 q 264 643 264 622 l 383 674 q 390 613 389 629 q 389 592 390 596 q 385 590 388 588 q 383 586 383 592 l 397 569 q 403 558 403 563 q 406 552 404 554 q 409 549 407 550 q 419 544 411 547 q 436 574 436 560 q 433 611 436 589 q 435 651 432 622 q 435 728 439 679 q 433 745 433 736 q 431 760 432 754 q 424 778 428 774 q 432 790 419 782 q 415 801 424 792 q 397 816 406 811 q 383 816 389 821 q 378 782 378 811 q 376 751 376 760 q 353 735 376 742 l 258 715 q 257 783 258 743 q 255 862 256 822 q 256 935 254 901 q 265 986 258 969 q 293 1008 272 1000 q 339 1021 314 1017 q 388 1026 364 1025 q 424 1028 411 1028 q 448 1019 439 1028 q 463 999 457 1011 q 475 972 469 988 q 489 943 481 957 q 499 927 493 935 q 513 914 504 919 q 527 931 526 921 q 531 974 528 940 q 533 1018 533 997 q 517 1050 532 1039 q 457 1068 497 1063 q 371 1073 417 1074 q 282 1066 325 1072 q 215 1047 239 1060 q 171 1033 190 1033 q 134 1037 151 1032 q 99 1049 117 1042 q 63 1056 82 1056 "},"":{"ha":300,"x_min":-46,"x_max":289,"o":"m 208 1350 q 206 1369 207 1357 q 204 1385 204 1382 q 192 1407 203 1388 q 167 1453 181 1426 q 141 1506 154 1479 q 122 1551 128 1533 q 117 1572 118 1563 q 111 1592 115 1582 q 106 1601 107 1601 q 104 1617 106 1601 q 103 1624 104 1619 q 92 1633 103 1628 q 83 1635 85 1636 q 75 1636 82 1635 q 40 1639 54 1638 q 14 1640 26 1640 q -12 1640 1 1640 q -46 1640 -26 1640 q -42 1628 -44 1631 q -38 1625 -40 1626 q -32 1618 -36 1624 q -19 1596 -28 1613 q 3 1561 -11 1581 q 33 1523 18 1542 q 58 1491 47 1504 q 71 1476 69 1478 q 101 1431 86 1453 q 124 1389 117 1408 q 144 1355 131 1368 q 182 1344 158 1342 q 195 1345 193 1344 q 197 1347 197 1346 q 197 1349 196 1347 q 208 1350 199 1350 m 33 1272 q 45 1258 35 1264 q 69 1246 56 1251 q 94 1235 82 1240 q 110 1226 106 1231 q 117 1192 115 1218 q 119 1135 119 1167 q 118 1076 119 1104 q 115 1033 117 1047 q 118 1001 115 1015 q 118 968 121 986 q 111 911 113 924 q 111 894 110 899 q 115 883 113 890 q 119 842 117 875 q 118 796 121 808 q 112 776 115 783 q 106 758 108 769 q 106 715 103 746 q 108 688 107 707 q 108 650 108 669 q 107 613 108 631 q 104 589 106 596 q 98 530 94 550 q 105 494 101 510 q 105 460 108 479 q 79 407 101 442 q 61 384 69 392 q 47 361 53 376 q 54 350 50 354 q 74 354 58 346 q 81 359 81 358 q 86 364 81 360 q 111 378 100 375 q 139 388 122 382 q 170 391 154 393 q 202 386 186 389 q 235 381 218 383 q 269 385 251 379 q 273 399 272 399 q 264 407 274 400 q 233 422 244 422 q 215 433 221 422 q 208 481 208 444 q 215 603 208 517 q 218 653 218 639 q 216 676 218 667 q 211 699 214 685 q 207 749 208 713 q 207 821 204 786 q 207 894 210 856 q 204 960 206 919 q 203 1043 203 1000 q 208 1124 204 1086 q 222 1183 211 1163 l 250 1235 q 272 1260 261 1253 q 289 1278 283 1267 q 238 1286 261 1290 q 175 1279 214 1282 q 142 1278 164 1278 q 98 1278 121 1278 q 56 1276 75 1278 q 33 1272 38 1275 "},"":{"ha":531,"x_min":19,"x_max":469,"o":"m 274 1268 q 271 1288 272 1275 q 269 1303 269 1300 q 257 1325 268 1306 q 233 1371 246 1344 q 206 1424 219 1397 q 188 1469 193 1451 q 182 1490 183 1481 q 176 1510 181 1500 q 172 1519 172 1519 q 169 1535 171 1519 q 169 1542 169 1538 q 157 1551 168 1546 q 149 1553 150 1554 q 140 1554 147 1553 q 106 1557 119 1556 q 79 1558 92 1558 q 53 1558 67 1558 q 19 1558 39 1558 q 23 1547 21 1549 q 27 1543 25 1544 q 33 1536 29 1542 q 46 1514 38 1531 q 69 1479 54 1499 q 98 1441 83 1460 q 124 1409 113 1422 q 136 1394 135 1396 q 167 1349 151 1371 q 189 1307 182 1326 q 210 1273 196 1286 q 247 1263 224 1260 q 260 1263 258 1263 q 262 1265 263 1264 q 263 1267 261 1265 q 274 1268 264 1268 m 211 1204 q 192 1199 197 1200 q 176 1192 188 1199 l 113 1115 q 91 1057 94 1085 q 85 1003 88 1029 q 83 984 85 996 q 81 965 81 972 q 74 884 78 928 q 71 794 71 840 q 72 751 71 767 q 71 711 74 735 q 65 644 65 669 q 69 597 65 619 q 78 548 72 575 q 92 474 85 521 q 97 447 94 458 q 99 418 100 436 q 106 378 99 413 q 128 304 114 344 q 159 227 142 264 q 197 181 176 190 q 213 176 211 174 q 229 175 215 179 q 243 167 229 175 q 277 155 257 160 q 322 154 297 150 q 367 182 346 158 l 386 208 q 391 226 389 215 q 396 246 393 238 q 424 311 408 279 q 450 379 440 343 q 461 451 457 404 q 467 549 465 497 q 469 647 469 600 q 465 721 468 694 l 435 967 q 426 1004 431 990 q 415 1040 421 1018 q 378 1134 401 1092 q 294 1199 354 1176 q 252 1209 272 1207 q 211 1204 232 1211 m 293 192 q 262 219 269 207 q 251 242 254 231 q 247 265 249 253 q 236 292 246 276 q 222 313 226 306 q 217 324 218 319 q 218 331 217 328 q 219 344 219 335 l 158 867 q 165 900 161 885 q 171 932 168 915 q 180 991 175 957 q 191 1059 185 1025 q 207 1123 197 1093 q 232 1168 217 1153 q 265 1147 253 1165 q 284 1104 276 1128 q 295 1058 292 1081 q 303 1026 299 1036 q 312 997 310 1007 q 314 981 314 988 q 315 972 314 975 q 318 963 315 968 q 335 930 331 943 q 339 903 339 917 q 339 873 339 889 q 346 831 339 857 q 353 802 349 819 q 363 767 358 785 q 370 731 368 749 q 369 703 372 714 q 365 694 367 694 q 363 691 364 694 q 361 678 361 688 q 364 642 361 668 l 358 444 q 350 373 354 411 q 339 304 346 335 l 293 192 "},"":{"ha":735,"x_min":36,"x_max":707,"o":"m 361 1238 q 358 1257 360 1244 q 357 1272 357 1269 q 344 1294 356 1275 q 320 1340 333 1314 q 294 1394 307 1367 q 275 1439 281 1421 q 269 1460 271 1450 q 264 1479 268 1469 q 259 1489 260 1489 q 257 1504 258 1489 q 256 1511 257 1507 q 244 1521 256 1515 q 236 1523 238 1524 q 228 1524 235 1522 q 193 1526 207 1525 q 167 1528 179 1528 q 140 1528 154 1528 q 107 1528 126 1528 q 110 1516 108 1518 q 115 1513 113 1514 q 121 1506 117 1511 q 133 1483 125 1500 q 156 1449 142 1468 q 185 1410 171 1429 q 211 1378 200 1392 q 224 1364 222 1365 q 254 1318 239 1340 q 276 1276 269 1296 q 297 1242 283 1256 q 335 1232 311 1229 q 348 1233 346 1232 q 349 1234 350 1233 q 350 1236 349 1235 q 361 1238 351 1238 m 454 1185 q 485 1172 471 1172 q 510 1158 500 1171 q 524 1110 519 1146 q 524 992 528 1075 q 526 944 522 964 q 533 899 529 924 q 536 840 536 875 q 528 749 536 804 q 521 653 521 708 q 519 544 521 597 q 511 449 518 492 q 483 389 504 406 q 456 371 471 379 q 424 358 440 363 q 390 356 407 354 q 357 367 374 357 l 340 376 q 324 387 329 383 q 316 394 319 390 q 310 401 313 397 q 300 415 307 406 q 269 469 279 446 q 254 515 258 492 q 249 564 250 538 q 246 631 247 590 q 241 694 244 657 q 231 754 238 731 q 226 803 228 767 q 224 882 225 840 q 223 960 224 924 q 221 1006 222 996 q 220 1009 221 1008 q 221 1014 219 1010 q 224 1051 222 1033 q 242 1083 226 1069 q 263 1099 251 1092 q 274 1110 274 1108 q 276 1119 275 1113 q 231 1126 265 1125 q 156 1125 196 1128 q 81 1117 115 1122 q 36 1108 46 1113 q 44 1097 40 1100 q 54 1093 49 1094 q 65 1089 60 1092 q 79 1078 71 1086 q 112 1038 101 1053 q 125 1011 122 1024 q 127 983 128 999 q 126 942 126 968 q 131 864 128 900 q 133 786 135 828 l 153 496 q 201 385 167 429 q 297 318 235 340 q 360 299 326 307 q 427 289 393 290 q 494 294 461 288 q 558 319 528 300 q 600 367 586 336 q 619 435 614 397 q 622 517 624 474 q 617 603 621 560 q 611 685 614 646 q 611 753 608 724 q 616 790 614 772 q 618 824 618 808 q 615 894 615 854 q 614 972 615 935 q 613 1022 614 994 q 614 1076 611 1049 q 626 1126 617 1103 q 656 1164 635 1149 q 676 1175 668 1174 q 691 1178 685 1176 q 701 1182 697 1179 q 707 1196 704 1185 q 674 1201 697 1203 q 622 1197 651 1200 q 563 1192 593 1194 q 508 1193 532 1189 q 475 1198 492 1196 q 454 1185 458 1200 "},"":{"ha":565,"x_min":63,"x_max":556,"o":"m 339 1154 q 336 1174 338 1161 q 335 1189 335 1186 q 322 1211 333 1192 q 298 1257 311 1231 q 272 1310 285 1283 q 253 1356 258 1338 q 247 1376 249 1367 q 242 1396 246 1386 q 237 1406 238 1406 q 235 1421 236 1406 q 234 1428 235 1424 q 222 1438 233 1432 q 214 1440 215 1440 q 206 1440 213 1439 q 171 1443 185 1442 q 144 1444 157 1444 q 118 1444 132 1444 q 85 1444 104 1444 q 88 1433 86 1435 q 92 1429 90 1431 q 99 1422 94 1428 q 111 1400 103 1417 q 134 1365 119 1385 q 163 1327 149 1346 q 189 1295 178 1308 q 201 1281 200 1282 q 232 1235 217 1257 q 254 1193 247 1213 q 275 1159 261 1172 q 313 1149 289 1146 q 326 1149 324 1149 q 327 1151 328 1150 q 328 1153 326 1151 q 339 1154 329 1154 m 63 1056 q 70 1036 64 1044 q 85 1021 76 1028 q 105 1006 94 1014 q 125 985 115 997 q 149 940 139 965 q 160 885 158 915 q 160 860 161 868 q 160 847 160 853 q 160 835 160 842 q 164 811 161 828 q 172 747 169 779 q 172 678 175 714 q 174 598 169 644 q 182 499 179 551 q 183 394 185 447 q 164 290 181 340 q 150 263 157 272 q 136 247 143 253 q 121 233 129 240 q 104 213 113 226 q 128 209 118 206 q 153 218 139 213 q 189 228 168 224 q 244 231 210 233 q 277 222 264 228 q 315 214 290 215 q 367 215 346 213 q 404 222 388 218 q 437 228 421 225 q 474 229 453 231 q 513 225 492 228 q 544 236 535 222 q 553 269 556 249 q 550 308 550 290 q 549 326 550 314 q 548 350 549 338 q 546 372 547 363 q 544 383 544 382 q 526 382 528 383 q 519 371 525 381 l 488 288 q 436 290 457 286 q 383 294 415 294 q 329 292 360 293 q 281 300 299 290 q 271 360 274 313 q 266 463 268 407 q 264 571 264 519 q 264 643 264 622 l 383 674 q 390 613 389 629 q 389 592 390 596 q 385 590 388 588 q 383 586 383 592 l 397 569 q 403 558 403 563 q 406 552 404 554 q 409 549 407 550 q 419 544 411 547 q 436 574 436 560 q 433 611 436 589 q 435 651 432 622 q 435 728 439 679 q 433 745 433 736 q 431 760 432 754 q 424 778 428 774 q 432 790 419 782 q 415 801 424 792 q 397 816 406 811 q 383 816 389 821 q 378 782 378 811 q 376 751 376 760 q 353 735 376 742 l 258 715 q 257 783 258 743 q 255 862 256 822 q 256 935 254 901 q 265 986 258 969 q 293 1008 272 1000 q 339 1021 314 1017 q 388 1026 364 1025 q 424 1028 411 1028 q 448 1019 439 1028 q 463 999 457 1011 q 475 972 469 988 q 489 943 481 957 q 499 927 493 935 q 513 914 504 919 q 527 931 526 921 q 531 974 528 940 q 533 1018 533 997 q 517 1050 532 1039 q 457 1068 497 1063 q 371 1073 417 1074 q 282 1066 325 1072 q 215 1047 239 1060 q 171 1033 190 1033 q 134 1037 151 1032 q 99 1049 117 1042 q 63 1056 82 1056 "},"":{"ha":300,"x_min":-46,"x_max":289,"o":"m 208 1350 q 206 1369 207 1357 q 204 1385 204 1382 q 192 1407 203 1388 q 167 1453 181 1426 q 141 1506 154 1479 q 122 1551 128 1533 q 117 1572 118 1563 q 111 1592 115 1582 q 106 1601 107 1601 q 104 1617 106 1601 q 103 1624 104 1619 q 92 1633 103 1628 q 83 1635 85 1636 q 75 1636 82 1635 q 40 1639 54 1638 q 14 1640 26 1640 q -12 1640 1 1640 q -46 1640 -26 1640 q -42 1628 -44 1631 q -38 1625 -40 1626 q -32 1618 -36 1624 q -19 1596 -28 1613 q 3 1561 -11 1581 q 33 1523 18 1542 q 58 1491 47 1504 q 71 1476 69 1478 q 101 1431 86 1453 q 124 1389 117 1408 q 144 1355 131 1368 q 182 1344 158 1342 q 195 1345 193 1344 q 197 1347 197 1346 q 197 1349 196 1347 q 208 1350 199 1350 m 33 1272 q 45 1258 35 1264 q 69 1246 56 1251 q 94 1235 82 1240 q 110 1226 106 1231 q 117 1192 115 1218 q 119 1135 119 1167 q 118 1076 119 1104 q 115 1033 117 1047 q 118 1001 115 1015 q 118 968 121 986 q 111 911 113 924 q 111 894 110 899 q 115 883 113 890 q 119 842 117 875 q 118 796 121 808 q 112 776 115 783 q 106 758 108 769 q 106 715 103 746 q 108 688 107 707 q 108 650 108 669 q 107 613 108 631 q 104 589 106 596 q 98 530 94 550 q 105 494 101 510 q 105 460 108 479 q 79 407 101 442 q 61 384 69 392 q 47 361 53 376 q 54 350 50 354 q 74 354 58 346 q 81 359 81 358 q 86 364 81 360 q 111 378 100 375 q 139 388 122 382 q 170 391 154 393 q 202 386 186 389 q 235 381 218 383 q 269 385 251 379 q 273 399 272 399 q 264 407 274 400 q 233 422 244 422 q 215 433 221 422 q 208 481 208 444 q 215 603 208 517 q 218 653 218 639 q 216 676 218 667 q 211 699 214 685 q 207 749 208 713 q 207 821 204 786 q 207 894 210 856 q 204 960 206 919 q 203 1043 203 1000 q 208 1124 204 1086 q 222 1183 211 1163 l 250 1235 q 272 1260 261 1253 q 289 1278 283 1267 q 238 1286 261 1290 q 175 1279 214 1282 q 142 1278 164 1278 q 98 1278 121 1278 q 56 1276 75 1278 q 33 1272 38 1275 "},"":{"ha":531,"x_min":19,"x_max":469,"o":"m 274 1268 q 271 1288 272 1275 q 269 1303 269 1300 q 257 1325 268 1306 q 233 1371 246 1344 q 206 1424 219 1397 q 188 1469 193 1451 q 182 1490 183 1481 q 176 1510 181 1500 q 172 1519 172 1519 q 169 1535 171 1519 q 169 1542 169 1538 q 157 1551 168 1546 q 149 1553 150 1554 q 140 1554 147 1553 q 106 1557 119 1556 q 79 1558 92 1558 q 53 1558 67 1558 q 19 1558 39 1558 q 23 1547 21 1549 q 27 1543 25 1544 q 33 1536 29 1542 q 46 1514 38 1531 q 69 1479 54 1499 q 98 1441 83 1460 q 124 1409 113 1422 q 136 1394 135 1396 q 167 1349 151 1371 q 189 1307 182 1326 q 210 1273 196 1286 q 247 1263 224 1260 q 260 1263 258 1263 q 262 1265 263 1264 q 263 1267 261 1265 q 274 1268 264 1268 m 211 1204 q 192 1199 197 1200 q 176 1192 188 1199 l 113 1115 q 91 1057 94 1085 q 85 1003 88 1029 q 83 984 85 996 q 81 965 81 972 q 74 884 78 928 q 71 794 71 840 q 72 751 71 767 q 71 711 74 735 q 65 644 65 669 q 69 597 65 619 q 78 548 72 575 q 92 474 85 521 q 97 447 94 458 q 99 418 100 436 q 106 378 99 413 q 128 304 114 344 q 159 227 142 264 q 197 181 176 190 q 213 176 211 174 q 229 175 215 179 q 243 167 229 175 q 277 155 257 160 q 322 154 297 150 q 367 182 346 158 l 386 208 q 391 226 389 215 q 396 246 393 238 q 424 311 408 279 q 450 379 440 343 q 461 451 457 404 q 467 549 465 497 q 469 647 469 600 q 465 721 468 694 l 435 967 q 426 1004 431 990 q 415 1040 421 1018 q 378 1134 401 1092 q 294 1199 354 1176 q 252 1209 272 1207 q 211 1204 232 1211 m 293 192 q 262 219 269 207 q 251 242 254 231 q 247 265 249 253 q 236 292 246 276 q 222 313 226 306 q 217 324 218 319 q 218 331 217 328 q 219 344 219 335 l 158 867 q 165 900 161 885 q 171 932 168 915 q 180 991 175 957 q 191 1059 185 1025 q 207 1123 197 1093 q 232 1168 217 1153 q 265 1147 253 1165 q 284 1104 276 1128 q 295 1058 292 1081 q 303 1026 299 1036 q 312 997 310 1007 q 314 981 314 988 q 315 972 314 975 q 318 963 315 968 q 335 930 331 943 q 339 903 339 917 q 339 873 339 889 q 346 831 339 857 q 353 802 349 819 q 363 767 358 785 q 370 731 368 749 q 369 703 372 714 q 365 694 367 694 q 363 691 364 694 q 361 678 361 688 q 364 642 361 668 l 358 444 q 350 373 354 411 q 339 304 346 335 l 293 192 "},"":{"ha":735,"x_min":36,"x_max":707,"o":"m 361 1238 q 358 1257 360 1244 q 357 1272 357 1269 q 344 1294 356 1275 q 320 1340 333 1314 q 294 1394 307 1367 q 275 1439 281 1421 q 269 1460 271 1450 q 264 1479 268 1469 q 259 1489 260 1489 q 257 1504 258 1489 q 256 1511 257 1507 q 244 1521 256 1515 q 236 1523 238 1524 q 228 1524 235 1522 q 193 1526 207 1525 q 167 1528 179 1528 q 140 1528 154 1528 q 107 1528 126 1528 q 110 1516 108 1518 q 115 1513 113 1514 q 121 1506 117 1511 q 133 1483 125 1500 q 156 1449 142 1468 q 185 1410 171 1429 q 211 1378 200 1392 q 224 1364 222 1365 q 254 1318 239 1340 q 276 1276 269 1296 q 297 1242 283 1256 q 335 1232 311 1229 q 348 1233 346 1232 q 349 1234 350 1233 q 350 1236 349 1235 q 361 1238 351 1238 m 454 1185 q 485 1172 471 1172 q 510 1158 500 1171 q 524 1110 519 1146 q 524 992 528 1075 q 526 944 522 964 q 533 899 529 924 q 536 840 536 875 q 528 749 536 804 q 521 653 521 708 q 519 544 521 597 q 511 449 518 492 q 483 389 504 406 q 456 371 471 379 q 424 358 440 363 q 390 356 407 354 q 357 367 374 357 l 340 376 q 324 387 329 383 q 316 394 319 390 q 310 401 313 397 q 300 415 307 406 q 269 469 279 446 q 254 515 258 492 q 249 564 250 538 q 246 631 247 590 q 241 694 244 657 q 231 754 238 731 q 226 803 228 767 q 224 882 225 840 q 223 960 224 924 q 221 1006 222 996 q 220 1009 221 1008 q 221 1014 219 1010 q 224 1051 222 1033 q 242 1083 226 1069 q 263 1099 251 1092 q 274 1110 274 1108 q 276 1119 275 1113 q 231 1126 265 1125 q 156 1125 196 1128 q 81 1117 115 1122 q 36 1108 46 1113 q 44 1097 40 1100 q 54 1093 49 1094 q 65 1089 60 1092 q 79 1078 71 1086 q 112 1038 101 1053 q 125 1011 122 1024 q 127 983 128 999 q 126 942 126 968 q 131 864 128 900 q 133 786 135 828 l 153 496 q 201 385 167 429 q 297 318 235 340 q 360 299 326 307 q 427 289 393 290 q 494 294 461 288 q 558 319 528 300 q 600 367 586 336 q 619 435 614 397 q 622 517 624 474 q 617 603 621 560 q 611 685 614 646 q 611 753 608 724 q 616 790 614 772 q 618 824 618 808 q 615 894 615 854 q 614 972 615 935 q 613 1022 614 994 q 614 1076 611 1049 q 626 1126 617 1103 q 656 1164 635 1149 q 676 1175 668 1174 q 691 1178 685 1176 q 701 1182 697 1179 q 707 1196 704 1185 q 674 1201 697 1203 q 622 1197 651 1200 q 563 1192 593 1194 q 508 1193 532 1189 q 475 1198 492 1196 q 454 1185 458 1200 "},"":{"ha":621,"x_min":-3,"x_max":660,"o":"m 268 1403 q 301 1391 286 1390 q 329 1402 315 1392 q 357 1431 343 1413 q 389 1474 371 1450 q 410 1498 401 1488 q 428 1517 419 1508 q 445 1535 436 1526 q 467 1557 454 1544 l 496 1585 q 502 1594 503 1593 q 500 1596 501 1594 q 501 1603 499 1597 q 518 1625 504 1608 q 535 1647 525 1632 q 544 1674 544 1663 q 526 1678 539 1675 q 498 1682 513 1681 q 470 1683 483 1683 q 451 1679 457 1682 q 446 1676 443 1675 q 442 1665 449 1678 q 440 1662 439 1661 q 438 1658 440 1663 l 328 1488 q 313 1465 321 1476 q 299 1443 306 1454 q 293 1433 294 1436 q 285 1422 292 1429 q 275 1413 278 1415 q 268 1403 272 1411 m 1 171 q 29 173 18 167 q 52 188 40 179 q 79 203 64 196 q 118 208 94 210 q 148 207 126 208 q 192 206 169 206 q 234 206 215 206 q 256 211 253 207 q 262 224 263 218 q 256 233 261 229 q 242 242 250 238 q 225 253 233 246 q 199 274 210 265 q 176 290 188 283 q 183 334 178 314 q 192 375 188 354 q 196 421 194 394 q 200 469 197 447 q 204 516 204 494 q 205 558 204 538 q 209 597 206 578 q 224 635 213 615 q 258 631 239 633 q 292 626 276 628 q 334 628 319 624 q 357 624 349 632 q 369 590 365 617 q 381 500 374 564 q 391 440 383 472 q 406 376 399 408 q 415 333 410 356 q 422 288 419 311 q 423 243 425 265 q 408 201 421 221 q 401 190 406 197 q 392 174 396 182 q 385 158 388 165 q 382 146 382 150 q 385 143 386 144 q 382 142 383 142 q 383 142 381 142 q 397 144 386 142 q 414 153 404 146 q 426 167 421 160 q 438 182 431 175 q 453 192 446 190 q 469 193 461 193 q 488 193 478 193 q 513 196 499 193 q 533 201 525 199 q 547 206 540 204 q 563 209 554 208 q 588 208 572 210 q 625 198 611 206 q 660 193 639 190 q 651 210 656 208 q 636 219 647 213 q 623 228 628 225 q 610 239 618 232 l 554 282 q 528 324 539 294 q 510 389 518 354 q 496 456 501 424 q 486 506 490 489 q 475 544 481 526 q 464 581 469 561 l 438 733 q 431 774 435 753 q 425 811 428 794 l 389 1071 q 380 1110 383 1089 q 371 1146 376 1132 q 353 1195 358 1181 q 347 1219 349 1210 q 342 1243 344 1229 q 332 1293 340 1257 q 325 1322 329 1303 q 308 1346 321 1340 l 292 1349 l 217 1056 q 212 1019 213 1032 q 207 983 211 1006 q 191 918 197 938 q 180 882 185 899 q 172 838 175 865 q 164 751 168 811 q 149 672 161 710 q 131 597 138 633 q 126 557 128 578 q 118 517 124 536 q 112 497 115 504 q 105 483 108 490 q 99 466 101 475 q 97 443 97 457 q 95 394 96 410 q 94 366 94 379 q 90 335 93 353 q 81 281 88 317 q 62 244 76 257 q 33 222 47 232 q 8 201 18 213 q 1 171 -3 190 m 231 696 q 249 798 240 758 q 267 874 258 838 q 282 953 275 910 q 296 1069 289 997 q 304 1038 299 1064 q 315 973 310 1011 q 327 891 321 935 q 338 806 333 847 q 345 734 342 765 q 349 690 349 703 q 317 690 333 692 q 285 689 300 689 q 257 692 267 690 q 231 696 247 694 "}}}
